<?xml version="1.0" standalone="no"?>
<svg xmlns:xlink="http://www.w3.org/1999/xlink" id="wave" style="transform:rotate(0deg); transition: 0.3s" viewBox="0 0 1440 490" version="1.1" xmlns="http://www.w3.org/2000/svg"><defs><linearGradient id="sw-gradient-0" x1="0" x2="0" y1="1" y2="0"><stop stop-color="rgba(107, 124, 255, 0)" offset="0%"/><stop stop-color="rgba(107, 124, 255, 1)" offset="100%"/></linearGradient></defs><path style="transform:translate(0, 0px); opacity:1" fill="url(#sw-gradient-0)" d="M0,343L80,359.3C160,376,320,408,480,400.2C640,392,800,343,960,269.5C1120,196,1280,98,1440,114.3C1600,131,1760,261,1920,294C2080,327,2240,261,2400,253.2C2560,245,2720,294,2880,326.7C3040,359,3200,376,3360,334.8C3520,294,3680,196,3840,163.3C4000,131,4160,163,4320,171.5C4480,180,4640,163,4800,155.2C4960,147,5120,147,5280,130.7C5440,114,5600,82,5760,130.7C5920,180,6080,310,6240,318.5C6400,327,6560,212,6720,196C6880,180,7040,261,7200,310.3C7360,359,7520,376,7680,375.7C7840,376,8000,359,8160,326.7C8320,294,8480,245,8640,236.8C8800,229,8960,261,9120,302.2C9280,343,9440,392,9600,359.3C9760,327,9920,212,10080,163.3C10240,114,10400,131,10560,114.3C10720,98,10880,49,11040,32.7C11200,16,11360,33,11440,40.8L11520,49L11520,490L11440,490C11360,490,11200,490,11040,490C10880,490,10720,490,10560,490C10400,490,10240,490,10080,490C9920,490,9760,490,9600,490C9440,490,9280,490,9120,490C8960,490,8800,490,8640,490C8480,490,8320,490,8160,490C8000,490,7840,490,7680,490C7520,490,7360,490,7200,490C7040,490,6880,490,6720,490C6560,490,6400,490,6240,490C6080,490,5920,490,5760,490C5600,490,5440,490,5280,490C5120,490,4960,490,4800,490C4640,490,4480,490,4320,490C4160,490,4000,490,3840,490C3680,490,3520,490,3360,490C3200,490,3040,490,2880,490C2720,490,2560,490,2400,490C2240,490,2080,490,1920,490C1760,490,1600,490,1440,490C1280,490,1120,490,960,490C800,490,640,490,480,490C320,490,160,490,80,490L0,490Z"/></svg>