<svg width="34" height="33" viewBox="0 0 34 33" fill="none" xmlns="http://www.w3.org/2000/svg">
<path fill-rule="evenodd" clip-rule="evenodd" d="M12.9854 21.6448C19.1337 21.6448 24.3887 22.5764 24.3887 26.2981C24.3887 30.0198 19.1687 30.9781 12.9854 30.9781C6.83536 30.9781 1.58203 30.0548 1.58203 26.3314C1.58203 22.6081 6.80036 21.6448 12.9854 21.6448Z" stroke="#6B7CFF" stroke-width="2.5" stroke-linecap="round" stroke-linejoin="round"/>
<path fill-rule="evenodd" clip-rule="evenodd" d="M12.9858 16.3331C8.94912 16.3331 5.67578 13.0614 5.67578 9.02476C5.67578 4.9881 8.94912 1.71643 12.9858 1.71643C17.0208 1.71643 20.2941 4.9881 20.2941 9.02476C20.3091 13.0464 17.0591 16.3181 13.0374 16.3331H12.9858Z" stroke="#6B7CFF" stroke-width="2.5" stroke-linecap="round" stroke-linejoin="round"/>
<path d="M24.4707 14.4362C27.139 14.0612 29.194 11.7712 29.199 8.99954C29.199 6.26788 27.2074 4.00121 24.5957 3.57288" stroke="#6B7CFF" stroke-width="2.5" stroke-linecap="round" stroke-linejoin="round"/>
<path d="M27.9922 20.8538C30.5772 21.2388 32.3822 22.1454 32.3822 24.0121C32.3822 25.2971 31.5322 26.1304 30.1589 26.6521" stroke="#6B7CFF" stroke-width="2.5" stroke-linecap="round" stroke-linejoin="round"/>
</svg>
