<svg width="37" height="29" viewBox="0 0 37 29" fill="none" xmlns="http://www.w3.org/2000/svg">
<path d="M28.8125 13.1611C31.1375 12.8345 32.9275 10.8411 32.9325 8.42613C32.9325 6.04613 31.1975 4.0728 28.9225 3.69946" stroke="#6B7CFF" stroke-width="2.5" stroke-linecap="round" stroke-linejoin="round"/>
<path d="M31.8809 18.7506C34.1325 19.0873 35.7042 19.8756 35.7042 21.5006C35.7042 22.619 34.9642 23.3456 33.7675 23.8023" stroke="#6B7CFF" stroke-width="2.5" stroke-linecap="round" stroke-linejoin="round"/>
<path fill-rule="evenodd" clip-rule="evenodd" d="M18.8106 19.4397C13.4539 19.4397 8.87891 20.2514 8.87891 23.493C8.87891 26.733 13.4256 27.568 18.8106 27.568C24.1672 27.568 28.7406 26.7647 28.7406 23.5214C28.7406 20.278 24.1956 19.4397 18.8106 19.4397Z" stroke="#6B7CFF" stroke-width="2.5" stroke-linecap="round" stroke-linejoin="round"/>
<path fill-rule="evenodd" clip-rule="evenodd" d="M18.8104 14.8133C22.3254 14.8133 25.1754 11.9649 25.1754 8.44825C25.1754 4.93325 22.3254 2.08325 18.8104 2.08325C15.2954 2.08325 12.4454 4.93325 12.4454 8.44825C12.432 11.9516 15.2604 14.8016 18.7637 14.8133H18.8104Z" stroke="#6B7CFF" stroke-width="2.5" stroke-linecap="round" stroke-linejoin="round"/>
<path d="M8.8075 13.1611C6.48083 12.8345 4.6925 10.8411 4.6875 8.42613C4.6875 6.04613 6.4225 4.0728 8.6975 3.69946" stroke="#6B7CFF" stroke-width="2.5" stroke-linecap="round" stroke-linejoin="round"/>
<path d="M5.73935 18.7506C3.48768 19.0873 1.91602 19.8756 1.91602 21.5006C1.91602 22.619 2.65602 23.3456 3.85268 23.8023" stroke="#6B7CFF" stroke-width="2.5" stroke-linecap="round" stroke-linejoin="round"/>
</svg>
