<svg width="268" height="264" viewBox="0 0 268 264" fill="none" xmlns="http://www.w3.org/2000/svg">
<path fill-rule="evenodd" clip-rule="evenodd" d="M1.3538 -53.6015C3.33953 -72.4309 7.18402 -91.1015 12.8873 -109.316L200.684 -297.113C218.899 -302.816 237.569 -306.66 256.398 -308.646L1.3538 -53.6015ZM89.7377 185.309C97.4213 192.569 105.408 199.324 113.655 205.573L515.573 -196.345C509.324 -204.592 502.569 -212.579 495.309 -220.262L89.7377 185.309ZM172.251 239.846C162.25 235.502 152.446 230.561 142.894 225.023L535.023 -167.106C540.561 -157.554 545.502 -147.75 549.846 -137.749L172.251 239.846ZM208.127 252.658C220.101 256.054 232.253 258.656 244.499 260.466L570.466 -65.5008C568.656 -77.747 566.054 -89.8986 562.658 -101.873L208.127 252.658ZM339.072 258.762C322.894 261.753 306.51 263.346 290.111 263.542L573.542 -19.8885C573.346 -3.49026 571.753 12.8944 568.762 29.0716L339.072 258.762ZM411.417 235.106C439.649 221.477 466.111 202.952 489.532 179.532C512.952 156.111 531.477 129.649 545.106 101.417L411.417 235.106ZM470.217 -243.859L66.1411 160.217C59.3294 152.053 53.0419 143.599 47.2786 134.9L444.9 -262.721C453.599 -256.958 462.053 -250.671 470.217 -243.859ZM382.97 -293.661C393.51 -289.914 403.875 -285.532 414.005 -280.515L29.4853 104.005C24.468 93.8751 20.0858 83.5102 16.3389 72.97L382.97 -293.661ZM5.70579 34.9146L344.915 -304.294C332.066 -306.946 319.071 -308.71 306.028 -309.587L0.413036 -3.97221C1.29009 9.07124 3.05434 22.0662 5.70579 34.9146Z" fill="#6B7CFF"/>
</svg>
