<svg width="45" height="43" viewBox="0 0 45 43" fill="none" xmlns="http://www.w3.org/2000/svg">
<path d="M22.5 7.16666C14.2294 7.16666 7.5 13.5969 7.5 21.5C7.5 29.403 14.2294 35.8333 22.5 35.8333C30.7706 35.8333 37.5 29.403 37.5 21.5C37.5 13.5969 30.7706 7.16666 22.5 7.16666ZM13.125 21.5C13.125 20.0093 13.545 18.6262 14.22 17.3881L26.8031 29.412C25.4787 30.0888 24.0019 30.4479 22.5 30.4583C17.3306 30.4583 13.125 26.4396 13.125 21.5ZM30.78 25.6119L18.1969 13.588C19.5213 12.9112 20.9981 12.5521 22.5 12.5417C27.6694 12.5417 31.875 16.5604 31.875 21.5C31.875 22.9907 31.455 24.3738 30.78 25.6119Z" fill="#6B7CFF"/>
</svg>
