<svg width="32" height="30" viewBox="0 0 32 30" fill="none" xmlns="http://www.w3.org/2000/svg">
<path d="M5.95468 28.7563C5.72735 28.954 5.44834 29.0827 5.1504 29.1273C4.85247 29.172 4.54798 29.1307 4.27269 29.0084C3.99739 28.886 3.76272 28.6877 3.59621 28.4366C3.42971 28.1855 3.33829 27.8922 3.33268 27.591V24.0395C2.49283 24.0395 1.68738 23.7059 1.09351 23.1121C0.499646 22.5182 0.166016 21.7127 0.166016 20.8729V9.78955C0.166016 8.9497 0.499646 8.14424 1.09351 7.55038C1.68738 6.95651 2.49283 6.62288 3.33268 6.62288H20.7493C21.5892 6.62288 22.3947 6.95651 22.9885 7.55038C23.5824 8.14424 23.916 8.9497 23.916 9.78955V20.8729C23.916 21.7127 23.5824 22.5182 22.9885 23.1121C22.3947 23.7059 21.5892 24.0395 20.7493 24.0395H12.8374L5.95468 28.7563ZM7.29102 23.859C7.43529 23.8582 7.57698 23.8206 7.70268 23.7498L11.4314 21.1563C11.6968 20.9718 12.0123 20.8729 12.3355 20.8729H19.166C19.5859 20.8729 19.9887 20.7061 20.2856 20.4091C20.5825 20.1122 20.7493 19.7095 20.7493 19.2896V11.3729C20.7493 10.953 20.5825 10.5502 20.2856 10.2533C19.9887 9.95637 19.5859 9.78955 19.166 9.78955H4.91602C4.49609 9.78955 4.09336 9.95637 3.79643 10.2533C3.4995 10.5502 3.33268 10.953 3.33268 11.3729V19.2896C3.33268 20.1446 4.01193 20.8444 4.91602 20.8729C5.56518 20.8982 6.03543 21.0043 6.25235 21.2307C6.45502 21.4429 6.4661 21.8007 6.49935 22.4816C6.5041 22.5813 6.5041 22.7618 6.49935 23.0674C6.49935 23.2773 6.58276 23.4787 6.73122 23.6272C6.87969 23.7756 7.08105 23.859 7.29102 23.859ZM25.4993 16.1482C25.4943 16.3435 25.4943 16.5388 25.4993 16.734V16.1482ZM25.4993 16.1482C25.531 15.4674 25.5437 15.1095 25.7463 14.8974C25.9633 14.671 26.4335 14.5649 27.0827 14.5395C27.9868 14.5111 28.666 13.8112 28.666 12.9562V5.03955C28.666 4.61962 28.4992 4.2169 28.2023 3.91996C27.9053 3.62303 27.5026 3.45622 27.0827 3.45622H12.8327C12.4128 3.45622 12.01 3.62303 11.7131 3.91996C11.4162 4.2169 11.2493 4.61962 11.2493 5.03955H8.08268V3.45622C8.08268 2.61637 8.41631 1.81091 9.01018 1.21705C9.60404 0.623181 10.4095 0.289551 11.2493 0.289551L28.666 0.289551C29.5059 0.289551 30.3113 0.623181 30.9052 1.21705C31.4991 1.81091 31.8327 2.61637 31.8327 3.45622V14.5395C31.8327 15.3794 31.4991 16.1849 30.9052 16.7787C30.3113 17.3726 29.5059 17.7062 28.666 17.7062V21.2576C28.6604 21.5588 28.569 21.8522 28.4025 22.1033C28.236 22.3543 28.0013 22.5527 27.726 22.675C27.4507 22.7974 27.1462 22.8387 26.8483 22.794C26.5504 22.7494 26.2713 22.6206 26.044 22.423L25.4993 22.0493V16.1482Z" fill="white"/>
</svg>
