<svg width="21" height="22" viewBox="0 0 21 22" fill="none" xmlns="http://www.w3.org/2000/svg">
<path d="M8.85037 1.10402C8.17183 0.884557 7.43731 0.913988 6.7785 1.18704C6.1197 1.46009 5.57971 1.9589 5.25537 2.59402L4.44937 4.17002C4.35359 4.35765 4.201 4.51024 4.01337 4.60602L2.43637 5.41202C1.80125 5.73636 1.30244 6.27635 1.02939 6.93515C0.756339 7.59396 0.726907 8.32848 0.946372 9.00702L1.49237 10.692C1.55719 10.8922 1.55719 11.1078 1.49237 11.308L0.947372 12.993C0.727907 13.6716 0.757339 14.4061 1.03039 15.0649C1.30344 15.7237 1.80225 16.2637 2.43737 16.588L4.01337 17.394C4.201 17.4898 4.35359 17.6424 4.44937 17.83L5.25537 19.407C5.57971 20.0421 6.1197 20.541 6.7785 20.814C7.43731 21.0871 8.17183 21.1165 8.85037 20.897L10.5354 20.351C10.7356 20.2862 10.9512 20.2862 11.1514 20.351L12.8364 20.896C13.5148 21.1156 14.2492 21.0863 14.908 20.8134C15.5668 20.5406 16.1069 20.042 16.4314 19.407L17.2374 17.83C17.3332 17.6424 17.4857 17.4898 17.6734 17.394L19.2504 16.589C19.8857 16.2647 20.3847 15.7245 20.6577 15.0655C20.9308 14.4065 20.9601 13.6717 20.7404 12.993L20.1944 11.308C20.1296 11.1078 20.1296 10.8922 20.1944 10.692L20.7394 9.00702C20.9589 8.3286 20.9296 7.59416 20.6568 6.93537C20.3839 6.27658 19.8853 5.73653 19.2504 5.41202L17.6734 4.60602C17.4857 4.51024 17.3332 4.35765 17.2374 4.17002L16.4324 2.59302C16.108 1.95768 15.5678 1.45871 14.9088 1.18565C14.2498 0.912583 13.515 0.883288 12.8364 1.10302L11.1514 1.64902C10.9512 1.71384 10.7356 1.71384 10.5354 1.64902L8.85037 1.10402ZM5.60337 10.757L7.01737 9.34302L9.84537 12.172L15.5024 6.51502L16.9174 7.92902L9.84537 14.999L5.60337 10.757Z" fill="#FEC536"/>
</svg>
