<svg width="24" height="25" viewBox="0 0 24 25" fill="none" xmlns="http://www.w3.org/2000/svg">
<rect opacity="0.01" width="24" height="24.1676" fill="black"/>
<path d="M9 3.021H5C3.89543 3.021 3 3.92268 3 5.03496V9.0629C3 10.1752 3.89543 11.0769 5 11.0769H9C10.1046 11.0769 11 10.1752 11 9.0629V5.03496C11 3.92268 10.1046 3.021 9 3.021Z" fill="#6B7CFF"/>
<path d="M19 3.021H15C13.8954 3.021 13 3.92268 13 5.03496V9.0629C13 10.1752 13.8954 11.0769 15 11.0769H19C20.1046 11.0769 21 10.1752 21 9.0629V5.03496C21 3.92268 20.1046 3.021 19 3.021Z" fill="#6B7CFF"/>
<path d="M9 13.0908H5C3.89543 13.0908 3 13.9925 3 15.1048V19.1327C3 20.245 3.89543 21.1467 5 21.1467H9C10.1046 21.1467 11 20.245 11 19.1327V15.1048C11 13.9925 10.1046 13.0908 9 13.0908Z" fill="#6B7CFF"/>
<path d="M19 13.0908H15C13.8954 13.0908 13 13.9925 13 15.1048V19.1327C13 20.245 13.8954 21.1467 15 21.1467H19C20.1046 21.1467 21 20.245 21 19.1327V15.1048C21 13.9925 20.1046 13.0908 19 13.0908Z" fill="#6B7CFF"/>
</svg>
