<svg width="24" height="25" viewBox="0 0 24 25" fill="none" xmlns="http://www.w3.org/2000/svg">
<rect opacity="0.01" y="0.705078" width="24" height="24.1676" fill="black"/>
<path d="M9 3.72607H5C3.89543 3.72607 3 4.62776 3 5.74004V9.76797C3 10.8803 3.89543 11.7819 5 11.7819H9C10.1046 11.7819 11 10.8803 11 9.76797V5.74004C11 4.62776 10.1046 3.72607 9 3.72607Z" fill="#0F0F0F"/>
<path d="M19 3.72607H15C13.8954 3.72607 13 4.62776 13 5.74004V9.76797C13 10.8803 13.8954 11.7819 15 11.7819H19C20.1046 11.7819 21 10.8803 21 9.76797V5.74004C21 4.62776 20.1046 3.72607 19 3.72607Z" fill="#0F0F0F"/>
<path d="M9 13.7959H5C3.89543 13.7959 3 14.6976 3 15.8099V19.8378C3 20.9501 3.89543 21.8518 5 21.8518H9C10.1046 21.8518 11 20.9501 11 19.8378V15.8099C11 14.6976 10.1046 13.7959 9 13.7959Z" fill="#0F0F0F"/>
<path d="M19 13.7959H15C13.8954 13.7959 13 14.6976 13 15.8099V19.8378C13 20.9501 13.8954 21.8518 15 21.8518H19C20.1046 21.8518 21 20.9501 21 19.8378V15.8099C21 14.6976 20.1046 13.7959 19 13.7959Z" fill="#0F0F0F"/>
</svg>
