<svg width="20" height="20" viewBox="0 0 20 20" fill="none" xmlns="http://www.w3.org/2000/svg">
<path d="M8.49928 1.91687e-08C10.0952 -0.000107143 11.659 0.449106 13.0116 1.29623C14.3642 2.14336 15.4509 3.35417 16.1475 4.79009C16.8441 6.22602 17.1223 7.82905 16.9504 9.41573C16.7784 11.0024 16.1633 12.5086 15.1753 13.762L18.8273 17.414C19.0094 17.6026 19.1102 17.8552 19.108 18.1174C19.1057 18.3796 19.0005 18.6304 18.8151 18.8158C18.6297 19.0012 18.3789 19.1064 18.1167 19.1087C17.8545 19.111 17.6019 19.0102 17.4133 18.828L13.7613 15.176C12.6967 16.015 11.447 16.5872 10.1163 16.8449C8.78562 17.1026 7.4126 17.0384 6.11179 16.6576C4.81098 16.2768 3.6201 15.5904 2.63851 14.6557C1.65692 13.7211 0.913084 12.5652 0.469055 11.2846C0.0250263 10.004 -0.106316 8.63574 0.0859852 7.29404C0.278287 5.95235 0.788656 4.67609 1.57451 3.57175C2.36037 2.46742 3.39893 1.56702 4.60353 0.945694C5.80814 0.324364 7.14387 0.000115492 8.49928 1.91687e-08ZM8.49928 2C6.77537 2 5.12207 2.68482 3.90308 3.90381C2.6841 5.12279 1.99928 6.77609 1.99928 8.5C1.99928 10.2239 2.6841 11.8772 3.90308 13.0962C5.12207 14.3152 6.77537 15 8.49928 15C10.2232 15 11.8765 14.3152 13.0955 13.0962C14.3145 11.8772 14.9993 10.2239 14.9993 8.5C14.9993 6.77609 14.3145 5.12279 13.0955 3.90381C11.8765 2.68482 10.2232 2 8.49928 2ZM8.49928 3C9.95797 3 11.3569 3.57946 12.3884 4.61091C13.4198 5.64236 13.9993 7.04131 13.9993 8.5C13.9993 9.95869 13.4198 11.3576 12.3884 12.3891C11.3569 13.4205 9.95797 14 8.49928 14C7.04059 14 5.64164 13.4205 4.61019 12.3891C3.57874 11.3576 2.99928 9.95869 2.99928 8.5C2.99928 7.04131 3.57874 5.64236 4.61019 4.61091C5.64164 3.57946 7.04059 3 8.49928 3Z" fill="#1572D3"/>
</svg>
