<svg width="20" height="21" viewBox="0 0 20 21" fill="none" xmlns="http://www.w3.org/2000/svg">
<path d="M5.8 0.331055H14.2C17.4 0.331055 20 2.93105 20 6.13105V14.5311C20 16.0693 19.3889 17.5446 18.3012 18.6323C17.2135 19.72 15.7383 20.3311 14.2 20.3311H5.8C2.6 20.3311 0 17.7311 0 14.5311V6.13105C0 4.5928 0.61107 3.11755 1.69878 2.02984C2.78649 0.942124 4.26174 0.331055 5.8 0.331055ZM5.6 2.33105C4.64522 2.33105 3.72955 2.71034 3.05442 3.38547C2.37928 4.0606 2 4.97628 2 5.93105V14.7311C2 16.7211 3.61 18.3311 5.6 18.3311H14.4C15.3548 18.3311 16.2705 17.9518 16.9456 17.2766C17.6207 16.6015 18 15.6858 18 14.7311V5.93105C18 3.94105 16.39 2.33105 14.4 2.33105H5.6ZM15.25 3.83105C15.5815 3.83105 15.8995 3.96275 16.1339 4.19717C16.3683 4.43159 16.5 4.74953 16.5 5.08105C16.5 5.41258 16.3683 5.73052 16.1339 5.96494C15.8995 6.19936 15.5815 6.33105 15.25 6.33105C14.9185 6.33105 14.6005 6.19936 14.3661 5.96494C14.1317 5.73052 14 5.41258 14 5.08105C14 4.74953 14.1317 4.43159 14.3661 4.19717C14.6005 3.96275 14.9185 3.83105 15.25 3.83105ZM10 5.33105C11.3261 5.33105 12.5979 5.85784 13.5355 6.79552C14.4732 7.7332 15 9.00497 15 10.3311C15 11.6571 14.4732 12.9289 13.5355 13.8666C12.5979 14.8043 11.3261 15.3311 10 15.3311C8.67392 15.3311 7.40215 14.8043 6.46447 13.8666C5.52678 12.9289 5 11.6571 5 10.3311C5 9.00497 5.52678 7.7332 6.46447 6.79552C7.40215 5.85784 8.67392 5.33105 10 5.33105ZM10 7.33105C9.20435 7.33105 8.44129 7.64712 7.87868 8.20973C7.31607 8.77234 7 9.53541 7 10.3311C7 11.1267 7.31607 11.8898 7.87868 12.4524C8.44129 13.015 9.20435 13.3311 10 13.3311C10.7956 13.3311 11.5587 13.015 12.1213 12.4524C12.6839 11.8898 13 11.1267 13 10.3311C13 9.53541 12.6839 8.77234 12.1213 8.20973C11.5587 7.64712 10.7956 7.33105 10 7.33105Z" fill="white"/>
</svg>
