<svg width="194" height="55" viewBox="0 0 194 55" fill="none" xmlns="http://www.w3.org/2000/svg">
<path d="M192.834 4.88608C193.378 4.9779 193.894 4.61085 193.986 4.06625C194.078 3.52165 193.711 3.00573 193.166 2.91392L192.834 4.88608ZM0.798366 52.2814C23.6976 56.9955 40.0511 55.1583 53.5014 49.9923C66.9053 44.8441 77.3638 36.4038 88.4175 28.1246C99.4977 19.8256 111.246 11.6255 127.377 6.68411C143.503 1.74435 164.088 0.0395878 192.834 4.88608L193.166 2.91392C164.183 -1.97257 143.275 -0.277592 126.791 4.77182C110.313 9.81962 98.3345 18.198 87.2186 26.5238C76.0762 34.8694 65.8688 43.0998 52.7843 48.1253C39.7463 53.133 23.7889 54.9723 1.20163 50.3225L0.798366 52.2814Z" fill="#6B7CFF"/>
</svg>
