<svg width="60" height="60" viewBox="0 0 60 60" fill="none" xmlns="http://www.w3.org/2000/svg">
<path opacity="0.21" fill-rule="evenodd" clip-rule="evenodd" d="M0 30V37C0 49.7025 10.2975 60 23 60H30H37C49.7025 60 60 49.7025 60 37V30V23C60 10.2975 49.7025 0 37 0H30H23C10.2975 0 0 10.2975 0 23V30Z" fill="#8280FF"/>
<path d="M50.9441 22.4697H45.6821L44.2196 18.8135C42.7167 15.0544 39.1299 12.626 35.0807 12.626H23.9186C19.8704 12.626 16.2827 15.0544 14.7789 18.8135L13.3164 22.4697H8.05525C7.36882 22.4697 6.86521 23.1148 7.0322 23.7802L7.55954 25.8896C7.67644 26.3589 8.09831 26.6885 8.58259 26.6885H10.3466C9.16618 27.7194 8.40593 29.218 8.40593 30.9072V35.126C8.40593 36.5428 8.94734 37.8216 9.81218 38.8112V43.5635C9.81218 45.1165 11.0717 46.376 12.6247 46.376H15.4372C16.9902 46.376 18.2497 45.1165 18.2497 43.5635V40.751H40.7497V43.5635C40.7497 45.1165 42.0092 46.376 43.5622 46.376H46.3747C47.9277 46.376 49.1872 45.1165 49.1872 43.5635V38.8112C50.052 37.8225 50.5934 36.5437 50.5934 35.126V30.9072C50.5934 29.218 49.8332 27.7194 48.6537 26.6885H50.4176C50.9019 26.6885 51.3238 26.3589 51.4407 25.8896L51.968 23.7802C52.1342 23.1148 51.6305 22.4697 50.9441 22.4697ZM20.0013 20.9026C20.6421 19.3013 22.1933 18.251 23.9186 18.251H35.0807C36.806 18.251 38.3573 19.3013 38.998 20.9026L40.7497 25.2822H18.2497L20.0013 20.9026ZM15.4372 35.1084C13.7497 35.1084 12.6247 33.9869 12.6247 32.3047C12.6247 30.6225 13.7497 29.501 15.4372 29.501C17.1247 29.501 19.6559 32.0243 19.6559 33.7065C19.6559 35.3888 17.1247 35.1084 15.4372 35.1084ZM43.5622 35.1084C41.8747 35.1084 39.3434 35.3888 39.3434 33.7065C39.3434 32.0243 41.8747 29.501 43.5622 29.501C45.2497 29.501 46.3747 30.6225 46.3747 32.3047C46.3747 33.9869 45.2497 35.1084 43.5622 35.1084Z" fill="#6B7CFF"/>
</svg>
