<svg width="60" height="60" viewBox="0 0 60 60" fill="none" xmlns="http://www.w3.org/2000/svg">
<path opacity="0.21" fill-rule="evenodd" clip-rule="evenodd" d="M0 30V37C0 49.7025 10.2975 60 23 60H30H37C49.7025 60 60 49.7025 60 37V30V23C60 10.2975 49.7025 0 37 0H30H23C10.2975 0 0 10.2975 0 23V30Z" fill="#FEC53D"/>
<path d="M41.75 11.75H19.25C17.1875 11.75 15.5 13.4375 15.5 15.5V45.5C15.5 47.5625 17.1875 49.25 19.25 49.25H41.75C43.8125 49.25 45.5 47.5625 45.5 45.5V15.5C45.5 13.4375 43.8125 11.75 41.75 11.75ZM19.25 15.5H28.625V30.5L23.9375 27.6875L19.25 30.5V15.5Z" fill="#FFBE22"/>
</svg>
