<svg width="60" height="60" viewBox="0 0 60 60" fill="none" xmlns="http://www.w3.org/2000/svg">
<path opacity="0.3" fill-rule="evenodd" clip-rule="evenodd" d="M0 30V37C0 49.7025 10.2975 60 23 60H30H37C49.7025 60 60 49.7025 60 37V30V23C60 10.2975 49.7025 0 37 0H30H23C10.2975 0 0 10.2975 0 23V30Z" fill="#FF9066"/>
<g clip-path="url(#clip0_3291_11286)">
<path d="M30.0555 34.7486H30.1539C32.2633 34.8049 33.9508 36.5205 33.9508 38.6299C33.9508 40.4299 32.7273 41.9346 31.068 42.3846V43.9596C31.068 44.5221 30.618 44.9721 30.0555 44.9721C29.493 44.9721 29.043 44.5221 29.043 43.9596V42.3846C28.2167 42.1624 27.4866 41.6743 26.9655 40.9956C26.4444 40.3169 26.1614 39.4855 26.1602 38.6299C26.1602 38.0674 26.6102 37.6174 27.1727 37.6174C27.7352 37.6174 28.1852 38.0674 28.1852 38.6299C28.1852 39.6705 29.0148 40.5002 30.0414 40.5002C31.068 40.5002 31.9117 39.6564 31.9117 38.6299C31.9117 37.6033 31.068 36.7596 30.0414 36.7596H29.943C28.9313 36.7321 27.9703 36.3113 27.2639 35.5866C26.5576 34.8619 26.1616 33.8903 26.1602 32.8783C26.1602 31.0783 27.3836 29.5736 29.043 29.1236V27.5486C29.043 26.9861 29.493 26.5361 30.0555 26.5361C30.618 26.5361 31.068 26.9861 31.068 27.5486V29.1236C32.7273 29.5736 33.9508 31.0783 33.9508 32.8783C33.9508 33.4408 33.5008 33.8908 32.9383 33.8908C32.3758 33.8908 31.9258 33.4408 31.9258 32.8783C31.9258 31.8518 31.082 31.008 30.0555 31.008C29.0289 31.008 28.1852 31.8518 28.1852 32.8783C28.1852 33.9049 29.0289 34.7486 30.0555 34.7486Z" fill="#FD9066"/>
<path d="M22.5919 14.7164L26.5097 19.3008L26.0864 19.7733C18.023 21.5818 12 28.7832 12 37.3922C12 44.9607 18.1425 51.1032 25.7109 51.1032H34.3875C41.9559 51.1032 48.0984 44.9621 48.0984 37.3936C48.1125 28.7832 42.0895 21.5818 34.0261 19.7733C34.0589 19.4762 34.0052 19.1759 33.8714 18.9085L37.2042 15.0933L37.4194 14.7614C37.6706 14.2135 37.7349 13.5981 37.6023 13.0101C37.4697 12.422 37.1476 11.8938 36.6855 11.5066C36.2234 11.1195 35.647 10.8949 35.0448 10.8673C34.4426 10.8398 33.848 11.0108 33.3525 11.3541L32.167 9.94785C31.9011 9.65026 31.5755 9.41205 31.2113 9.24873C30.8472 9.08542 30.4527 9.00067 30.0536 9C29.6545 8.99934 29.2598 9.08278 28.8951 9.24488C28.5304 9.40699 28.2039 9.64412 27.937 9.94082L26.6953 11.3274C26.2011 10.9769 25.6052 10.7991 24.9997 10.8213C24.3942 10.8436 23.813 11.0648 23.3458 11.4506C22.8787 11.8364 22.5517 12.3654 22.4154 12.9557C22.2791 13.5461 22.3411 14.1649 22.5919 14.7164ZM27.9342 16.6641L25.5492 13.9079C26.1033 14.1748 26.7303 14.2507 27.332 14.1234C27.9338 13.9962 28.4764 13.6731 28.875 13.2047L30 11.745L31.2487 13.2244C31.6381 13.6772 32.1633 13.9921 32.7462 14.1221C33.329 14.2521 33.9383 14.1902 34.4831 13.9458L32.1094 16.6641H27.9342ZM14.8125 37.3922C14.8125 28.9716 21.6356 22.1485 30.0562 22.1485C38.4769 22.1485 45.3 28.9716 45.2859 37.3894V37.3922C45.2848 40.2823 44.1362 43.0537 42.0926 45.0974C40.049 47.141 37.2776 48.2895 34.3875 48.2907H25.7109C22.8208 48.2895 20.0494 47.141 18.0058 45.0974C15.9622 43.0537 14.8136 40.2823 14.8125 37.3922Z" fill="#FD9066"/>
</g>
<defs>
<clipPath id="clip0_3291_11286">
<rect width="45" height="45" fill="white" transform="translate(7 5.18652)"/>
</clipPath>
</defs>
</svg>
