<svg width="41" height="41" viewBox="0 0 41 41" fill="none" xmlns="http://www.w3.org/2000/svg">
<path d="M3.41602 5.97916H37.5827M3.41602 19.6458H12.8118M3.41602 33.3125H12.8118" stroke="#6B7CFF" stroke-width="4" stroke-linecap="round"/>
<path d="M26.9049 29.0416C28.8305 29.0416 30.6772 28.2767 32.0388 26.9151C33.4004 25.5535 34.1654 23.7068 34.1654 21.7812C34.1654 19.8556 33.4004 18.0089 32.0388 16.6473C30.6772 15.2857 28.8305 14.5208 26.9049 14.5208C24.9794 14.5208 23.1326 15.2857 21.7711 16.6473C20.4095 18.0089 19.6445 19.8556 19.6445 21.7812C19.6445 23.7068 20.4095 25.5535 21.7711 26.9151C23.1326 28.2767 24.9794 29.0416 26.9049 29.0416Z" fill="#6B7CFF" fill-opacity="0.41" stroke="#6B7CFF" stroke-width="4"/>
<path d="M31.6035 27.3333L37.5827 33.3552" stroke="#6B7CFF" stroke-width="4" stroke-linecap="round"/>
</svg>
