<svg width="29" height="29" viewBox="0 0 29 29" fill="none" xmlns="http://www.w3.org/2000/svg">
<path d="M24.7739 4.82179C23.4378 3.5327 21.8464 2.51061 20.0925 1.81515C18.3386 1.11968 16.4573 0.76476 14.5583 0.771079C6.60151 0.771079 0.116583 6.96546 0.116583 14.5658C0.116583 17.0018 0.786935 19.3681 2.0402 21.4561L0 28.611L7.65075 26.69C9.76382 27.7897 12.1392 28.3744 14.5583 28.3744C22.5151 28.3744 29 22.18 29 14.5797C29 10.8909 27.499 7.42482 24.7739 4.82179ZM14.5583 26.0358C12.4015 26.0358 10.2884 25.479 8.43769 24.435L8.0005 24.1844L3.45377 25.3259L4.66332 21.0942L4.37186 20.6627C3.1736 18.835 2.53734 16.7223 2.53568 14.5658C2.53568 8.2461 7.92764 3.09571 14.5437 3.09571C17.7497 3.09571 20.7663 4.29283 23.0251 6.46434C24.1436 7.52778 25.0299 8.79268 25.6328 10.1857C26.2357 11.5788 26.5431 13.0723 26.5372 14.5797C26.5663 20.8993 21.1744 26.0358 14.5583 26.0358ZM21.1452 17.4611C20.7809 17.2941 19.003 16.4589 18.6824 16.3336C18.3472 16.2222 18.1141 16.1666 17.8663 16.5006C17.6186 16.8486 16.9337 17.6281 16.7296 17.8509C16.5256 18.0875 16.307 18.1153 15.9427 17.9344C15.5784 17.7673 14.4126 17.3915 13.0427 16.2222C11.9643 15.3035 11.2502 14.176 11.0317 13.828C10.8276 13.48 11.0025 13.299 11.192 13.1181C11.3523 12.965 11.5563 12.7144 11.7312 12.5195C11.906 12.3246 11.9789 12.1715 12.0955 11.9488C12.2121 11.7122 12.1538 11.5173 12.0663 11.3502C11.9789 11.1832 11.2502 9.48497 10.9588 8.78898C10.6673 8.12082 10.3613 8.20434 10.1427 8.19042H9.44322C9.19548 8.19042 8.81658 8.27394 8.48141 8.62194C8.1608 8.96993 7.22814 9.80513 7.22814 11.5034C7.22814 13.2016 8.52513 14.8442 8.7 15.0669C8.87487 15.3035 11.2503 18.7835 14.8643 20.2729C15.7241 20.6349 16.3945 20.8437 16.9191 20.9968C17.7789 21.2613 18.5658 21.2195 19.1925 21.136C19.892 21.0385 21.3347 20.3008 21.6261 19.4934C21.9322 18.6861 21.9322 18.004 21.8302 17.8509C21.7281 17.6978 21.5095 17.6281 21.1452 17.4611Z" fill="white"/>
</svg>
