<svg width="105" height="64" viewBox="0 0 105 64" fill="none" xmlns="http://www.w3.org/2000/svg">
<rect x="5" y="35" width="31" height="7" rx="3.5" fill="#6A7AFB"/>
<path d="M11 29.5C11 25.3579 14.3579 22 18.5 22H78.5C90.3741 22 100 31.6259 100 43.5V53C100 57.4183 96.4183 61 92 61H28C18.6112 61 11 53.3888 11 44V29.5Z" fill="url(#paint0_linear_3092_12046)"/>
<path d="M46.5304 40.43V50H42.2704V48.38C40.6504 49.46 38.8804 50 36.9604 50C34.3204 50 32.0604 49.07 30.1804 47.21C28.3204 45.33 27.3904 43.07 27.3904 40.43C27.3904 37.79 28.3204 35.54 30.1804 33.68C32.0604 31.8 34.3204 30.86 36.9604 30.86C39.6004 30.86 41.8504 31.8 43.7104 33.68C45.5904 35.54 46.5304 37.79 46.5304 40.43ZM40.7104 36.65C39.6704 35.61 38.4204 35.09 36.9604 35.09C35.5004 35.09 34.2504 35.61 33.2104 36.65C32.1704 37.69 31.6504 38.95 31.6504 40.43C31.6504 41.89 32.1704 43.14 33.2104 44.18C34.2504 45.22 35.5004 45.74 36.9604 45.74C38.4204 45.74 39.6704 45.22 40.7104 44.18C41.7504 43.14 42.2704 41.89 42.2704 40.43C42.2704 38.95 41.7504 37.69 40.7104 36.65ZM56.1013 30.86V51.2C56.1013 52.96 55.4813 54.46 54.2413 55.7C53.0013 56.94 51.5013 57.56 49.7413 57.56H48.6613V53.33H49.7413C50.3213 53.33 50.8213 53.12 51.2413 52.7C51.6613 52.28 51.8713 51.78 51.8713 51.2V30.86H56.1013ZM54.0013 25.55C54.5813 25.55 55.0713 25.76 55.4713 26.18C55.8913 26.58 56.1013 27.08 56.1013 27.68C56.1013 28.26 55.8913 28.76 55.4713 29.18C55.0713 29.58 54.5813 29.78 54.0013 29.78C53.4013 29.78 52.8913 29.58 52.4713 29.18C52.0713 28.76 51.8713 28.26 51.8713 27.68C51.8713 27.08 52.0713 26.58 52.4713 26.18C52.8913 25.76 53.4013 25.55 54.0013 25.55ZM77.38 40.43V50H73.12V48.38C71.5 49.46 69.73 50 67.81 50C65.17 50 62.91 49.07 61.03 47.21C59.17 45.33 58.24 43.07 58.24 40.43C58.24 37.79 59.17 35.54 61.03 33.68C62.91 31.8 65.17 30.86 67.81 30.86C70.45 30.86 72.7 31.8 74.56 33.68C76.44 35.54 77.38 37.79 77.38 40.43ZM71.56 36.65C70.52 35.61 69.27 35.09 67.81 35.09C66.35 35.09 65.1 35.61 64.06 36.65C63.02 37.69 62.5 38.95 62.5 40.43C62.5 41.89 63.02 43.14 64.06 44.18C65.1 45.22 66.35 45.74 67.81 45.74C69.27 45.74 70.52 45.22 71.56 44.18C72.6 43.14 73.12 41.89 73.12 40.43C73.12 38.95 72.6 37.69 71.56 36.65Z" fill="white"/>
<path d="M3.92 19V0.254999H11.257C12.8363 0.254999 14.1857 0.814665 15.305 1.934C16.4243 3.05333 16.984 4.40267 16.984 5.982C16.984 7.178 16.639 8.26667 15.949 9.248C15.259 10.214 14.3697 10.904 13.281 11.318L16.639 19H13.074L9.9 11.686H7.186V19H3.92ZM7.186 8.443H11.257C11.9317 8.443 12.5067 8.20533 12.982 7.73C13.4727 7.23933 13.718 6.65667 13.718 5.982C13.718 5.30733 13.4727 4.73233 12.982 4.257C12.5067 3.76633 11.9317 3.521 11.257 3.521H7.186V8.443ZM19.7104 6.488C21.1517 5.04667 22.8844 4.326 24.9084 4.326C26.9324 4.326 28.6574 5.04667 30.0834 6.488C31.5247 7.914 32.2454 9.639 32.2454 11.663C32.2454 12.0003 32.2224 12.33 32.1764 12.652H20.9524C21.1671 13.5413 21.6424 14.2773 22.3784 14.86C23.1144 15.4427 23.9577 15.734 24.9084 15.734C25.8897 15.734 26.7637 15.412 27.5304 14.768H31.5324C30.9344 16.0407 30.0374 17.068 28.8414 17.85C27.6607 18.6167 26.3497 19 24.9084 19C22.8844 19 21.1517 18.287 19.7104 16.861C18.2844 15.4197 17.5714 13.687 17.5714 11.663C17.5714 9.639 18.2844 7.914 19.7104 6.488ZM21.0904 10.214H28.7034C28.4121 9.432 27.9214 8.79567 27.2314 8.305C26.5414 7.81433 25.7671 7.569 24.9084 7.569C24.0497 7.569 23.2677 7.81433 22.5624 8.305C21.8724 8.79567 21.3817 9.432 21.0904 10.214ZM46.6292 10.835V19H43.3632V10.835C43.3632 9.93033 43.0412 9.16367 42.3972 8.535C41.7685 7.891 41.0019 7.569 40.0972 7.569C39.2079 7.569 38.4412 7.891 37.7972 8.535C37.1685 9.16367 36.8542 9.93033 36.8542 10.835V19H33.5882V10.835C33.5882 9.041 34.2245 7.50767 35.4972 6.235C36.7699 4.96233 38.3032 4.326 40.0972 4.326C41.9065 4.326 43.4475 4.96233 44.7202 6.235C45.9929 7.50767 46.6292 9.041 46.6292 10.835ZM52.4766 0.254999V4.165H53.9486V6.603H52.4766V14.101C52.4766 14.561 52.6299 14.952 52.9366 15.274C53.2586 15.5807 53.6419 15.734 54.0866 15.734H54.9146V19H54.0866C52.7373 19 51.5873 18.5247 50.6366 17.574C49.6859 16.608 49.2106 15.4503 49.2106 14.101V6.603H47.7386V4.165H49.2106V0.254999H52.4766ZM70.4301 11.663V19H67.1641V17.758C65.9221 18.586 64.5651 19 63.0931 19C61.0691 19 59.3364 18.287 57.8951 16.861C56.4691 15.4197 55.7561 13.687 55.7561 11.663C55.7561 9.639 56.4691 7.914 57.8951 6.488C59.3364 5.04667 61.0691 4.326 63.0931 4.326C65.1171 4.326 66.8421 5.04667 68.2681 6.488C69.7094 7.914 70.4301 9.639 70.4301 11.663ZM65.9681 8.765C65.1707 7.96767 64.2124 7.569 63.0931 7.569C61.9737 7.569 61.0154 7.96767 60.2181 8.765C59.4207 9.56233 59.0221 10.5283 59.0221 11.663C59.0221 12.7823 59.4207 13.7407 60.2181 14.538C61.0154 15.3353 61.9737 15.734 63.0931 15.734C64.2124 15.734 65.1707 15.3353 65.9681 14.538C66.7654 13.7407 67.1641 12.7823 67.1641 11.663C67.1641 10.5283 66.7654 9.56233 65.9681 8.765ZM72.0868 11.663V0.254999H75.3298V11.663C75.3298 12.7823 75.7285 13.7407 76.5258 14.538C77.3231 15.3353 78.2815 15.734 79.4008 15.734V19C77.3768 19 75.6518 18.287 74.2258 16.861C72.7998 15.4197 72.0868 13.687 72.0868 11.663ZM81.5317 0.737999C81.8537 0.415999 82.237 0.254999 82.6817 0.254999C83.1264 0.254999 83.5097 0.415999 83.8317 0.737999C84.1537 1.06 84.3147 1.44333 84.3147 1.888C84.3147 2.33267 84.1537 2.716 83.8317 3.038C83.5097 3.36 83.1264 3.521 82.6817 3.521C82.237 3.521 81.8537 3.36 81.5317 3.038C81.2097 2.716 81.0487 2.33267 81.0487 1.888C81.0487 1.44333 81.2097 1.06 81.5317 0.737999ZM84.3147 4.326V19H81.0487V4.326H84.3147ZM99.5023 10.835V19H96.2363V10.835C96.2363 9.93033 95.9143 9.16367 95.2703 8.535C94.6416 7.891 93.8749 7.569 92.9703 7.569C92.0809 7.569 91.3143 7.891 90.6703 8.535C90.0416 9.16367 89.7273 9.93033 89.7273 10.835V19H86.4613V10.835C86.4613 9.041 87.0976 7.50767 88.3703 6.235C89.6429 4.96233 91.1763 4.326 92.9703 4.326C94.7796 4.326 96.3206 4.96233 97.5933 6.235C98.8659 7.50767 99.5023 9.041 99.5023 10.835Z" fill="black"/>
<rect y="22" width="31" height="7" rx="3.5" fill="#6A7AFB"/>
<defs>
<linearGradient id="paint0_linear_3092_12046" x1="37.0488" y1="38.38" x2="51.8216" y2="69.9418" gradientUnits="userSpaceOnUse">
<stop stop-color="#6979FA"/>
<stop offset="1" stop-color="#4D5BC2"/>
</linearGradient>
</defs>
</svg>
