<svg width="248" height="151" viewBox="0 0 248 151" fill="none" xmlns="http://www.w3.org/2000/svg">
<path d="M42.0433 1H230.956C236.642 1 241.251 5.61548 241.251 11.2946V138.847H31.7422V11.2946C31.7422 5.60892 36.3577 1 42.0433 1Z" fill="#332C5C"/>
<path d="M39.4567 1H228.37C234.055 1 238.664 5.61548 238.664 11.2946V138.847H29.1621V11.2946C29.1621 5.60892 33.7776 1 39.4567 1Z" fill="#CBD9ED" stroke="#332C5C" stroke-width="0.75" stroke-linecap="round" stroke-linejoin="round"/>
<rect x="34.8945" y="6.00287" width="198.932" height="127.369" rx="10" fill="white"/>
<path d="M157.248 11.2552H47.7873C43.9298 11.2552 40.8027 14.583 40.8027 18.688V89.8292C40.8027 93.9342 43.9298 97.262 47.7873 97.262H157.248C161.105 97.262 164.232 93.9342 164.232 89.8292V18.688C164.232 14.583 161.105 11.2552 157.248 11.2552Z" fill="#CBD9ED"/>
<path d="M157.286 103.447H47.6042C43.7389 103.447 40.6055 106.58 40.6055 110.445V119.085C40.6055 122.951 43.7389 126.084 47.6042 126.084H157.286C161.151 126.084 164.285 122.951 164.285 119.085V110.445C164.285 106.58 161.151 103.447 157.286 103.447Z" fill="#CBD9ED"/>
<path d="M239.078 149.792H13.563C9.53845 149.792 6.10475 146.883 5.43507 142.918L5.06741 140.732C4.90328 139.747 5.6583 138.854 6.65624 138.854H245.978C246.976 138.854 247.738 139.753 247.567 140.732L247.2 142.918C246.53 146.883 243.096 149.792 239.072 149.792H239.078Z" fill="#332C5C"/>
<path d="M235.027 149.792H9.51813C5.49353 149.792 2.05982 146.883 1.39015 142.918L1.02249 140.732C0.858354 139.747 1.61338 138.854 2.61132 138.854H241.927C242.925 138.854 243.686 139.753 243.516 140.732L243.148 142.918C242.478 146.883 239.045 149.792 235.02 149.792H235.027Z" fill="#CBD9ED" stroke="#332C5C" stroke-width="0.75" stroke-linecap="round" stroke-linejoin="round"/>
<path d="M89.5566 138.867H137.53V139.333C137.53 141.638 135.659 143.509 133.354 143.509H93.7388C91.4344 143.509 89.5632 141.638 89.5632 139.333V138.867H89.5566Z" fill="#FBF9ED" stroke="#332C5C" stroke-width="0.75" stroke-miterlimit="10"/>
<path d="M66.2821 108.226H48.457C47.5143 108.226 46.75 108.99 46.75 109.933V110.314C46.75 111.257 47.5143 112.021 48.457 112.021H66.2821C67.2248 112.021 67.9891 111.257 67.9891 110.314V109.933C67.9891 108.99 67.2248 108.226 66.2821 108.226Z" fill="#FBF9ED"/>
<path d="M90.0423 76.5022H48.457C47.5143 76.5022 46.75 77.2664 46.75 78.2092V78.59C46.75 79.5327 47.5143 80.297 48.457 80.297H90.0423C90.985 80.297 91.7493 79.5327 91.7493 78.59V78.2092C91.7493 77.2664 90.985 76.5022 90.0423 76.5022Z" fill="#83A6BA"/>
<path d="M82.0785 83.816H48.457C47.5143 83.816 46.75 84.5803 46.75 85.523V85.9038C46.75 86.8466 47.5143 87.6108 48.457 87.6108H82.0785C83.0212 87.6108 83.7855 86.8466 83.7855 85.9038V85.523C83.7855 84.5803 83.0212 83.816 82.0785 83.816Z" fill="#83A6BA"/>
<path d="M105.438 108.226H87.6133C86.6705 108.226 85.9062 108.99 85.9062 109.933V110.314C85.9062 111.257 86.6705 112.021 87.6133 112.021H105.438C106.381 112.021 107.145 111.257 107.145 110.314V109.933C107.145 108.99 106.381 108.226 105.438 108.226Z" fill="#FBF9ED"/>
<path d="M149.179 108.226H131.353C130.411 108.226 129.646 108.99 129.646 109.933V110.314C129.646 111.257 130.411 112.021 131.353 112.021H149.179C150.121 112.021 150.886 111.257 150.886 110.314V109.933C150.886 108.99 150.121 108.226 149.179 108.226Z" fill="#FBF9ED"/>
<path d="M80.1621 107.209V122.329" stroke="#332C5C" stroke-width="0.75" stroke-linecap="round" stroke-linejoin="round"/>
<path d="M123.402 107.209V122.329" stroke="#332C5C" stroke-width="0.75" stroke-linecap="round" stroke-linejoin="round"/>
<path d="M222.216 10.5986H176.498C172.624 10.5986 169.484 13.8593 169.484 17.8816V57.152C169.484 61.1743 172.624 64.435 176.498 64.435H222.216C226.09 64.435 229.23 61.1743 229.23 57.152V17.8816C229.23 13.8593 226.09 10.5986 222.216 10.5986Z" fill="#CBD9ED"/>
<path d="M221.56 70.3438H175.841C171.968 70.3438 168.828 73.5338 168.828 77.4689V118.368C168.828 122.303 171.968 125.493 175.841 125.493H221.56C225.433 125.493 228.573 122.303 228.573 118.368V77.4689C228.573 73.5338 225.433 70.3438 221.56 70.3438Z" fill="#CBD9ED"/>
<path d="M56.7946 115.337H49.4807C48.0049 115.337 46.8086 116.533 46.8086 118.009V118.606C46.8086 120.082 48.0049 121.278 49.4807 121.278H56.7946C58.2703 121.278 59.4667 120.082 59.4667 118.606V118.009C59.4667 116.533 58.2703 115.337 56.7946 115.337Z" fill="#6B7CFF"/>
<path d="M95.8922 115.337H88.5784C87.1026 115.337 85.9062 116.533 85.9062 118.009V118.606C85.9062 120.082 87.1026 121.278 88.5784 121.278H95.8922C97.368 121.278 98.5644 120.082 98.5644 118.606V118.009C98.5644 116.533 97.368 115.337 95.8922 115.337Z" fill="#6B7CFF"/>
<path d="M139.632 115.337H132.319C130.843 115.337 129.646 116.533 129.646 118.009V118.606C129.646 120.082 130.843 121.278 132.319 121.278H139.632C141.108 121.278 142.305 120.082 142.305 118.606V118.009C142.305 116.533 141.108 115.337 139.632 115.337Z" fill="#6B7CFF"/>
<path d="M154.954 83.1266H138.823C137.735 83.1266 136.854 84.0085 136.854 85.0963V87.7618C136.854 88.8496 137.735 89.7314 138.823 89.7314H154.954C156.042 89.7314 156.924 88.8496 156.924 87.7618V85.0963C156.924 84.0085 156.042 83.1266 154.954 83.1266Z" fill="#332C5C"/>
<path d="M182.443 31.5488H180.034C179.008 31.5488 178.176 32.3807 178.176 33.4068V52.7617C178.176 53.7878 179.008 54.6197 180.034 54.6197H182.443C183.469 54.6197 184.301 53.7878 184.301 52.7617V33.4068C184.301 32.3807 183.469 31.5488 182.443 31.5488Z" fill="#6B7CFF"/>
<path d="M218.994 27.7147H216.585C215.558 27.7147 214.727 28.5465 214.727 29.5727V52.7617C214.727 53.7878 215.558 54.6197 216.585 54.6197H218.994C220.02 54.6197 220.852 53.7878 220.852 52.7617V29.5727C220.852 28.5465 220.02 27.7147 218.994 27.7147Z" fill="#6B7CFF"/>
<path d="M195.078 36.2169H192.669C191.642 36.2169 190.811 37.0487 190.811 38.0749V52.7617C190.811 53.7878 191.642 54.6197 192.669 54.6197H195.078C196.104 54.6197 196.936 53.7878 196.936 52.7617V38.0749C196.936 37.0487 196.104 36.2169 195.078 36.2169Z" fill="#6B7CFF"/>
<path d="M207.314 19.9215H204.905C203.879 19.9215 203.047 20.7534 203.047 21.7795V52.7617C203.047 53.7878 203.879 54.6197 204.905 54.6197H207.314C208.341 54.6197 209.172 53.7878 209.172 52.7617V21.7795C209.172 20.7534 208.341 19.9215 207.314 19.9215Z" fill="#6B7CFF"/>
<path d="M49.4805 58.9659C49.4805 58.9659 61.1341 41.502 69.0322 41.502C77.436 41.502 82.7408 49.6234 90.2582 49.6234C98.9968 49.6234 103.501 34.7199 113.585 34.7199C123.67 34.7199 128.666 43.268 137.739 43.268C146.813 43.268 153.562 27.5702 153.562 27.5702" stroke="#332C5C" stroke-width="0.75" stroke-linecap="round" stroke-linejoin="round"/>
<path d="M50.3208 60.9093C51.7277 60.9093 52.8682 59.7688 52.8682 58.3619C52.8682 56.955 51.7277 55.8145 50.3208 55.8145C48.9139 55.8145 47.7734 56.955 47.7734 58.3619C47.7734 59.7688 48.9139 60.9093 50.3208 60.9093Z" fill="#FBF9ED"/>
<path d="M69.2486 44.115C70.6554 44.115 71.7959 42.9745 71.7959 41.5676C71.7959 40.1608 70.6554 39.0203 69.2486 39.0203C67.8417 39.0203 66.7012 40.1608 66.7012 41.5676C66.7012 42.9745 67.8417 44.115 69.2486 44.115Z" fill="#FBF9ED"/>
<path d="M90.3306 51.7965C91.7375 51.7965 92.878 50.656 92.878 49.2491C92.878 47.8423 91.7375 46.7018 90.3306 46.7018C88.9237 46.7018 87.7832 47.8423 87.7832 49.2491C87.7832 50.656 88.9237 51.7965 90.3306 51.7965Z" fill="#FBF9ED"/>
<path d="M113.29 37.3001C114.696 37.3001 115.837 36.1596 115.837 34.7527C115.837 33.3458 114.696 32.2053 113.29 32.2053C111.883 32.2053 110.742 33.3458 110.742 34.7527C110.742 36.1596 111.883 37.3001 113.29 37.3001Z" fill="#FBF9ED"/>
<path d="M136.852 45.8154C138.259 45.8154 139.399 44.6749 139.399 43.2681C139.399 41.8612 138.259 40.7207 136.852 40.7207C135.445 40.7207 134.305 41.8612 134.305 43.2681C134.305 44.6749 135.445 45.8154 136.852 45.8154Z" fill="#FBF9ED"/>
<path d="M153.561 30.1175C154.968 30.1175 156.108 28.977 156.108 27.5701C156.108 26.1633 154.968 25.0228 153.561 25.0228C152.154 25.0228 151.014 26.1633 151.014 27.5701C151.014 28.977 152.154 30.1175 153.561 30.1175Z" fill="#FBF9ED"/>
<path d="M196.364 100.328V82.3586C190.77 82.3586 185.741 84.965 182.445 88.9699C182.445 88.9699 182.432 88.9831 182.426 88.9896C182.419 89.0028 182.406 89.0093 182.399 89.0159C179.898 92.1082 178.395 96.0343 178.395 100.322C178.395 104.353 179.721 108.075 181.966 111.069C185.242 115.448 190.468 118.278 196.357 118.278C202.247 118.278 207.315 115.527 210.598 111.26L196.357 100.315L196.364 100.328Z" fill="#6B7CFF"/>
<path d="M199.174 78.4062V98.2797L214.931 110.386C217.511 107.031 219.047 102.836 219.047 98.2797C219.047 87.3023 210.151 78.4062 199.174 78.4062Z" fill="#332C5C"/>
</svg>
