<svg width="146" height="177" viewBox="0 0 146 177" fill="none" xmlns="http://www.w3.org/2000/svg">
<g clip-path="url(#clip0_2156_11486)">
<path d="M108.464 140.731H0.361328C4.72814 111.501 2.00299 0.311951 2.00299 0.311951H80.901C91.1368 0.311951 106.823 9.63657 106.864 18.0008C107.159 80.7203 108.464 140.731 108.464 140.731Z" fill="white" stroke="#0B3452" stroke-opacity="0.5" stroke-width="0.413892" stroke-miterlimit="10"/>
<path d="M36.7982 21.2266C34.0156 21.4072 19.9548 21.6863 17.9028 21.4072C15.4731 21.1281 13.5195 19.6014 13.5195 17.4016C13.5195 15.2018 15.153 13.3959 17.9028 13.3959C20.6525 13.3959 30.7569 13.3959 36.7982 13.2154C39.5234 13.084 41.1815 15.0212 41.1815 17.221C41.1815 19.4208 39.5808 21.0461 36.7982 21.2266Z" fill="#0B3452" fill-opacity="0.5"/>
<path d="M30.01 82.0665C28.04 82.1978 18.0833 82.3948 16.6223 82.1978C14.8985 82.0008 13.5195 80.9173 13.5195 79.3578C13.5195 77.7982 14.6769 76.5177 16.6223 76.5177C18.5676 76.5177 25.7253 76.5177 30.01 76.3864C31.9389 76.2961 33.1127 77.6669 33.1127 79.2264C33.1127 80.786 31.98 81.9352 30.01 82.0665Z" fill="#0B3452" fill-opacity="0.5"/>
<path d="M93.5577 33.6539C86.2359 34.1054 45.375 34.0644 42.1164 33.9576C38.8577 33.8509 38.0779 33.8674 36.231 33.7606C35.1968 33.7278 34.3841 32.8742 34.417 31.8727C34.4498 30.8713 35.3199 30.0833 36.3541 30.1162C36.3541 30.1162 37.7331 30.1654 42.2395 30.3132C56.7025 30.7975 93.6808 30.0095 93.6808 30.0095C94.715 30.0423 95.5277 30.896 95.4948 31.8974C95.462 32.8988 94.5919 33.6868 93.5577 33.6539Z" fill="#8396BA" fill-opacity="0.5"/>
<path d="M93.4678 44.6777C86.146 45.1291 45.2852 45.0881 42.0265 44.9814C38.7678 44.8747 37.988 44.8911 36.1412 44.7844C35.1069 44.7516 34.2943 43.8979 34.3271 42.8965C34.36 41.8951 35.23 41.1071 36.2643 41.1399C36.2643 41.1399 37.6433 41.1892 42.1496 41.3369C56.6126 41.8212 93.591 41.0332 93.591 41.0332C94.6252 41.066 95.4378 41.9197 95.405 42.9211C95.3722 43.9225 94.5021 44.7105 93.4678 44.6777Z" fill="#8396BA" fill-opacity="0.5"/>
<path d="M86.4913 95.9139C79.1695 96.3653 38.3086 96.3243 35.0499 96.2176C31.7913 96.1109 31.0115 96.1273 29.1646 96.0206C28.1304 95.9878 27.3177 95.1341 27.3506 94.1327C27.3834 93.1313 28.2535 92.3433 29.2877 92.3761C29.2877 92.3761 30.6667 92.4254 35.1731 92.5731C49.6361 93.0574 86.6144 92.2694 86.6144 92.2694C87.6486 92.3022 88.4613 93.1559 88.4284 94.1573C88.3956 95.1587 87.5255 95.9467 86.4913 95.9139Z" fill="#8396BA" fill-opacity="0.5"/>
<path d="M93.6171 56.5141C86.2953 56.9656 24.8399 56.9245 21.5812 56.8178C18.3225 56.7111 17.5427 56.7275 15.6959 56.6208C14.6616 56.588 13.849 55.7343 13.8818 54.7329C13.9147 53.7315 14.7847 52.9435 15.819 52.9763C15.819 52.9763 17.198 53.0256 21.7043 53.1733C36.1673 53.6576 93.7402 52.8696 93.7402 52.8696C94.7745 52.9025 95.5871 53.7561 95.5543 54.7575C95.5214 55.7589 94.6514 56.5469 93.6171 56.5141Z" fill="#8396BA" fill-opacity="0.5"/>
<path d="M93.6171 68.9825C86.2953 69.4339 24.8399 69.3929 21.5812 69.2862C18.3225 69.1795 17.5427 69.1959 15.6959 69.0892C14.6616 69.0564 13.849 68.2027 13.8818 67.2013C13.9147 66.1999 14.7847 65.4119 15.819 65.4447C15.819 65.4447 17.198 65.494 21.7043 65.6417C36.1673 66.126 93.7402 65.338 93.7402 65.338C94.7745 65.3708 95.5871 66.2245 95.5543 67.2259C95.5214 68.2273 94.6514 69.0153 93.6171 68.9825Z" fill="#8396BA" fill-opacity="0.5"/>
<path d="M18.888 41.9936C18.888 39.3915 18.9783 35.4105 18.9126 31.4377C18.9126 31.3638 18.9126 31.3064 18.9126 31.2653C18.9126 31.2243 18.888 31.1832 18.8552 31.134C18.8223 31.0847 18.7649 31.0683 18.691 31.0601L17.2792 30.978C16.6636 30.9452 16.1136 30.9698 15.8427 30.9534C15.8427 30.9534 15.7607 31.6839 15.7607 32.1847C15.7607 33.7606 15.3502 34.3681 15.2353 34.3681C14.9727 34.3516 14.7428 34.2449 14.554 34.0397C14.357 33.8345 14.2175 33.5965 14.1272 33.3092C14.0369 33.0301 13.9712 32.7674 13.9302 32.5212C13.8892 32.2832 13.8728 32.0944 13.881 31.9548C13.9138 31.3064 13.9056 29.4431 14.0123 29.1804H14.078C14.078 29.1804 14.119 29.1804 14.1436 29.1804L20.308 29.2789C20.308 29.2789 25.1263 29.2953 27.1866 29.2379H27.2523C27.2523 29.2379 27.2933 29.2379 27.3179 29.2379C27.4 29.5088 27.3343 31.2982 27.3015 31.9466C27.3015 32.0779 27.2605 32.2667 27.1948 32.4966C27.1291 32.7346 27.0388 32.9891 26.9157 33.2599C26.7926 33.5308 26.571 33.7771 26.3576 33.9576C26.1441 34.1382 25.9061 34.2203 25.6434 34.2039C25.5285 34.2039 25.4382 33.4077 25.3808 31.8317C25.3233 30.2557 25.4218 31.6593 25.389 31.134C25.1181 31.1176 23.6242 31.175 23.0004 31.134L21.5885 31.0519C21.4818 31.0519 21.408 31.0765 21.3751 31.134C21.3423 31.1915 21.3259 31.2817 21.3177 31.4049C21.3505 35.468 21.293 40.0318 21.293 41.9854C21.293 42.0921 21.293 42.1741 21.293 42.2316C21.293 42.2891 21.3177 42.3629 21.3587 42.4368C21.3915 42.5189 21.4572 42.5271 21.5475 42.5681C21.6378 42.6092 22.0072 42.5763 22.1549 42.5846C22.475 42.601 22.6967 42.6092 22.9183 42.7077C23.1399 42.8062 23.2466 42.9375 23.2384 43.1017C23.1892 44.021 23.0414 44.5792 22.8034 44.768C21.7691 44.6366 20.6938 44.7023 19.9551 44.6613C19.2328 44.6202 18.3299 44.7105 17.2628 44.7269C17.0494 44.5053 16.9673 43.9389 17.0165 43.0196C17.0247 42.8554 17.1479 42.7323 17.3777 42.6666C17.6075 42.601 17.8866 42.5681 18.2067 42.5846C18.4776 42.601 18.6582 42.5517 18.7485 42.445C18.8388 42.3383 18.888 42.1741 18.9044 41.9689L18.888 41.9936Z" fill="black" fill-opacity="0.5"/>
<path d="M106.61 15.8173C104.452 13.3877 96.235 12.0087 89.9146 15.8173C90.4564 10.6461 86.8612 0.705891 80.9102 0.311893C80.9102 0.311893 90.046 0.131311 98.1311 6.29574C106.216 12.4602 106.61 15.8173 106.61 15.8173Z" fill="#CBEDE1" stroke="#0B3452" stroke-opacity="0.5" stroke-width="0.413892" stroke-linecap="round" stroke-linejoin="round"/>
<path d="M19.7826 99.2793H16.7702C14.8412 99.2793 13.2734 97.7115 13.2734 95.7825V92.7701C13.2734 90.8412 14.8412 89.2734 16.7702 89.2734H19.7826C21.7116 89.2734 23.2793 90.8412 23.2793 92.7701V95.7825C23.2793 97.7115 21.7116 99.2793 19.7826 99.2793ZM16.7702 90.9232C15.7523 90.9232 14.9151 91.7523 14.9151 92.7783V95.7908C14.9151 96.8086 15.7441 97.6458 16.7702 97.6458H19.7826C20.8004 97.6458 21.6377 96.8168 21.6377 95.7908V92.7783C21.6377 91.7605 20.8086 90.9232 19.7826 90.9232H16.7702Z" fill="#8396BA" fill-opacity="0.5"/>
<path d="M92.2371 108.875C84.9153 109.326 38.3086 109.285 35.0499 109.178C31.7913 109.072 31.0115 109.088 29.1646 108.981C28.1304 108.949 27.3177 108.095 27.3506 107.094C27.3834 106.092 28.2535 105.304 29.2877 105.337C29.2877 105.337 30.6667 105.386 35.1731 105.534C49.6361 106.018 92.3602 105.23 92.3602 105.23C93.3944 105.263 94.2071 106.117 94.1742 107.118C94.1414 108.12 93.2713 108.908 92.2371 108.875Z" fill="#8396BA" fill-opacity="0.5"/>
<path d="M19.7826 112.24H16.7702C14.8412 112.24 13.2734 110.672 13.2734 108.743V105.731C13.2734 103.802 14.8412 102.234 16.7702 102.234H19.7826C21.7116 102.234 23.2793 103.802 23.2793 105.731V108.743C23.2793 110.672 21.7116 112.24 19.7826 112.24ZM16.7702 103.884C15.7523 103.884 14.9151 104.713 14.9151 105.739V108.752C14.9151 109.769 15.7441 110.607 16.7702 110.607H19.7826C20.8004 110.607 21.6377 109.778 21.6377 108.752V105.739C21.6377 104.721 20.8086 103.884 19.7826 103.884H16.7702Z" fill="#8396BA" fill-opacity="0.5"/>
<path d="M62.924 122.033C55.6022 122.484 38.5782 122.443 35.3195 122.336C32.0608 122.23 31.281 122.246 29.4341 122.139C28.3999 122.106 27.5873 121.253 27.6201 120.251C27.6529 119.25 28.523 118.462 29.5573 118.495C29.5573 118.495 30.9362 118.544 35.4426 118.692C49.9056 119.176 63.0471 118.388 63.0471 118.388C64.0813 118.421 64.8939 119.275 64.8611 120.276C64.8283 121.277 63.9582 122.065 62.924 122.033Z" fill="#8396BA" fill-opacity="0.5"/>
<path d="M20.0619 125.398H17.0495C15.1205 125.398 13.5527 123.83 13.5527 121.901V118.889C13.5527 116.96 15.1205 115.392 17.0495 115.392H20.0619C21.9909 115.392 23.5586 116.96 23.5586 118.889V121.901C23.5586 123.83 21.9909 125.398 20.0619 125.398ZM17.0495 117.042C16.0316 117.042 15.1944 117.871 15.1944 118.897V121.909C15.1944 122.927 16.0234 123.765 17.0495 123.765H20.0619C21.0797 123.765 21.917 122.936 21.917 121.909V118.897C21.917 117.879 21.0879 117.042 20.0619 117.042H17.0495Z" fill="#8396BA" fill-opacity="0.5"/>
</g>
<g clip-path="url(#clip1_2156_11486)">
<path d="M133.413 176.583L145.702 115.409C146.175 113.06 144.405 110.862 142.037 110.862H129.402L132.377 167.332L133.4 176.368V176.583H133.413Z" fill="#0B1F52"/>
<path d="M33.3941 176.583H133.401L128.989 106.466C128.852 104.357 127.082 102.753 125.001 102.879L103.788 104.054C98.9894 104.319 94.5274 106.656 91.5237 110.471L89.0435 113.628L33.6558 114.563C30.9014 114.614 28.7577 117.001 28.9695 119.792L33.3816 176.596L33.3941 176.583Z" fill="#6B7CFF"/>
<path d="M33.3822 176.52H132.965L128.578 106.706C128.441 104.61 126.671 103.018 124.602 103.132L103.477 104.294C98.6908 104.559 94.2538 106.883 91.275 110.685L88.8072 113.83L33.6564 114.765C30.9144 114.816 28.7831 117.19 28.995 119.969L33.3946 176.52H33.3822Z" stroke="#0B1F52" stroke-width="0.75" stroke-linecap="round" stroke-linejoin="round"/>
</g>
<defs>
<clipPath id="clip0_2156_11486">
<rect width="108.784" height="141.035" fill="white"/>
</clipPath>
<clipPath id="clip1_2156_11486">
<rect width="117.504" height="83.2941" fill="white" transform="translate(28.2598 93.7059)"/>
</clipPath>
</defs>
</svg>
