<svg width="105" height="198" viewBox="0 0 105 198" fill="none" xmlns="http://www.w3.org/2000/svg">
<rect x="2.17956" y="0.495968" width="100.114" height="197.008" rx="20.6653" fill="#6B7CFF" fill-opacity="0.65" stroke="#0B3052" stroke-width="0.991935"/>
<path d="M102.793 38.7574H103.155C103.886 38.7574 104.478 39.3496 104.478 40.08V62.7115C104.478 63.4419 103.886 64.034 103.155 64.034H102.793V38.7574Z" fill="#08458D"/>
<path d="M0 31.6545C0 30.924 0.592139 30.3319 1.32258 30.3319H1.68511V48.8681H1.32258C0.592139 48.8681 0 48.2759 0 47.5455V31.6545Z" fill="#08458D"/>
<path d="M0 54.4034C0 53.673 0.592139 53.0808 1.32258 53.0808H1.68511V71.617H1.32258C0.592139 71.617 0 71.0249 0 70.2944V54.4034Z" fill="#08458D"/>
<rect x="6.74023" y="5.0553" width="90.9957" height="187.889" rx="15.871" fill="white"/>
<path d="M35.3887 189.574H69.0908" stroke="#0B3052" stroke-width="2.64516" stroke-linecap="round"/>
<path d="M52.24 42.0455C58.2212 42.0455 63.0699 37.1968 63.0699 31.2156C63.0699 25.2344 58.2212 20.3857 52.24 20.3857C46.2589 20.3857 41.4102 25.2344 41.4102 31.2156C41.4102 37.1968 46.2589 42.0455 52.24 42.0455Z" fill="#6B7CFF" fill-opacity="0.65"/>
<path d="M52.2403 42.0455C55.7262 42.0455 58.8172 40.3928 60.7971 37.8376C59.2403 34.6789 55.997 32.5016 52.2403 32.5016C48.4837 32.5016 45.2404 34.6789 43.6836 37.8376C45.6634 40.3928 48.7545 42.0455 52.2403 42.0455Z" fill="#08268F"/>
<path d="M52.24 31.2156C54.1901 31.2156 55.771 29.6347 55.771 27.6846C55.771 25.7344 54.1901 24.1536 52.24 24.1536C50.2899 24.1536 48.709 25.7344 48.709 27.6846C48.709 29.6347 50.2899 31.2156 52.24 31.2156Z" fill="#08268F"/>
<path d="M58.3226 54.1494H45.5624C44.6758 54.1494 43.957 54.8682 43.957 55.7548C43.957 56.6414 44.6758 57.3602 45.5624 57.3602H58.3226C59.2092 57.3602 59.9279 56.6414 59.9279 55.7548C59.9279 54.8682 59.2092 54.1494 58.3226 54.1494Z" fill="#6B7CFF" fill-opacity="0.65"/>
<path d="M82.2044 102.565H21.6367C19.187 102.565 17.2012 104.549 17.2012 106.997V142.091C17.2012 144.538 19.187 146.522 21.6367 146.522H82.2044C84.654 146.522 86.6399 144.538 86.6399 142.091V106.997C86.6399 104.549 84.654 102.565 82.2044 102.565Z" fill="#6B7CFF" fill-opacity="0.65"/>
<rect x="23.5703" y="117.855" width="9.55579" height="5.73347" rx="2.86674" fill="#08268F"/>
<path d="M79.3475 161.174H24.4936C20.4661 161.174 17.2012 164.312 17.2012 168.182C17.2012 172.052 20.4661 175.189 24.4936 175.189H79.3475C83.375 175.189 86.6399 172.052 86.6399 168.182C86.6399 164.312 83.375 161.174 79.3475 161.174Z" fill="#0B3052"/>
<path d="M64.5099 47.1419H39.33C38.0151 47.1419 36.9492 48.1401 36.9492 49.3716C36.9492 50.603 38.0151 51.6012 39.33 51.6012H64.5099C65.8248 51.6012 66.8907 50.603 66.8907 49.3716C66.8907 48.1401 65.8248 47.1419 64.5099 47.1419Z" fill="#0B3052"/>
<path d="M25.4824 88.5503H76.4466" stroke="black" stroke-width="0.75" stroke-linecap="round"/>
<path d="M76.4562 107.662H56.0526C55.002 107.662 54.1504 108.518 54.1504 109.573C54.1504 110.629 55.002 111.484 56.0526 111.484H76.4562C77.5067 111.484 78.3584 110.629 78.3584 109.573C78.3584 108.518 77.5067 107.662 76.4562 107.662Z" fill="white"/>
<path d="M77.3011 128.048H24.8385C24.1381 128.048 23.5703 128.618 23.5703 129.322C23.5703 130.025 24.1381 130.596 24.8385 130.596H77.3011C78.0015 130.596 78.5693 130.025 78.5693 129.322C78.5693 128.618 78.0015 128.048 77.3011 128.048Z" fill="#6B7CFF" fill-opacity="0.65"/>
<path d="M57.5525 137.603H24.8385C24.1381 137.603 23.5703 138.174 23.5703 138.877C23.5703 139.581 24.1381 140.152 24.8385 140.152H57.5525C58.2529 140.152 58.8206 139.581 58.8206 138.877C58.8206 138.174 58.2529 137.603 57.5525 137.603Z" fill="white"/>
<path d="M25.6587 82.9503V76.4048H28.2411C28.7354 76.4048 29.1573 76.4932 29.5067 76.6701C29.8583 76.8448 30.1257 77.093 30.3089 77.4147C30.4943 77.7343 30.587 78.1104 30.587 78.5429C30.587 78.9776 30.4933 79.3515 30.3058 79.6647C30.1183 79.9758 29.8466 80.2145 29.4908 80.3807C29.1371 80.5468 28.7088 80.6299 28.206 80.6299H26.4769V79.5177H27.9822C28.2464 79.5177 28.4659 79.4815 28.6406 79.4091C28.8153 79.3366 28.9453 79.228 29.0305 79.0831C29.1179 78.9382 29.1616 78.7581 29.1616 78.5429C29.1616 78.3256 29.1179 78.1424 29.0305 77.9932C28.9453 77.8441 28.8143 77.7312 28.6374 77.6544C28.4627 77.5756 28.2422 77.5362 27.9759 77.5362H27.0426V82.9503H25.6587ZM29.1935 79.9716L30.8203 82.9503H29.2926L27.701 79.9716H29.1935ZM31.5394 84.7912V78.0412H32.8817V78.8657H32.9425C33.0021 78.7336 33.0884 78.5994 33.2013 78.463C33.3164 78.3245 33.4656 78.2095 33.6488 78.1179C33.8342 78.0241 34.0643 77.9772 34.3391 77.9772C34.6971 77.9772 35.0273 78.071 35.3299 78.2585C35.6325 78.4439 35.8743 78.724 36.0554 79.099C36.2365 79.4719 36.3271 79.9396 36.3271 80.5021C36.3271 81.0497 36.2386 81.512 36.0618 81.8892C35.8871 82.2642 35.6484 82.5486 35.3459 82.7425C35.0455 82.9343 34.7088 83.0302 34.3359 83.0302C34.0717 83.0302 33.8469 82.9865 33.6616 82.8991C33.4783 82.8118 33.3281 82.702 33.2109 82.5699C33.0938 82.4357 33.0043 82.3004 32.9425 82.164H32.9009V84.7912H31.5394ZM32.8722 80.4957C32.8722 80.7876 32.9126 81.0422 32.9936 81.2596C33.0746 81.4769 33.1918 81.6463 33.3452 81.7677C33.4986 81.887 33.685 81.9467 33.9045 81.9467C34.1261 81.9467 34.3136 81.886 34.467 81.7645C34.6204 81.641 34.7365 81.4705 34.8153 81.2532C34.8963 81.0337 34.9368 80.7812 34.9368 80.4957C34.9368 80.2123 34.8974 79.963 34.8185 79.7478C34.7397 79.5326 34.6236 79.3643 34.4702 79.2429C34.3168 79.1214 34.1282 79.0607 33.9045 79.0607C33.6829 79.0607 33.4954 79.1193 33.342 79.2365C33.1907 79.3537 33.0746 79.5199 32.9936 79.7351C32.9126 79.9503 32.8722 80.2038 32.8722 80.4957ZM41.7243 83.0397C41.2471 83.0397 40.822 82.9577 40.4491 82.7937C40.0784 82.6275 39.7854 82.3995 39.5702 82.1097C39.3572 81.8178 39.2474 81.4812 39.241 81.0998H40.6345C40.643 81.2596 40.6952 81.4002 40.7911 81.5216C40.8891 81.641 41.0191 81.7336 41.181 81.7997C41.343 81.8657 41.5251 81.8988 41.7275 81.8988C41.9385 81.8988 42.1249 81.8615 42.2868 81.7869C42.4488 81.7123 42.5756 81.609 42.6672 81.4769C42.7588 81.3448 42.8046 81.1924 42.8046 81.0199C42.8046 80.8451 42.7556 80.6907 42.6576 80.5564C42.5617 80.4201 42.4232 80.3135 42.2421 80.2368C42.0631 80.1601 41.8501 80.1218 41.6029 80.1218H40.9925V79.1054H41.6029C41.8117 79.1054 41.996 79.0692 42.1558 78.9968C42.3177 78.9243 42.4434 78.8242 42.5329 78.6964C42.6224 78.5664 42.6672 78.4151 42.6672 78.2425C42.6672 78.0785 42.6278 77.9346 42.5489 77.8111C42.4722 77.6853 42.3635 77.5873 42.2229 77.517C42.0844 77.4467 41.9225 77.4115 41.7371 77.4115C41.5496 77.4115 41.3781 77.4456 41.2226 77.5138C41.067 77.5799 40.9424 77.6747 40.8486 77.7983C40.7549 77.9218 40.7048 78.0667 40.6984 78.2329H39.3721C39.3785 77.8558 39.4861 77.5234 39.6949 77.2358C39.9037 76.9481 40.1849 76.7233 40.5386 76.5614C40.8944 76.3973 41.2961 76.3153 41.7435 76.3153C42.1952 76.3153 42.5905 76.3973 42.9292 76.5614C43.268 76.7255 43.5312 76.9471 43.7187 77.2262C43.9083 77.5032 44.002 77.8142 43.9999 78.1594C44.002 78.5259 43.8881 78.8316 43.6579 79.0767C43.43 79.3217 43.1327 79.4772 42.7662 79.5433V79.5944C43.2478 79.6562 43.6143 79.8235 43.8657 80.0962C44.1192 80.3668 44.2449 80.7056 44.2428 81.1125C44.2449 81.4854 44.1373 81.8167 43.92 82.1065C43.7048 82.3963 43.4076 82.6243 43.0283 82.7905C42.6491 82.9566 42.2144 83.0397 41.7243 83.0397ZM47.804 83.0941C47.2543 83.0919 46.7813 82.9566 46.3849 82.6882C45.9908 82.4197 45.6871 82.0309 45.4741 81.5216C45.2631 81.0124 45.1587 80.3998 45.1609 79.6839C45.1609 78.9701 45.2663 78.3618 45.4773 77.859C45.6903 77.3562 45.994 76.9737 46.3881 76.7116C46.7844 76.4474 47.2564 76.3153 47.804 76.3153C48.3516 76.3153 48.8224 76.4474 49.2166 76.7116C49.6129 76.9758 49.9176 77.3593 50.1307 77.8622C50.3438 78.3629 50.4492 78.9701 50.4471 79.6839C50.4471 80.402 50.3406 81.0156 50.1275 81.5248C49.9165 82.0341 49.614 82.4229 49.2198 82.6914C48.8256 82.9598 48.3537 83.0941 47.804 83.0941ZM47.804 81.9467C48.179 81.9467 48.4783 81.7581 48.7021 81.381C48.9258 81.0039 49.0366 80.4382 49.0344 79.6839C49.0344 79.1875 48.9833 78.7741 48.881 78.4439C48.7809 78.1136 48.6381 77.8654 48.4528 77.6992C48.2695 77.533 48.0533 77.4499 47.804 77.4499C47.4311 77.4499 47.1328 77.6363 46.9091 78.0092C46.6854 78.3821 46.5724 78.9403 46.5703 79.6839C46.5703 80.1868 46.6204 80.6065 46.7205 80.9432C46.8228 81.2777 46.9666 81.5291 47.152 81.6974C47.3374 81.8636 47.5547 81.9467 47.804 81.9467Z" fill="#0B3052"/>
<path d="M51.9788 83.0334C51.7678 83.0334 51.5867 82.9588 51.4355 82.8096C51.2863 82.6584 51.2117 82.4772 51.2117 82.2663C51.2117 82.0575 51.2863 81.8785 51.4355 81.7294C51.5867 81.5802 51.7678 81.5057 51.9788 81.5057C52.1833 81.5057 52.3623 81.5802 52.5157 81.7294C52.6691 81.8785 52.7458 82.0575 52.7458 82.2663C52.7458 82.4069 52.7096 82.5358 52.6372 82.653C52.5669 82.7681 52.4742 82.8608 52.3591 82.9311C52.2441 82.9993 52.1173 83.0334 51.9788 83.0334ZM56.1536 83.0941C55.6039 83.0919 55.1309 82.9566 54.7346 82.6882C54.3404 82.4197 54.0368 82.0309 53.8237 81.5216C53.6127 81.0124 53.5083 80.3998 53.5105 79.6839C53.5105 78.9701 53.6159 78.3618 53.8269 77.859C54.04 77.3562 54.3436 76.9737 54.7377 76.7116C55.1341 76.4474 55.606 76.3153 56.1536 76.3153C56.7012 76.3153 57.1721 76.4474 57.5662 76.7116C57.9625 76.9758 58.2672 77.3593 58.4803 77.8622C58.6934 78.3629 58.7988 78.9701 58.7967 79.6839C58.7967 80.402 58.6902 81.0156 58.4771 81.5248C58.2662 82.0341 57.9636 82.4229 57.5694 82.6914C57.1752 82.9598 56.7033 83.0941 56.1536 83.0941ZM56.1536 81.9467C56.5286 81.9467 56.8279 81.7581 57.0517 81.381C57.2754 81.0039 57.3862 80.4382 57.3841 79.6839C57.3841 79.1875 57.3329 78.7741 57.2306 78.4439C57.1305 78.1136 56.9877 77.8654 56.8024 77.6992C56.6191 77.533 56.4029 77.4499 56.1536 77.4499C55.7807 77.4499 55.4824 77.6363 55.2587 78.0092C55.035 78.3821 54.9221 78.9403 54.9199 79.6839C54.9199 80.1868 54.97 80.6065 55.0701 80.9432C55.1724 81.2777 55.3162 81.5291 55.5016 81.6974C55.687 81.8636 55.9043 81.9467 56.1536 81.9467ZM62.3499 83.0941C61.8002 83.0919 61.3271 82.9566 60.9308 82.6882C60.5367 82.4197 60.233 82.0309 60.02 81.5216C59.809 81.0124 59.7046 80.3998 59.7068 79.6839C59.7068 78.9701 59.8122 78.3618 60.0232 77.859C60.2362 77.3562 60.5399 76.9737 60.934 76.7116C61.3303 76.4474 61.8023 76.3153 62.3499 76.3153C62.8975 76.3153 63.3683 76.4474 63.7625 76.7116C64.1588 76.9758 64.4635 77.3593 64.6766 77.8622C64.8896 78.3629 64.9951 78.9701 64.993 79.6839C64.993 80.402 64.8865 81.0156 64.6734 81.5248C64.4624 82.0341 64.1599 82.4229 63.7657 82.6914C63.3715 82.9598 62.8996 83.0941 62.3499 83.0941ZM62.3499 81.9467C62.7249 81.9467 63.0242 81.7581 63.248 81.381C63.4717 81.0039 63.5825 80.4382 63.5803 79.6839C63.5803 79.1875 63.5292 78.7741 63.4269 78.4439C63.3268 78.1136 63.184 77.8654 62.9987 77.6992C62.8154 77.533 62.5992 77.4499 62.3499 77.4499C61.977 77.4499 61.6787 77.6363 61.455 78.0092C61.2313 78.3821 61.1183 78.9403 61.1162 79.6839C61.1162 80.1868 61.1663 80.6065 61.2664 80.9432C61.3687 81.2777 61.5125 81.5291 61.6979 81.6974C61.8833 81.8636 62.1006 81.9467 62.3499 81.9467ZM68.5462 83.0941C67.9964 83.0919 67.5234 82.9566 67.1271 82.6882C66.733 82.4197 66.4293 82.0309 66.2163 81.5216C66.0053 81.0124 65.9009 80.3998 65.9031 79.6839C65.9031 78.9701 66.0085 78.3618 66.2195 77.859C66.4325 77.3562 66.7362 76.9737 67.1303 76.7116C67.5266 76.4474 67.9986 76.3153 68.5462 76.3153C69.0938 76.3153 69.5646 76.4474 69.9588 76.7116C70.3551 76.9758 70.6598 77.3593 70.8729 77.8622C71.0859 78.3629 71.1914 78.9701 71.1893 79.6839C71.1893 80.402 71.0827 81.0156 70.8697 81.5248C70.6587 82.0341 70.3562 82.4229 69.962 82.6914C69.5678 82.9598 69.0959 83.0941 68.5462 83.0941ZM68.5462 81.9467C68.9212 81.9467 69.2205 81.7581 69.4442 81.381C69.668 81.0039 69.7788 80.4382 69.7766 79.6839C69.7766 79.1875 69.7255 78.7741 69.6232 78.4439C69.5231 78.1136 69.3803 77.8654 69.195 77.6992C69.0117 77.533 68.7955 77.4499 68.5462 77.4499C68.1733 77.4499 67.875 77.6363 67.6513 78.0092C67.4276 78.3821 67.3146 78.9403 67.3125 79.6839C67.3125 80.1868 67.3626 80.6065 67.4627 80.9432C67.565 81.2777 67.7088 81.5291 67.8942 81.6974C68.0795 81.8636 68.2969 81.9467 68.5462 81.9467Z" fill="#6B7CFF" fill-opacity="0.65"/>
</svg>
