<svg width="323" height="224" viewBox="0 0 323 224" fill="none" xmlns="http://www.w3.org/2000/svg">
<path d="M163.334 106.08L163.35 106.085L163.344 106.07L163.334 106.075V106.08Z" fill="#F5F5F5"/>
<path d="M163.395 106.191L163.4 106.201L163.395 106.191Z" fill="#F5F5F5"/>
<path d="M163.42 106.131L163.425 106.146L163.435 106.126L163.42 106.131Z" fill="#F5F5F5"/>
<path d="M163.256 106.243L163.195 106.618L163.355 106.29L163.341 106.154L163.256 106.243Z" fill="#F5F5F5"/>
<path d="M163.404 106.131L163.414 106.141V106.131H163.404Z" fill="#F5F5F5"/>
<path d="M322.411 61.5154H241.951V173.351H322.411V61.5154Z" fill="white"/>
<path d="M322.411 61.5154H241.951V101.996H322.411V61.5154Z" fill="#5B64A6"/>
<path d="M308.481 111.916C308.481 111.986 297.418 112.042 283.776 112.042C270.134 112.042 259.07 111.986 259.07 111.916C259.07 111.845 270.129 111.794 283.776 111.794C297.422 111.794 308.481 111.836 308.481 111.916Z" fill="#263238"/>
<path d="M308.481 122.806C308.481 122.871 297.418 122.928 283.776 122.928C270.134 122.928 259.07 122.871 259.07 122.806C259.07 122.74 270.129 122.684 283.776 122.684C297.422 122.684 308.481 122.74 308.481 122.806Z" fill="#263238"/>
<path d="M308.481 133.71C308.481 133.775 297.418 133.831 283.776 133.831C270.134 133.831 259.07 133.775 259.07 133.71C259.07 133.644 270.129 133.583 283.776 133.583C297.422 133.583 308.481 133.639 308.481 133.71Z" fill="#263238"/>
<path d="M308.271 146.278H259.943C255.189 146.278 251.336 150.132 251.336 154.885V155.781C251.336 160.534 255.189 164.388 259.943 164.388H308.271C313.025 164.388 316.878 160.534 316.878 155.781V154.885C316.878 150.132 313.025 146.278 308.271 146.278Z" fill="#5B64A6"/>
<path d="M266.074 89.1835C266.417 89.3221 266.709 89.5639 266.909 89.8754C267.109 90.187 267.207 90.553 267.19 90.9228C267.2 91.2918 267.1 91.6555 266.904 91.9682C266.699 92.2712 266.411 92.5088 266.074 92.6526C265.676 92.8219 265.246 92.905 264.813 92.8964H263.876V94.3028H262.361V88.9445H264.808C265.243 88.9314 265.675 89.013 266.074 89.1835ZM265.427 91.4994C265.577 91.3439 265.661 91.1364 265.661 90.9204C265.661 90.7045 265.577 90.497 265.427 90.3415C265.226 90.189 264.976 90.1156 264.724 90.1352H263.88V91.701H264.738C264.984 91.716 265.228 91.6448 265.427 91.4994Z" fill="white"/>
<path d="M270.269 92.8731H269.43V94.2794H267.93V88.9445H270.367C270.8 88.9337 271.231 89.0168 271.628 89.1883C271.873 89.3046 272.091 89.4703 272.268 89.6751C272.445 89.8798 272.578 90.1191 272.657 90.3778C272.737 90.6365 272.762 90.909 272.731 91.1779C272.7 91.4469 272.614 91.7064 272.477 91.9401C272.286 92.2334 272.016 92.4673 271.699 92.6152L272.852 94.2982H271.23L270.269 92.8731ZM270.991 90.3416C270.79 90.189 270.539 90.1156 270.288 90.1353H269.43V91.7011H270.274C270.525 91.7195 270.774 91.648 270.977 91.4995C271.127 91.344 271.21 91.1365 271.21 90.9205C271.21 90.7046 271.127 90.4971 270.977 90.3416H270.991Z" fill="white"/>
<path d="M277.865 93.1262V94.2935H273.566V88.9446H277.786V90.1166H275.085V91.0167H277.462V92.1511H275.085V93.1309L277.865 93.1262Z" fill="white"/>
<path d="M283.558 94.2935V91.4808L282.18 93.7919H281.51L280.141 91.5558V94.317H278.734V88.9446H279.981L281.857 92.0339L283.69 88.9446H284.937V94.2982L283.558 94.2935Z" fill="white"/>
<path d="M286.023 88.9446H287.538V94.2982H286.023V88.9446Z" fill="white"/>
<path d="M289.231 93.7497C289 93.5042 288.823 93.214 288.709 92.8971C288.595 92.5802 288.548 92.2433 288.57 91.9074V88.9446H290.084V91.8652C290.084 92.7231 290.421 93.1497 291.101 93.1497C291.781 93.1497 292.109 92.7231 292.109 91.8652V88.9446H293.6V91.9121C293.621 92.248 293.574 92.5849 293.46 92.9018C293.347 93.2187 293.169 93.5089 292.939 93.7544C292.413 94.1763 291.759 94.4063 291.085 94.4063C290.41 94.4063 289.756 94.1763 289.231 93.7544V93.7497Z" fill="white"/>
<path d="M299.459 94.2935V91.4808L298.085 93.7919H297.41L296.041 91.5558V94.317H294.635V88.9446H295.882L297.757 92.0339L299.59 88.9446H300.837V94.2982L299.459 94.2935Z" fill="white"/>
<path d="M271.836 157.164C271.432 156.949 271.097 156.624 270.87 156.226C270.637 155.823 270.514 155.365 270.514 154.9C270.514 154.434 270.637 153.976 270.87 153.573C271.101 153.185 271.436 152.869 271.836 152.659C272.268 152.43 272.752 152.315 273.242 152.326C273.643 152.318 274.041 152.397 274.409 152.556C274.751 152.699 275.053 152.922 275.291 153.207L274.55 153.892C274.399 153.706 274.208 153.557 273.991 153.456C273.774 153.354 273.537 153.303 273.298 153.306C273.01 153.302 272.726 153.373 272.473 153.512C272.235 153.643 272.039 153.838 271.906 154.074C271.771 154.328 271.702 154.612 271.704 154.9C271.7 155.187 271.77 155.471 271.906 155.725C272.037 155.964 272.234 156.161 272.473 156.292C272.726 156.43 273.01 156.499 273.298 156.493C273.538 156.496 273.775 156.444 273.992 156.342C274.209 156.24 274.4 156.09 274.55 155.903L275.291 156.587C275.054 156.874 274.751 157.101 274.409 157.248C274.036 157.402 273.636 157.479 273.233 157.473C272.748 157.491 272.267 157.384 271.836 157.164Z" fill="white"/>
<path d="M279.433 153.952C279.589 154.122 279.709 154.322 279.785 154.54C279.86 154.757 279.891 154.988 279.873 155.218V157.389H278.762V155.368C278.781 155.127 278.711 154.887 278.565 154.693C278.491 154.616 278.401 154.556 278.302 154.518C278.202 154.479 278.096 154.462 277.989 154.468C277.865 154.462 277.742 154.482 277.626 154.526C277.511 154.57 277.406 154.639 277.319 154.726C277.139 154.942 277.05 155.219 277.07 155.499V157.375H275.959V152.134H277.07V153.981C277.222 153.831 277.404 153.716 277.604 153.643C277.822 153.562 278.052 153.523 278.284 153.526C278.495 153.516 278.705 153.548 278.902 153.622C279.099 153.695 279.28 153.808 279.433 153.952Z" fill="white"/>
<path d="M281.655 157.216C281.344 157.056 281.084 156.812 280.905 156.512C280.727 156.203 280.633 155.852 280.633 155.495C280.633 155.138 280.727 154.787 280.905 154.478C281.085 154.18 281.345 153.938 281.655 153.779C281.991 153.613 282.362 153.526 282.738 153.526C283.113 153.526 283.484 153.613 283.821 153.779C284.129 153.939 284.387 154.18 284.566 154.478C284.744 154.787 284.838 155.138 284.838 155.495C284.838 155.852 284.744 156.203 284.566 156.512C284.388 156.811 284.13 157.055 283.821 157.216C283.483 157.379 283.113 157.464 282.738 157.464C282.363 157.464 281.992 157.379 281.655 157.216ZM283.441 156.278C283.63 156.066 283.728 155.788 283.713 155.504C283.721 155.365 283.701 155.225 283.654 155.093C283.607 154.961 283.535 154.839 283.441 154.736C283.349 154.643 283.239 154.57 283.118 154.52C282.998 154.47 282.868 154.444 282.738 154.444C282.607 154.444 282.478 154.47 282.357 154.52C282.236 154.57 282.127 154.643 282.034 154.736C281.939 154.839 281.865 154.96 281.818 155.092C281.77 155.224 281.75 155.364 281.758 155.504C281.75 155.645 281.771 155.786 281.818 155.919C281.866 156.052 281.939 156.174 282.034 156.278C282.223 156.461 282.475 156.564 282.738 156.564C283 156.564 283.253 156.461 283.441 156.278Z" fill="white"/>
<path d="M286.304 157.215C285.994 157.054 285.735 156.811 285.554 156.512C285.379 156.202 285.287 155.851 285.287 155.495C285.287 155.138 285.379 154.788 285.554 154.477C285.734 154.179 285.994 153.938 286.304 153.779C286.64 153.607 287.014 153.52 287.392 153.526C287.767 153.519 288.137 153.606 288.47 153.779C288.78 153.938 289.04 154.179 289.22 154.477C289.395 154.788 289.487 155.138 289.487 155.495C289.487 155.851 289.395 156.202 289.22 156.512C289.039 156.811 288.78 157.054 288.47 157.215C288.136 157.384 287.766 157.47 287.392 157.464C287.014 157.47 286.641 157.384 286.304 157.215ZM288.09 156.278C288.281 156.066 288.38 155.788 288.367 155.504C288.374 155.364 288.353 155.224 288.306 155.092C288.258 154.96 288.185 154.839 288.09 154.735C288 154.641 287.892 154.566 287.772 154.516C287.651 154.466 287.522 154.442 287.392 154.445C287.261 154.441 287.13 154.465 287.009 154.515C286.888 154.565 286.779 154.64 286.689 154.735C286.592 154.838 286.517 154.959 286.469 155.091C286.421 155.223 286.4 155.364 286.407 155.504C286.4 155.645 286.421 155.786 286.47 155.919C286.518 156.052 286.592 156.174 286.689 156.278C286.779 156.372 286.889 156.446 287.01 156.495C287.131 156.544 287.261 156.568 287.392 156.564C287.523 156.566 287.654 156.542 287.775 156.491C287.896 156.44 288.005 156.364 288.095 156.268L288.09 156.278Z" fill="white"/>
<path d="M290.592 157.346C290.334 157.29 290.089 157.191 289.865 157.051L290.236 156.254C290.426 156.375 290.635 156.465 290.854 156.521C291.086 156.589 291.326 156.624 291.567 156.624C292.036 156.624 292.27 156.512 292.27 156.278C292.268 156.223 292.249 156.17 292.214 156.128C292.179 156.085 292.131 156.056 292.078 156.043C291.886 155.982 291.688 155.941 291.487 155.921C291.226 155.885 290.967 155.83 290.714 155.757C290.511 155.698 290.327 155.585 290.184 155.429C290.026 155.245 289.945 155.006 289.959 154.763C289.956 154.532 290.03 154.306 290.17 154.121C290.327 153.92 290.539 153.767 290.779 153.68C291.08 153.573 291.398 153.52 291.717 153.526C291.988 153.525 292.259 153.555 292.523 153.615C292.756 153.662 292.98 153.745 293.189 153.859L292.819 154.651C292.483 154.46 292.103 154.361 291.717 154.365C291.533 154.354 291.35 154.388 291.183 154.463C291.132 154.486 291.089 154.522 291.057 154.567C291.026 154.613 291.007 154.666 291.004 154.721C291.005 154.778 291.024 154.833 291.058 154.878C291.093 154.923 291.142 154.955 291.197 154.97C291.395 155.034 291.599 155.079 291.806 155.106C292.065 155.146 292.322 155.201 292.575 155.27C292.774 155.329 292.954 155.441 293.095 155.593C293.25 155.776 293.329 156.011 293.316 156.249C293.319 156.478 293.245 156.701 293.105 156.882C292.94 157.08 292.724 157.23 292.481 157.314C292.169 157.422 291.841 157.472 291.511 157.464C291.201 157.464 290.892 157.424 290.592 157.346Z" fill="white"/>
<path d="M297.735 155.809H294.842C294.888 156.037 295.02 156.239 295.212 156.371C295.427 156.514 295.681 156.586 295.939 156.577C296.119 156.579 296.299 156.549 296.469 156.488C296.628 156.424 296.773 156.328 296.895 156.207L297.486 156.845C297.286 157.058 297.041 157.224 296.768 157.331C296.496 157.438 296.203 157.483 295.911 157.463C295.514 157.47 295.121 157.385 294.762 157.215C294.445 157.058 294.178 156.814 293.994 156.512C293.819 156.202 293.727 155.852 293.727 155.497C293.727 155.141 293.819 154.791 293.994 154.482C294.168 154.185 294.421 153.941 294.725 153.779C295.044 153.617 295.396 153.532 295.754 153.532C296.111 153.532 296.464 153.617 296.783 153.779C297.083 153.937 297.332 154.178 297.5 154.472C297.677 154.794 297.766 155.156 297.758 155.523C297.758 155.523 297.753 155.621 297.735 155.809ZM295.142 154.576C294.967 154.724 294.855 154.933 294.828 155.162H296.703C296.676 154.935 296.563 154.728 296.389 154.58C296.214 154.435 295.993 154.359 295.766 154.365C295.539 154.357 295.318 154.432 295.142 154.576Z" fill="white"/>
<path d="M254.041 113.936C253.869 113.938 253.702 113.876 253.572 113.762L252.194 112.548C252.054 112.424 251.969 112.249 251.958 112.062C251.947 111.875 252.011 111.692 252.135 111.552C252.26 111.412 252.434 111.327 252.621 111.316C252.808 111.305 252.992 111.369 253.131 111.493L253.989 112.248L255.93 110.101C256.057 109.974 256.228 109.9 256.408 109.896C256.588 109.891 256.763 109.955 256.897 110.075C257.03 110.195 257.113 110.362 257.128 110.541C257.143 110.72 257.088 110.898 256.976 111.039L254.566 113.697C254.5 113.771 254.42 113.831 254.329 113.872C254.239 113.914 254.14 113.935 254.041 113.936Z" fill="#455A64"/>
<path d="M254.043 124.835C253.87 124.837 253.703 124.775 253.574 124.662L252.196 123.452C252.126 123.391 252.069 123.316 252.029 123.232C251.988 123.149 251.964 123.058 251.958 122.966C251.947 122.778 252.01 122.594 252.135 122.454C252.259 122.313 252.434 122.228 252.621 122.216C252.809 122.205 252.993 122.268 253.133 122.393L253.991 123.147L255.932 121.005C255.992 120.931 256.066 120.869 256.151 120.824C256.235 120.779 256.328 120.752 256.423 120.744C256.518 120.736 256.614 120.748 256.705 120.779C256.795 120.809 256.879 120.858 256.95 120.922C257.021 120.985 257.078 121.063 257.119 121.15C257.159 121.237 257.181 121.331 257.183 121.426C257.186 121.522 257.169 121.617 257.134 121.706C257.098 121.794 257.045 121.875 256.977 121.943L254.568 124.601C254.502 124.675 254.421 124.735 254.331 124.775C254.24 124.816 254.142 124.836 254.043 124.835Z" fill="#455A64"/>
<path d="M254.041 135.739C253.869 135.741 253.702 135.68 253.572 135.566L252.194 134.352C252.054 134.227 251.969 134.053 251.958 133.866C251.947 133.679 252.011 133.495 252.135 133.356C252.26 133.216 252.434 133.131 252.621 133.12C252.808 133.109 252.992 133.173 253.131 133.297L253.989 134.052L255.93 131.905C256.057 131.778 256.228 131.704 256.408 131.699C256.588 131.694 256.763 131.759 256.897 131.879C257.03 131.999 257.113 132.166 257.128 132.345C257.143 132.524 257.088 132.702 256.976 132.842L254.566 135.5C254.5 135.575 254.42 135.635 254.329 135.676C254.239 135.717 254.14 135.739 254.041 135.739Z" fill="#455A64"/>
<path d="M286.976 72.3308L288.134 74.6795L290.731 75.0592L288.851 76.8875L289.296 79.4706L286.976 78.2517L284.655 79.4706L285.096 76.8875L283.221 75.0592L285.813 74.6795L286.976 72.3308Z" fill="white"/>
<path d="M277.857 72.3308L279.019 74.6795L281.612 75.0592L279.736 76.8875L280.177 79.4706L277.857 78.2517L275.536 79.4706L275.981 76.8875L274.102 75.0592L276.699 74.6795L277.857 72.3308Z" fill="white"/>
<path d="M285.232 82.0158L282.18 80.3703L279.1 81.9455L279.723 78.542L277.271 76.0949L280.703 75.6355L282.269 72.5461L283.769 75.6683L287.191 76.2074L284.683 78.5983L285.232 82.0158Z" fill="white"/>
<path d="M276.668 75.8885L280.521 75.3775L282.279 71.9131L283.958 75.415L287.797 76.0197L284.984 78.6966L285.599 82.536L282.181 80.6889L278.721 82.4563L279.42 78.6356L276.668 75.8885ZM286.588 76.3948L283.583 75.926L282.265 73.1788L280.887 75.8932L277.868 76.2869L280.02 78.434L279.476 81.4437L282.186 80.0373L284.863 81.4859L284.394 78.4809L286.588 76.3948Z" fill="#455A64"/>
<path d="M322.403 173.351C322.403 172.367 322.356 127.62 322.29 61.5153L322.403 61.6278H241.953L242.075 61.5059C242.075 103.351 242.075 142.068 242.075 173.342L241.976 173.243L322.436 173.342L241.976 173.44H241.873V173.342C241.873 142.068 241.873 103.351 241.873 61.5059V61.384H242.004H322.454H322.562V61.4919C322.454 127.62 322.403 172.39 322.403 173.351Z" fill="#263238"/>
<path d="M257.392 47.2871C257.638 46.8328 257.791 46.3338 257.842 45.8195C257.893 45.3052 257.841 44.7859 257.689 44.292C257.536 43.7982 257.287 43.3397 256.955 42.9435C256.623 42.5474 256.215 42.2215 255.756 41.985C255.903 40.7153 255.555 39.4376 254.785 38.4172C254.016 37.3968 252.882 36.712 251.621 36.5048C250.412 36.3595 249.188 36.6783 247.974 36.5845C246.76 36.4908 245.709 36.022 244.556 35.811C243.403 35.6 242.076 35.7219 241.275 36.5845C240.398 37.5221 240.529 39.1113 241.228 40.213C241.926 41.3147 243.051 42.046 244.144 42.7492C243.816 42.7486 243.499 42.8672 243.253 43.0828C243.006 43.2984 242.846 43.5964 242.803 43.9212C242.735 44.5873 242.915 45.2551 243.309 45.7963C243.905 46.7093 244.741 47.4401 245.725 47.9083C246.709 48.3764 247.804 48.5638 248.888 48.4497L251.949 48.3607C252.375 48.653 252.855 48.8573 253.361 48.9616C253.867 49.0659 254.389 49.0681 254.896 48.9681C255.403 48.8681 255.885 48.6679 256.314 48.3793C256.742 48.0906 257.109 47.7193 257.392 47.2871Z" fill="#263238"/>
<path d="M247.719 50.3108C247.404 50.3388 247.091 50.2494 246.838 50.0599C246.585 49.8703 246.411 49.5941 246.35 49.2842C246.302 48.971 246.341 48.6505 246.462 48.3579C246.584 48.0652 246.783 47.8116 247.039 47.6246C247.562 47.2659 248.194 47.1001 248.825 47.1558C249.455 47.2092 250.074 47.3528 250.663 47.5824C251.589 47.8872 252.476 48.3027 253.302 48.8201C253.601 48.9947 253.857 49.2332 254.052 49.5186C254.149 49.6625 254.206 49.8298 254.216 50.0031C254.226 50.1763 254.189 50.349 254.109 50.503C253.856 50.9156 253.288 50.9718 252.805 50.9718C250.993 50.9801 249.184 50.8232 247.4 50.503" fill="#FF725E"/>
<path d="M246.712 49.2792C246.351 45.8476 241.508 42.7677 239.417 43.3161C238.885 42.3262 237.992 41.5791 236.924 41.23C235.855 40.8808 234.694 40.9564 233.679 41.441L227.979 38.9142C227.004 38.4829 225.982 38.0375 224.922 38.1313C223.863 38.225 222.785 39.0689 222.822 40.1237C220.764 39.3033 218.19 41.38 218.565 43.5693C218.259 43.6391 217.969 43.7711 217.715 43.9569C217.461 44.1428 217.248 44.3787 217.088 44.6501C216.929 44.9215 216.827 45.2227 216.788 45.535C216.75 45.8474 216.775 46.1644 216.864 46.4665C214.308 47.0993 211.879 48.1648 209.682 49.6168C208.744 50.2215 207.839 50.9669 207.539 52.0217C207.239 53.0765 207.91 54.4547 209.007 54.4641C208.515 54.628 208.081 54.9301 207.757 55.3341C207.433 55.7382 207.232 56.2271 207.178 56.7424C206.33 56.1518 205.139 57.2534 205.27 58.2801C205.402 59.3068 206.278 60.0475 207.122 60.6241C207.966 61.2007 208.899 61.8289 209.236 62.804C209.155 62.9014 209.054 62.9811 208.94 63.0384C208.826 63.0956 208.702 63.1291 208.575 63.1368C206.297 63.2493 204.427 64.951 204.398 67.2294C204.398 67.4404 204.398 67.6372 204.398 67.8107C204.398 68.8514 205.111 70.3516 205.57 71.2798C206.728 73.6238 207.985 74.2754 209.86 76.1178C208.294 77.0553 209.504 82.5496 215.565 82.4652C221.809 90.266 226.84 95.179 234.88 101.109C236.028 101.958 237.524 102.816 238.789 102.159C239.539 103.097 240.861 103.397 242.047 103.228C243.221 102.987 244.345 102.548 245.371 101.93C246.576 102.369 247.888 102.425 249.126 102.089C250.364 101.754 251.468 101.043 252.286 100.054C253.35 100.017 254.394 99.7595 255.353 99.2971C256.312 98.8346 257.164 98.1778 257.855 97.3682C260.223 98.198 263.129 96.4682 263.532 93.9929C264.86 91.3097 265.735 88.4251 266.12 85.4562C267.648 86.1359 269.448 84.7248 269.814 83.0887C270.18 81.4526 269.561 79.8072 268.952 78.2273C269.748 79.2118 271.516 78.6024 272.008 77.4398C272.5 76.2771 272.111 74.9364 271.619 73.7691C270.904 72.0575 269.983 70.4392 268.877 68.9499C269.678 66.8731 268.909 63.2681 267.85 61.3085C263.574 53.3999 259.557 49.2464 246.721 49.237" fill="#263238"/>
<path d="M232.896 55.1491C233.333 54.4478 234.018 53.9371 234.815 53.719C235.612 53.5008 236.462 53.5913 237.195 53.9724L254.245 59.8792C259.252 62.4576 258.581 70.263 255.792 75.1573C252.693 80.5953 248.699 87.1115 245.525 90.5994C239.14 97.6313 231.518 93.9091 231.518 93.9091L227.767 99.5627L223.431 106.177C221.453 104.34 209.461 91.4385 209.461 91.4385L232.896 55.1491Z" fill="#FFBF9D"/>
<path d="M240.132 81.3877C240.165 81.3221 240.915 81.6455 242.097 82.2222C242.392 82.3769 242.687 82.494 242.856 82.3347C243.067 82.0652 243.191 81.7384 243.212 81.3971C243.39 80.5595 243.578 79.6797 243.775 78.7578C244.605 75.0074 245.397 72.0212 245.547 72.054C245.697 72.0868 245.148 75.148 244.319 78.8843C244.108 79.8219 243.906 80.6751 243.709 81.5143C243.665 81.9611 243.464 82.3779 243.142 82.6909C243.038 82.7616 242.92 82.8076 242.795 82.8255C242.671 82.8433 242.544 82.8326 242.425 82.7941C242.245 82.736 242.073 82.6557 241.914 82.555C240.779 81.9127 240.095 81.444 240.132 81.3877Z" fill="#263238"/>
<path d="M231.515 93.9042C231.515 93.9042 226.987 91.5602 223.822 84.9971C223.822 84.9971 221.258 91.6587 229.72 96.6091L231.515 93.9042Z" fill="#FF9A6C"/>
<path d="M244.12 66.4889C243.82 66.7139 242.83 65.8654 241.462 65.1857C240.093 64.5059 238.841 64.1778 238.846 63.8074C238.846 63.6293 239.211 63.4699 239.811 63.4558C240.592 63.4701 241.359 63.6615 242.055 64.0156C242.751 64.3696 243.358 64.8771 243.829 65.4998C244.148 65.9967 244.232 66.3811 244.12 66.4889Z" fill="#263238"/>
<path d="M254.286 73.5956C253.934 73.7175 253.348 72.9721 252.467 72.372C251.585 71.772 250.709 71.4344 250.699 71.0828C250.699 70.9094 250.985 70.7406 251.473 70.7266C252.101 70.7297 252.713 70.9297 253.221 71.2985C253.742 71.6534 254.14 72.1612 254.361 72.7518C254.511 73.2112 254.431 73.53 254.286 73.5956Z" fill="#263238"/>
<path d="M256.57 81.2657C257.407 80.0397 257.796 78.5631 257.672 77.084C257.569 76.2871 257.264 75.5182 257.245 74.7119C257.203 72.9727 258.446 71.5007 259.069 69.8786C259.461 68.8245 259.597 67.6919 259.464 66.5749C259.331 65.458 258.934 64.3888 258.305 63.4561C257.245 61.9185 255.581 60.8215 254.761 59.1479C254.151 57.9103 254.053 56.457 253.354 55.2616C252.028 52.9176 248.999 52.2801 246.322 52.0457C244.879 53.2645 244.916 55.2288 244.916 57.118C244.928 58.0625 245.143 58.9933 245.548 59.8469C245.952 60.7005 246.536 61.4567 247.26 62.0638C248.395 63.0014 249.97 63.7233 250.195 65.1719C250.429 66.6955 248.957 68.0175 248.938 69.5552C248.915 71.7585 251.662 72.8977 252.553 74.9135C253.237 76.4652 252.712 78.2513 252.412 79.9249C252.112 81.5985 252.215 83.6471 253.64 84.5754C254.74 83.5873 255.723 82.4769 256.57 81.2657Z" fill="#263238"/>
<path d="M247.349 56.8883C243.909 54.3263 240.005 52.4557 235.854 51.3799C234.621 51.0612 233.285 50.8174 232.103 51.3002C231.067 51.7222 230.317 52.6316 229.67 53.5505C227.655 56.4148 226.286 60.723 225.451 64.1359L227.467 68.8238C230.669 70.1505 232.821 64.525 234.4 62.0638C235.666 62.3159 236.976 62.2079 238.183 61.7521C239.389 61.2962 240.444 60.5109 241.226 59.4854C242.376 59.5425 243.525 59.3386 244.585 58.8888C245.645 58.439 246.59 57.7551 247.349 56.8883Z" fill="#263238"/>
<path d="M228.179 67.7686C229.248 66.0622 227.476 64.3042 225.474 64.1354C224.377 64.0417 223.13 64.5339 221.991 66.3341C218.935 71.1252 224.377 73.2113 224.476 73.0753C224.574 72.9394 226.928 69.761 228.179 67.7686Z" fill="#FFBF9D"/>
<path d="M224.165 70.3283C224.165 70.2955 224.043 70.3283 223.86 70.3283C223.607 70.2874 223.38 70.1495 223.227 69.9439C222.838 69.4329 222.927 68.3594 223.452 67.478C223.703 67.0597 224.044 66.7025 224.451 66.4326C224.591 66.3119 224.759 66.227 224.939 66.1854C225.12 66.1437 225.308 66.1465 225.487 66.1935C225.599 66.2289 225.696 66.3028 225.759 66.4023C225.823 66.5017 225.849 66.6204 225.834 66.7373C225.834 66.9108 225.721 66.9858 225.745 67.0139C225.768 67.0421 225.895 67.0139 225.984 66.7748C226.031 66.6382 226.031 66.4895 225.984 66.3529C225.915 66.1691 225.777 66.0195 225.599 65.9357C225.377 65.8508 225.138 65.8234 224.902 65.8562C224.667 65.889 224.444 65.9809 224.254 66.1232C223.783 66.4071 223.39 66.8034 223.11 67.2765C222.524 68.2609 222.44 69.4798 223.007 70.122C223.112 70.2414 223.242 70.3357 223.388 70.3982C223.534 70.4606 223.692 70.4896 223.851 70.483C224.08 70.4361 224.174 70.3471 224.165 70.3283Z" fill="#FF9A6C"/>
<path d="M222.252 71.8944C222.252 71.8944 222.252 71.8944 222.196 71.946C222.14 71.9969 222.077 72.0395 222.008 72.0726C221.735 72.2074 221.423 72.2406 221.127 72.1663C220.655 72.0654 220.21 71.8675 219.819 71.585C219.567 71.412 219.332 71.2158 219.116 70.999C218.862 70.7594 218.649 70.4809 218.483 70.1739H218.558C218.214 70.5193 217.787 70.7695 217.317 70.8999C216.848 71.0303 216.352 71.0365 215.88 70.9178C215.407 70.7992 214.973 70.5598 214.621 70.2231C214.269 69.8865 214.01 69.464 213.87 68.9973L213.959 69.0394C213.668 69.146 213.346 69.1342 213.064 69.0066C212.778 68.8778 212.536 68.6695 212.365 68.4066C212.182 68.1299 212.094 67.8003 212.117 67.469C212.14 67.1347 212.248 66.8119 212.431 66.5314C212.812 65.9622 213.381 65.5456 214.039 65.3547C214.713 65.1702 215.407 65.0679 216.106 65.05L216.041 65.1625C215.936 64.9041 215.887 64.6265 215.897 64.3479C215.906 64.0692 215.975 63.7957 216.097 63.5452C216.335 63.0235 216.721 62.5833 217.208 62.2794C217.712 61.987 218.267 61.7944 218.844 61.7122C219.425 61.6291 220.011 61.5837 220.597 61.5762L220.518 61.6747C220.48 61.378 220.506 61.0768 220.594 60.7908C220.681 60.5049 220.827 60.2405 221.024 60.0151C221.417 59.5408 221.942 59.1947 222.533 59.0213C223.668 58.6931 224.83 58.8947 225.909 59.0729L225.815 59.1291C226.038 58.5596 226.397 58.0533 226.86 57.6542C227.324 57.2551 227.878 56.9754 228.474 56.8395C229.07 56.7036 229.691 56.7156 230.281 56.8745C230.872 57.0333 231.415 57.3342 231.862 57.7509L231.736 57.779C231.947 57.3292 232.258 56.9339 232.646 56.6234C233.033 56.3129 233.487 56.0956 233.972 55.9882C234.419 55.8717 234.886 55.8532 235.341 55.9342C235.795 56.0151 236.227 56.1934 236.607 56.457H236.508C236.802 56.0725 237.179 55.7597 237.611 55.5421C238.043 55.3245 238.519 55.2077 239.002 55.2006C239.425 55.1806 239.848 55.2463 240.245 55.3937C240.642 55.5411 241.006 55.7673 241.313 56.0585H241.224C241.552 55.6574 241.974 55.3434 242.453 55.1444C242.866 54.958 243.308 54.8438 243.76 54.8068C244.483 54.7268 245.211 54.8919 245.828 55.2756L246.006 55.3881C246.062 55.4303 246.114 55.4772 246.161 55.5194C246.254 55.596 246.343 55.6774 246.428 55.7632C246.556 55.901 246.674 56.0483 246.78 56.2038C246.855 56.3304 246.911 56.4289 246.958 56.4992L247.014 56.6023C246.987 56.5736 246.964 56.5422 246.944 56.5085L246.751 56.2226C246.643 56.0721 246.524 55.9295 246.395 55.796C246.311 55.7121 246.222 55.6338 246.128 55.5616L245.973 55.435L245.795 55.3272C245.184 54.9683 244.473 54.8201 243.77 54.9053C243.329 54.9498 242.898 55.067 242.495 55.2522C242.034 55.4439 241.63 55.7487 241.318 56.1382L241.276 56.1898L241.234 56.1429C240.937 55.8644 240.586 55.6493 240.203 55.5107C239.82 55.3721 239.413 55.3128 239.007 55.3366C238.538 55.349 238.079 55.4693 237.664 55.688C237.25 55.9067 236.891 56.2179 236.616 56.5976L236.574 56.6586L236.518 56.6164C236.153 56.3693 235.739 56.204 235.305 56.132C234.87 56.06 234.425 56.0829 234 56.1991C233.539 56.302 233.107 56.5093 232.738 56.8051C232.369 57.1009 232.073 57.4774 231.872 57.9056L231.825 58.0087L231.745 57.9337C231.315 57.5403 230.796 57.257 230.232 57.1083C229.668 56.9596 229.077 56.9498 228.509 57.0798C227.94 57.2097 227.412 57.4756 226.969 57.8546C226.526 58.2336 226.181 58.7144 225.965 59.2557V59.3213H225.895C224.816 59.1432 223.682 58.951 222.613 59.2651C222.062 59.4316 221.572 59.7579 221.207 60.2027C221.025 60.4097 220.889 60.653 220.808 60.9164C220.727 61.1799 220.703 61.4575 220.738 61.7309V61.8247H220.639C219.477 61.8575 218.295 61.9184 217.334 62.4998C216.875 62.7826 216.509 63.1953 216.284 63.6858C216.171 63.9155 216.107 64.1664 216.096 64.4224C216.086 64.6784 216.129 64.9337 216.223 65.1719L216.27 65.2797H216.153C215.467 65.2952 214.785 65.3944 214.123 65.575C213.499 65.7511 212.957 66.1432 212.595 66.6814C212.417 66.9237 212.315 67.2134 212.301 67.5139C212.288 67.8143 212.364 68.1119 212.52 68.3691C212.657 68.6139 212.873 68.805 213.133 68.9114C213.392 69.0178 213.68 69.0332 213.95 68.9551L214.015 68.9316L214.039 69.0019C214.193 69.4824 214.476 69.9113 214.857 70.2419C215.238 70.5726 215.703 70.7923 216.2 70.8771C216.622 70.9407 217.052 70.9065 217.459 70.7773C217.865 70.648 218.236 70.4272 218.544 70.1317L218.591 70.0849L218.619 70.1411C218.778 70.4405 218.982 70.7139 219.224 70.9521C219.435 71.1672 219.665 71.3618 219.913 71.5334C220.294 71.8155 220.727 72.018 221.188 72.1288C221.475 72.2039 221.778 72.1808 222.051 72.0632C222.172 71.96 222.247 71.885 222.252 71.8944Z" fill="#455A64"/>
<path d="M208.279 54.2953C208.273 54.1603 208.282 54.025 208.307 53.8922C208.37 53.5055 208.51 53.1355 208.72 52.8046C209.047 52.2696 209.541 51.8577 210.126 51.6326C210.52 51.4864 210.939 51.4238 211.358 51.4488C211.777 51.4738 212.186 51.5859 212.559 51.7779H212.484C212.896 50.8848 213.632 50.1812 214.542 49.809C215.044 49.5933 215.586 49.4878 216.132 49.4996C216.703 49.5527 217.268 49.6594 217.819 49.8183C218.102 49.8855 218.392 49.9108 218.682 49.8933C218.975 49.8721 219.259 49.7822 219.512 49.6308C220.037 49.3402 220.477 48.8667 221.077 48.576C221.707 48.2914 222.408 48.2022 223.089 48.32C223.77 48.4379 224.4 48.7573 224.898 49.237H224.762C225.086 48.6201 225.547 48.0858 226.11 47.6757C226.674 47.2656 227.324 46.9905 228.01 46.8717C228.697 46.753 229.402 46.7938 230.07 46.991C230.738 47.1881 231.352 47.5364 231.864 48.0088H231.733C232.113 47.3461 232.675 46.8063 233.353 46.4534C234.031 46.1006 234.795 45.9495 235.556 46.0181C236.317 46.0867 237.043 46.3721 237.646 46.8404C238.25 47.3087 238.706 47.9404 238.962 48.6604L238.882 48.6135C239.66 48.505 240.451 48.5658 241.203 48.7917C241.876 48.9806 242.521 49.2548 243.125 49.6074C244.113 50.1649 244.992 50.8953 245.722 51.7638C246.198 52.312 246.581 52.9343 246.856 53.6062C246.93 53.7826 246.989 53.9644 247.035 54.15C247.054 54.2114 247.07 54.274 247.081 54.3375C247.081 54.3375 247.006 54.0844 246.819 53.625C246.527 52.9664 246.137 52.3562 245.661 51.8154C244.928 50.966 244.05 50.2534 243.069 49.7105C242.471 49.3646 241.832 49.0983 241.165 48.9182C240.432 48.7047 239.662 48.6488 238.906 48.7542H238.849V48.6979C238.597 48.0115 238.153 47.4115 237.571 46.9686C236.989 46.5256 236.293 46.2581 235.564 46.1975C234.835 46.137 234.104 46.2858 233.457 46.6266C232.81 46.9674 232.274 47.486 231.911 48.1213L231.86 48.2151L231.78 48.1447C231.286 47.6825 230.691 47.3412 230.043 47.1475C229.394 46.9538 228.71 46.913 228.043 47.0284C227.376 47.1438 226.745 47.4121 226.199 47.8124C225.654 48.2127 225.208 48.7341 224.898 49.3355L224.842 49.4386L224.762 49.3542C224.288 48.9036 223.691 48.6049 223.046 48.4963C222.401 48.3877 221.738 48.4742 221.143 48.7448C220.576 49.012 220.135 49.4808 219.582 49.7949C219.308 49.954 219.002 50.0485 218.687 50.0715C218.384 50.0865 218.081 50.058 217.786 49.9871C217.243 49.8302 216.686 49.7235 216.122 49.6683C215.597 49.6516 215.074 49.7491 214.589 49.9543C213.709 50.3052 212.992 50.9746 212.583 51.8295L212.555 51.8857L212.503 51.8576C212.145 51.6699 211.751 51.5588 211.348 51.5314C210.944 51.5039 210.54 51.5608 210.159 51.6982C209.58 51.9077 209.086 52.3013 208.753 52.8186C208.543 53.1411 208.396 53.5007 208.321 53.8781C208.289 54.1547 208.289 54.2953 208.279 54.2953Z" fill="#455A64"/>
<path d="M251.392 87.3643C251.405 87.2841 251.434 87.2076 251.479 87.1397C251.523 87.0718 251.582 87.0141 251.65 86.9705C251.813 86.8633 252 86.7988 252.194 86.783C252.457 86.7736 252.72 86.8166 252.967 86.9096C253.268 87.0261 253.584 87.1002 253.905 87.1299C254.285 87.1252 254.654 86.9968 254.955 86.7642C255.309 86.5019 255.607 86.1721 255.832 85.7938C256.09 85.4047 256.3 84.9594 256.633 84.5281C257.257 83.6468 258.265 83.0279 259.184 82.231C259.664 81.8246 260.058 81.3255 260.341 80.7637C260.494 80.4733 260.583 80.1533 260.601 79.8256C260.618 79.4979 260.565 79.1703 260.445 78.865C260.109 78.246 259.7 77.6699 259.226 77.1493C258.99 76.8554 258.804 76.5243 258.677 76.1695C258.563 75.7972 258.544 75.4025 258.621 75.0209C258.819 74.2735 259.096 73.5491 259.446 72.8598C259.605 72.5103 259.711 72.139 259.76 71.7581C259.799 71.3781 259.711 70.9961 259.512 70.6705C259.175 70.2611 258.789 69.8943 258.363 69.5782C258.154 69.3991 257.975 69.1869 257.833 68.95C257.697 68.707 257.629 68.4316 257.637 68.1531C257.685 67.6303 257.808 67.1173 258.002 66.6295C258.164 66.1616 258.223 65.6643 258.176 65.1715C258.136 64.702 257.999 64.2457 257.774 63.8318C257.549 63.4178 257.24 63.0551 256.868 62.7666C256.164 62.2285 255.284 61.9757 254.402 62.0587H254.299V61.9556C254.445 61.2018 254.428 60.4255 254.25 59.6785C254.072 58.9316 253.737 58.2311 253.267 57.6239C252.873 57.119 252.384 56.6955 251.828 56.3769C251.359 56.1012 250.845 55.9107 250.309 55.8144C249.553 55.6863 248.775 55.7774 248.068 56.0769C247.882 56.1529 247.701 56.2438 247.529 56.3488L247.393 56.4191H247.342L247.384 56.3863L247.515 56.3019C247.686 56.1902 247.866 56.0945 248.054 56.016C248.763 55.6906 249.553 55.5829 250.323 55.7066C250.872 55.7955 251.4 55.9846 251.88 56.2644C252.452 56.5849 252.956 57.0132 253.366 57.5255C253.852 58.1459 254.199 58.8629 254.385 59.6286C254.571 60.3943 254.591 61.1909 254.444 61.965L254.36 61.8759C255.28 61.7818 256.202 62.0416 256.938 62.6025C257.334 62.9016 257.664 63.2798 257.906 63.7132C258.148 64.1467 258.298 64.6257 258.344 65.12C258.393 65.6332 258.332 66.1508 258.166 66.6389C257.979 67.1123 257.858 67.6092 257.805 68.1156C257.813 68.3684 257.877 68.6164 257.993 68.8412C258.109 69.0659 258.274 69.2618 258.476 69.4141C258.917 69.7356 259.314 70.1139 259.657 70.5392C259.875 70.8976 259.971 71.3172 259.929 71.7347C259.882 72.1336 259.773 72.5228 259.605 72.8879C259.26 73.5669 258.987 74.2802 258.79 75.0162C258.713 75.3691 258.73 75.7356 258.837 76.0804C258.958 76.4193 259.133 76.7361 259.357 77.018C259.84 77.5485 260.254 78.1376 260.59 78.7713C260.73 79.0992 260.787 79.4569 260.754 79.812C260.723 80.1543 260.629 80.488 260.477 80.7965C260.186 81.3757 259.779 81.8894 259.282 82.306C258.344 83.1123 257.341 83.7124 256.732 84.5656C256.427 84.9875 256.188 85.4282 255.925 85.822C255.679 86.2087 255.361 86.5445 254.988 86.8111C254.668 87.0517 254.277 87.1802 253.877 87.1768C253.554 87.1463 253.238 87.0673 252.939 86.9424C252.701 86.8464 252.446 86.7986 252.189 86.8017C252.002 86.8112 251.819 86.8676 251.659 86.9658C251.525 87.0621 251.43 87.2036 251.392 87.3643Z" fill="#455A64"/>
<path d="M265.484 86.6941C265.477 86.6537 265.477 86.6126 265.484 86.5722L265.545 86.2206C265.601 85.9065 265.685 85.4565 265.793 84.8799C265.901 84.3033 266.051 83.5907 266.145 82.7562C266.292 81.82 266.172 80.8612 265.798 79.9903C265.573 79.5215 265.24 79.0528 264.945 78.584C264.789 78.3276 264.667 78.0517 264.584 77.7636C264.494 77.4588 264.482 77.1369 264.546 76.826C264.673 76.1931 265.057 75.6446 265.24 75.0258C265.334 74.7203 265.334 74.3937 265.24 74.0882C265.125 73.7695 264.959 73.4718 264.748 73.2069C264.524 72.9256 264.326 72.6243 264.157 72.3068C263.992 71.9647 263.936 71.58 263.998 71.2051C264.203 70.477 264.506 69.78 264.898 69.133C265.072 68.8032 265.176 68.4409 265.202 68.0689C265.208 67.8838 265.177 67.6996 265.111 67.5266C265.045 67.3536 264.945 67.1954 264.818 67.061C264.302 66.4937 263.501 66.2359 262.905 65.6546C262.611 65.3503 262.42 64.9619 262.357 64.5435C262.31 64.1433 262.31 63.739 262.357 63.3387C262.39 62.9449 262.432 62.5558 262.427 62.1761C262.432 61.8054 262.343 61.4396 262.169 61.112C261.804 60.4603 261.082 60.1462 260.416 59.8696C259.717 59.6393 259.077 59.2584 258.541 58.7539C258.094 58.2247 257.75 57.6176 257.524 56.9631C257.332 56.3502 257.082 55.7568 256.778 55.1911C256.11 54.2555 255.18 53.538 254.106 53.1284C253.225 52.781 252.276 52.6383 251.331 52.7111C250.618 52.7735 249.919 52.9459 249.259 53.2221C248.844 53.4029 248.445 53.6193 248.068 53.8691L247.768 54.0566L247.66 54.1175L247.759 54.0425L248.049 53.8363C248.423 53.5749 248.82 53.3489 249.235 53.1612C249.899 52.8695 250.605 52.6844 251.326 52.6127C252.282 52.5305 253.244 52.6684 254.139 53.0159C255.24 53.428 256.194 54.1572 256.881 55.1114C257.216 55.667 257.496 56.2543 257.716 56.8647C257.939 57.4998 258.276 58.0891 258.71 58.6039C259.227 59.0863 259.843 59.451 260.515 59.6728C260.862 59.8111 261.199 59.9757 261.522 60.165C261.869 60.3593 262.156 60.6453 262.351 60.9918C262.546 61.3383 262.642 61.7318 262.629 62.1292C262.628 62.5239 262.606 62.9183 262.563 63.3106C262.516 63.6967 262.516 64.0871 262.563 64.4732C262.616 64.8565 262.79 65.2129 263.06 65.4905C263.613 66.0484 264.415 66.3062 264.977 66.8969C265.263 67.2024 265.417 67.6085 265.404 68.0267C265.377 68.4219 265.267 68.8069 265.081 69.1565C264.757 69.8503 264.312 70.4785 264.195 71.1817C264.136 71.5261 264.187 71.8803 264.34 72.1943C264.502 72.5029 264.692 72.7963 264.907 73.0709C265.132 73.351 265.307 73.6683 265.423 74.0085C265.528 74.3458 265.528 74.7073 265.423 75.0446C265.226 75.6962 264.846 76.2353 264.724 76.8307C264.632 77.4144 264.766 78.0115 265.099 78.4996C265.381 78.9965 265.718 79.4372 265.948 79.9341C266.319 80.8222 266.434 81.7966 266.281 82.7469C266.178 83.586 266.009 84.2939 265.896 84.8752C265.784 85.4565 265.681 85.8925 265.615 86.2113C265.582 86.3566 265.559 86.4691 265.54 86.5582C265.527 86.6057 265.508 86.6514 265.484 86.6941Z" fill="#455A64"/>
<path d="M264.066 78.3354L264.159 78.3823C264.246 78.4407 264.317 78.5196 264.366 78.612C264.439 78.7997 264.465 79.0024 264.442 79.2026C264.419 79.4027 264.348 79.5943 264.234 79.7606C264.064 79.9912 263.864 80.1978 263.639 80.3747C263.374 80.5787 263.139 80.8185 262.94 81.0873C262.752 81.4171 262.654 81.7905 262.654 82.1702C262.654 82.5781 262.654 83.014 262.608 83.4781C262.59 83.7273 262.516 83.9692 262.391 84.1854C262.266 84.4015 262.093 84.5862 261.886 84.7251C261.454 85.0111 260.948 85.133 260.503 85.4283C260.076 85.7638 259.794 86.2505 259.715 86.7878C259.589 87.3363 259.551 87.9317 259.387 88.5271C259.311 88.8331 259.179 89.1224 258.998 89.3803C258.802 89.6393 258.555 89.8548 258.271 90.0131C257.686 90.2963 257.075 90.5239 256.448 90.6929C255.815 90.8566 255.266 91.2513 254.91 91.7993C254.644 92.4259 254.453 93.0822 254.343 93.7541C254.255 94.1014 254.106 94.4302 253.902 94.7245C253.685 95.0088 253.406 95.2397 253.086 95.3996C252.465 95.6659 251.816 95.8593 251.15 95.9762C250.525 96.0963 249.93 96.3419 249.402 96.6982C248.923 97.0961 248.417 97.4596 247.887 97.7858C247.616 97.9361 247.312 98.0197 247.001 98.0295C246.702 98.0293 246.406 97.9769 246.125 97.8748C245.862 97.7814 245.595 97.7031 245.323 97.6404C245.06 97.5976 244.792 97.5897 244.526 97.617C244.022 97.7005 243.53 97.8486 243.063 98.0577C242.595 98.2499 242.163 98.4421 241.723 98.5874C240.925 98.8523 240.064 98.8523 239.266 98.5874C238.666 98.4001 238.117 98.0796 237.658 97.6498C237.37 97.3775 237.126 97.061 236.936 96.7122C236.87 96.5921 236.813 96.4667 236.768 96.3372C237.001 96.8096 237.319 97.2354 237.705 97.5936C238.162 98.0078 238.704 98.3152 239.294 98.4936C240.076 98.7329 240.914 98.7165 241.685 98.4468C242.117 98.3014 242.548 98.1092 243.012 97.9123C243.489 97.6906 243.994 97.5329 244.512 97.4436C244.789 97.4038 245.07 97.4038 245.347 97.4436C245.625 97.5046 245.899 97.5829 246.167 97.6779C246.433 97.7745 246.714 97.8237 246.997 97.8233C247.284 97.8107 247.565 97.7321 247.817 97.5936C248.338 97.2664 248.836 96.9046 249.308 96.5106C249.851 96.1417 250.463 95.8866 251.108 95.7606C251.753 95.6429 252.382 95.451 252.983 95.1886C253.28 95.0427 253.539 94.8292 253.738 94.5651C253.931 94.2906 254.071 93.982 254.151 93.6557C254.265 92.9688 254.461 92.2982 254.737 91.6586C254.909 91.3541 255.154 91.0966 255.449 90.9085C255.743 90.727 256.058 90.5821 256.387 90.4773C257.001 90.3292 257.601 90.13 258.182 89.8819C258.444 89.7318 258.674 89.531 258.857 89.2912C259.027 89.0481 259.153 88.7766 259.228 88.4896C259.387 87.9176 259.424 87.3269 259.556 86.7644C259.646 86.1909 259.953 85.674 260.414 85.3205C260.882 85.0064 261.398 84.8892 261.82 84.622C262.013 84.495 262.174 84.3253 262.291 84.1262C262.408 83.9271 262.478 83.7038 262.495 83.4734C262.551 83.0328 262.523 82.5921 262.551 82.1796C262.556 81.7814 262.666 81.3916 262.87 81.0498C263.074 80.7752 263.317 80.532 263.592 80.3278C263.817 80.1602 264.018 79.9613 264.187 79.7371C264.3 79.5804 264.373 79.3987 264.4 79.2077C264.426 79.0166 264.407 78.8219 264.342 78.6402C264.281 78.5141 264.185 78.4082 264.066 78.3354Z" fill="#455A64"/>
<path d="M235.708 80.539C235.879 80.437 236.082 80.4045 236.275 80.4481C236.469 80.4917 236.639 80.6082 236.749 80.7734C237.452 81.8188 238.155 82.8642 238.863 83.9143L239.102 84.2613C238.534 84.7514 237.903 85.1643 237.227 85.4895C236.933 85.6259 236.613 85.6965 236.29 85.6965C235.966 85.6965 235.646 85.6259 235.352 85.4895C234.903 85.2115 234.555 84.7976 234.358 84.3081C234.035 83.5159 233.772 82.7048 234.133 81.9313C234.396 81.3641 235.211 80.8578 235.708 80.539Z" fill="#FF9A6C"/>
<path d="M220.081 69.1707C219.764 69.0845 219.434 69.0513 219.106 69.0723C218.194 69.1132 217.326 69.479 216.659 70.1036C216.193 70.5278 215.832 71.0541 215.604 71.6413C215.354 72.3195 215.268 73.047 215.351 73.7649C215.438 74.5605 215.727 75.3206 216.19 75.9729C216.694 76.675 217.398 77.2079 218.211 77.5012C219.018 77.8027 219.894 77.871 220.738 77.6981C221.525 77.5357 222.248 77.1481 222.819 76.5824C223.301 76.1084 223.667 75.53 223.89 74.8919C224.112 74.2539 224.186 73.5731 224.104 72.9023C224.015 72.3917 223.826 71.9038 223.546 71.4678C223.343 71.1367 223.095 70.8354 222.81 70.5724C222.628 70.4075 222.422 70.27 222.2 70.1646C222.125 70.1227 222.042 70.0971 221.956 70.0896C222.25 70.2255 222.518 70.411 222.749 70.6381C223.379 71.2545 223.8 72.0529 223.954 72.9211C224.021 73.5662 223.942 74.2182 223.721 74.8281C223.5 75.4379 223.144 75.9897 222.678 76.4417C222.132 76.9751 221.444 77.3397 220.695 77.4918C219.889 77.6504 219.055 77.5822 218.286 77.2949C217.515 77.0172 216.845 76.5141 216.364 75.8511C215.918 75.2283 215.637 74.5024 215.548 73.7415C215.463 73.0535 215.54 72.3551 215.773 71.7022C215.985 71.138 216.324 70.6297 216.762 70.2161C217.4 69.6068 218.227 69.2331 219.106 69.1567C219.744 69.1145 220.077 69.1989 220.081 69.1707Z" fill="#E0E0E0"/>
<path d="M239.062 72.8601C238.888 73.1314 238.615 73.3237 238.301 73.3956C237.988 73.4675 237.658 73.4132 237.384 73.2445C237.245 73.17 237.122 73.0685 237.023 72.9458C236.923 72.823 236.85 72.6817 236.806 72.5301C236.762 72.3784 236.749 72.2196 236.768 72.0629C236.787 71.9062 236.837 71.7549 236.915 71.6178C237.089 71.3474 237.362 71.1559 237.676 71.0841C237.989 71.0123 238.319 71.0659 238.593 71.2334C238.733 71.3069 238.857 71.4079 238.957 71.5305C239.057 71.6531 239.131 71.7947 239.175 71.9467C239.219 72.0986 239.231 72.2579 239.212 72.4149C239.192 72.5719 239.141 72.7233 239.062 72.8601Z" fill="#263238"/>
<path d="M248.859 79.6998C248.684 79.9692 248.411 80.1599 248.098 80.2316C247.785 80.3034 247.456 80.2505 247.181 80.0842C247.042 80.0093 246.919 79.9072 246.819 79.7841C246.72 79.661 246.646 79.5192 246.603 79.3672C246.559 79.2152 246.546 79.056 246.565 78.899C246.584 78.7419 246.634 78.5902 246.712 78.4528C246.887 78.1834 247.16 77.9926 247.473 77.9209C247.787 77.8492 248.115 77.902 248.39 78.0684C248.53 78.1433 248.652 78.2453 248.752 78.3684C248.851 78.4916 248.925 78.6333 248.968 78.7853C249.012 78.9373 249.025 79.0965 249.006 79.2536C248.987 79.4106 248.937 79.5623 248.859 79.6998Z" fill="#263238"/>
<path d="M251.661 76.9994C251.459 77.0838 251.07 76.0103 250.011 75.4102C248.951 74.8101 247.831 74.993 247.803 74.7726C247.803 74.6742 248.056 74.4726 248.553 74.3788C249.194 74.2616 249.856 74.3759 250.421 74.7013C250.986 75.0267 251.417 75.542 251.637 76.1556C251.802 76.6338 251.759 76.9666 251.661 76.9994Z" fill="#263238"/>
<path d="M241.708 71.0319C241.459 71.0882 241.094 69.8271 239.903 68.9833C238.712 68.1394 237.4 68.1629 237.381 67.9144C237.381 67.7972 237.7 67.6191 238.29 67.591C239.063 67.5716 239.82 67.8054 240.447 68.2566C241.069 68.7033 241.525 69.3451 241.741 70.0803C241.895 70.6616 241.82 71.0085 241.708 71.0319Z" fill="#263238"/>
<path d="M236.269 85.5832C236.269 85.5832 236.1 85.6488 235.8 85.5832C235.36 85.4764 234.964 85.2356 234.666 84.894C234.211 84.4021 233.909 83.7878 233.799 83.1267C233.727 82.7223 233.773 82.3059 233.93 81.9266C234.11 81.5324 234.378 81.1845 234.713 80.9093C235.033 80.6424 235.384 80.4143 235.758 80.2295C235.862 80.1649 235.979 80.1234 236.1 80.108C236.221 80.0927 236.345 80.1037 236.461 80.1405C236.664 80.242 236.829 80.4065 236.93 80.6093L237.943 82.2219C238.276 82.7117 238.554 83.2368 238.773 83.7877C238.361 83.3608 238 82.8891 237.694 82.3813C237.357 81.9125 236.996 81.3734 236.611 80.8155C236.405 80.478 236.255 80.3983 235.918 80.5811C235.572 80.7593 235.246 80.9747 234.947 81.2234C234.658 81.4361 234.43 81.7217 234.287 82.051C234.143 82.3804 234.09 82.7418 234.131 83.0986C234.224 83.698 234.473 84.2624 234.853 84.7347C235.109 85.0577 235.445 85.3069 235.829 85.4566C236.1 85.5457 236.274 85.5504 236.269 85.5832Z" fill="#263238"/>
<path d="M278.739 67.3471C278.561 66.7744 278.316 66.2251 278.008 65.711C277.624 65.1277 277.135 64.6219 276.564 64.2202C275.814 63.6909 274.934 63.375 274.018 63.306H273.873V63.156C273.963 61.9389 273.574 60.7347 272.79 59.7995C272.361 59.2478 271.815 58.7978 271.192 58.4817C270.569 58.1656 269.883 57.9913 269.185 57.9711H269.002V57.7883C268.963 55.826 268.173 53.9535 266.794 52.5566C265.714 51.4757 264.325 50.758 262.819 50.5032C261.442 50.2641 260.027 50.4068 258.726 50.9158L258.642 50.9486L258.562 50.897C257.241 50.0111 255.75 49.4107 254.183 49.1344C252.965 48.9088 251.718 48.8756 250.489 49.0359C249.408 49.2004 248.346 49.4753 247.32 49.8563C247.32 49.8563 247.381 49.8094 247.513 49.7438C247.644 49.6782 247.841 49.575 248.103 49.4719C248.859 49.1725 249.645 48.9571 250.447 48.8296C251.697 48.6277 252.971 48.6277 254.221 48.8296C255.836 49.0925 257.378 49.6932 258.745 50.5923H258.581C259.938 50.0414 261.421 49.879 262.866 50.1235C264.452 50.3805 265.917 51.1319 267.052 52.2706C268.503 53.7361 269.33 55.7072 269.358 57.7696L269.176 57.5867C269.927 57.6122 270.663 57.8037 271.332 58.1473C272.001 58.491 272.585 58.9783 273.043 59.5744C273.873 60.5767 274.277 61.8641 274.168 63.1607L274.037 63.006C275.001 63.089 275.922 63.4416 276.695 64.0233C277.279 64.4503 277.77 64.9909 278.139 65.6125C278.372 66.0027 278.549 66.4241 278.664 66.8642C278.707 67.0218 278.732 67.1838 278.739 67.3471Z" fill="#263238"/>
<path d="M248.708 43.1899C248.223 43.1077 247.762 42.9187 247.358 42.6368C246.784 42.2669 246.291 41.7861 245.906 41.2225C245.521 40.6589 245.253 40.024 245.117 39.3552C244.932 38.4075 245.041 37.4258 245.431 36.5424C245.874 35.5225 246.627 34.6679 247.583 34.1C248.667 33.4888 249.945 33.3192 251.151 33.6265C252.469 33.9335 253.614 34.7468 254.338 35.8908L254.127 35.8017C254.95 35.6072 255.814 35.7016 256.575 36.0689C257.226 36.3623 257.783 36.8315 258.182 37.4238C258.551 38.0072 258.735 38.6889 258.708 39.3786C258.69 40.0274 258.507 40.6609 258.174 41.2183C257.842 41.7757 257.372 42.2383 256.809 42.5618L256.739 42.2242C257.245 42.2834 257.729 42.4661 258.149 42.7563C258.568 43.0465 258.91 43.4353 259.144 43.8884C259.366 44.2909 259.5 44.7365 259.536 45.1951C259.571 45.6536 259.508 46.1145 259.35 46.5465C259.089 47.2459 258.643 47.8615 258.061 48.3279C257.478 48.7943 256.78 49.094 256.04 49.1952C255.082 49.3245 254.107 49.1799 253.227 48.778C252.996 48.6785 252.773 48.5593 252.562 48.4217C252.421 48.3232 252.351 48.2717 252.355 48.2623C252.36 48.2529 252.665 48.4404 253.27 48.6702C254.131 49.0123 255.068 49.1175 255.984 48.9749C256.673 48.8664 257.32 48.5746 257.858 48.1301C258.396 47.6856 258.804 47.1046 259.04 46.4481C259.178 46.0567 259.231 45.6402 259.193 45.2268C259.156 44.8135 259.03 44.413 258.825 44.0525C258.615 43.6515 258.311 43.3078 257.939 43.0512C257.566 42.7947 257.136 42.6331 256.687 42.5805L256.082 42.5336L256.612 42.243C257.116 41.9483 257.537 41.5296 257.834 41.0267C258.131 40.5237 258.295 39.9532 258.309 39.3693C258.33 38.7557 258.167 38.15 257.84 37.63C257.491 37.105 257.004 36.6852 256.434 36.4158C255.753 36.087 254.981 36.001 254.245 36.1721L254.109 36.2096L254.034 36.0877C253.365 35.0285 252.308 34.273 251.09 33.9828C249.969 33.693 248.779 33.8493 247.771 34.4188C246.868 34.943 246.152 35.7363 245.722 36.6877C245.346 37.5102 245.229 38.4271 245.384 39.3177C245.63 40.6137 246.372 41.7626 247.452 42.5196C247.847 42.7843 248.268 43.0089 248.708 43.1899Z" fill="#263238"/>
<path d="M218.178 39.3317C218.179 39.2506 218.191 39.1701 218.215 39.0926C218.267 38.8668 218.338 38.6457 218.426 38.4316C218.756 37.6145 219.262 36.8799 219.908 36.2798C220.893 35.3411 222.17 34.7686 223.527 34.6578C224.385 34.5927 225.248 34.7033 226.062 34.983C226.876 35.2627 227.624 35.7056 228.262 36.2845L228.051 36.2564C229.649 35.4119 231.497 35.1691 233.259 35.5719C234.586 35.8861 235.799 36.5648 236.761 37.5315C237.638 38.413 238.283 39.4988 238.636 40.6912L238.491 40.5693C239.884 40.7644 241.205 41.3096 242.33 42.1538C243.202 42.8018 243.945 43.6081 244.519 44.5306C244.89 45.1259 245.177 45.7695 245.373 46.4433C245.448 46.6794 245.496 46.9231 245.518 47.1699C245.23 46.2829 244.835 45.4343 244.341 44.6431C243.759 43.7638 243.02 42.9994 242.161 42.3882C241.065 41.5954 239.789 41.0879 238.448 40.9115H238.336L238.303 40.8037C237.954 39.6736 237.332 38.6466 236.494 37.8128C235.584 36.8903 234.434 36.2407 233.175 35.9376C231.502 35.5546 229.747 35.7789 228.224 36.5705L228.107 36.6314L228.013 36.5423C227.414 35.9926 226.709 35.5694 225.942 35.2979C225.176 35.0265 224.362 34.9124 223.55 34.9625C222.255 35.0512 221.027 35.5711 220.062 36.4392C219.422 37.0055 218.904 37.6961 218.539 38.4691C218.286 39.0223 218.206 39.341 218.178 39.3317Z" fill="#263238"/>
<path d="M189.432 74.5429C189.432 74.5429 189.938 73.6428 193.843 74.1538C197.748 74.6648 213.218 85.3768 213.218 85.3768C213.218 85.3768 210.406 96.445 218.914 98.5546C225.112 100.092 228.398 98.3624 228.398 98.3624C228.398 98.3624 238.772 111.264 239.621 116.524C239.621 116.524 189.624 151.505 197.739 147.703L189.432 147.797V74.5429Z" fill="#FF725E"/>
<path d="M238.811 114.156C238.947 114.526 240.883 116.833 238.966 127.109C237.222 136.443 229.59 145.861 229.59 145.861L214.373 132.167L238.811 114.156Z" fill="#FF725E"/>
<path d="M230.875 121.474C230.805 121.559 230.727 121.636 230.641 121.704L229.942 122.313C229.323 122.834 228.423 123.579 227.294 124.479C225.039 126.279 221.888 128.722 218.386 131.384C214.884 134.047 211.683 136.433 209.362 138.168L206.606 140.184L205.846 140.723C205.763 140.792 205.672 140.85 205.574 140.896C205.649 140.819 205.731 140.748 205.818 140.685L206.549 140.109L209.259 138.032L218.236 131.211C221.743 128.548 224.907 126.129 227.186 124.362L229.881 122.257L230.608 121.685C230.69 121.607 230.78 121.536 230.875 121.474Z" fill="#263238"/>
<path d="M205.574 33.0828H94.8398V186.993H205.574V33.0828Z" fill="white"/>
<path d="M205.574 33.0828H94.8398V88.7897H205.574V33.0828Z" fill="#6B7CFF"/>
<path d="M194.036 37.5457H174.356C171.436 37.5457 169.068 39.9132 169.068 42.8337V43.3822C169.068 46.3026 171.436 48.6702 174.356 48.6702H194.036C196.957 48.6702 199.324 46.3026 199.324 43.3822V42.8337C199.324 39.9132 196.957 37.5457 194.036 37.5457Z" fill="#263238"/>
<path d="M186.4 102.432C186.4 102.497 171.173 102.554 152.403 102.554C133.632 102.554 118.396 102.497 118.396 102.432C118.396 102.366 133.618 102.31 152.403 102.31C171.188 102.31 186.4 102.361 186.4 102.432Z" fill="#263238"/>
<path d="M186.4 117.433C186.4 117.498 171.173 117.555 152.403 117.555C133.632 117.555 118.396 117.498 118.396 117.433C118.396 117.367 133.618 117.311 152.403 117.311C171.188 117.311 186.4 117.367 186.4 117.433Z" fill="#263238"/>
<path d="M186.4 132.439C186.4 132.504 171.173 132.561 152.403 132.561C133.632 132.561 118.396 132.504 118.396 132.439C118.396 132.373 133.618 132.317 152.403 132.317C171.188 132.317 186.4 132.368 186.4 132.439Z" fill="#263238"/>
<path d="M186.121 149.733H119.603C113.063 149.733 107.762 155.034 107.762 161.574V162.817C107.762 169.357 113.063 174.659 119.603 174.659H186.121C192.661 174.659 197.963 169.357 197.963 162.817V161.574C197.963 155.034 192.661 149.733 186.121 149.733Z" fill="#6B7CFF"/>
<path d="M123.793 80.1734C123.305 80.0604 122.841 79.8603 122.424 79.5828L123.108 78.0498C123.464 78.2793 123.851 78.4561 124.257 78.5748C124.673 78.7046 125.106 78.7726 125.541 78.7764C126.338 78.7764 126.741 78.5748 126.741 78.1764C126.741 78.0722 126.707 77.9709 126.646 77.8868C126.584 77.8027 126.498 77.74 126.399 77.7076C126.043 77.5659 125.674 77.4576 125.298 77.3841C124.82 77.2917 124.35 77.1632 123.891 76.9997C123.521 76.8652 123.19 76.6395 122.93 76.3434C122.651 76.0002 122.509 75.5661 122.532 75.1245C122.526 74.6897 122.655 74.2638 122.902 73.9056C123.177 73.5197 123.558 73.2217 123.999 73.0477C124.57 72.8224 125.181 72.7156 125.794 72.7337C126.276 72.7342 126.755 72.7892 127.224 72.8977C127.66 72.9886 128.079 73.1467 128.467 73.3665L127.824 74.9136C127.203 74.5564 126.502 74.3613 125.785 74.3463C125.472 74.323 125.159 74.3862 124.88 74.5291C124.795 74.5749 124.724 74.6424 124.674 74.7248C124.624 74.8072 124.596 74.9014 124.594 74.9979C124.596 75.0978 124.63 75.1943 124.691 75.2736C124.752 75.3529 124.836 75.4107 124.932 75.4386C125.283 75.5741 125.645 75.6777 126.015 75.748C126.492 75.8406 126.962 75.9675 127.421 76.1277C127.781 76.2699 128.102 76.4948 128.359 76.784C128.644 77.1221 128.788 77.5568 128.762 77.9982C128.766 78.4263 128.639 78.8454 128.396 79.1983C128.115 79.5819 127.732 79.8791 127.29 80.0562C126.721 80.2824 126.111 80.3908 125.499 80.375C124.924 80.3815 124.35 80.3137 123.793 80.1734Z" fill="white"/>
<path d="M131.214 74.5335H128.949V72.8787H135.55V74.5335H133.295V80.2481H131.214V74.5335Z" fill="white"/>
<path d="M140.894 78.8185H137.781L137.2 80.2249H135.076L138.325 72.8555H140.378L143.66 80.2249H141.494L140.894 78.8185ZM140.284 77.2809L139.347 74.9369L138.409 77.2809H140.284Z" fill="white"/>
<path d="M151.241 72.8787V80.2481H149.525L146.272 76.3243V80.2481H144.232V72.8787H145.948L149.197 76.8072V72.8787H151.241Z" fill="white"/>
<path d="M152.705 72.879H156.188C156.93 72.8706 157.664 73.0309 158.335 73.3478C158.934 73.6259 159.439 74.0722 159.789 74.6323C160.126 75.225 160.304 75.8955 160.304 76.5778C160.304 77.26 160.126 77.9305 159.789 78.5233C159.44 79.0844 158.935 79.531 158.335 79.8078C157.665 80.1268 156.93 80.2872 156.188 80.2766H152.705V72.879ZM156.104 78.5842C156.662 78.6106 157.208 78.4189 157.627 78.0498C157.995 77.643 158.199 77.1143 158.199 76.5661C158.199 76.0178 157.995 75.489 157.627 75.0823C157.21 74.7097 156.663 74.5161 156.104 74.5432H154.791V78.5842H156.104Z" fill="white"/>
<path d="M166.24 78.8185H163.127L162.546 80.2249H160.422L163.671 72.8555H165.724L169.006 80.2249H166.816L166.24 78.8185ZM165.63 77.2809L164.693 74.9369L163.755 77.2809H165.63Z" fill="white"/>
<path d="M172.798 78.2883H171.659V80.2479H169.582V72.8784H172.948C173.543 72.8657 174.134 72.9792 174.683 73.2112C175.153 73.4055 175.553 73.7392 175.828 74.1675C176.102 74.5959 176.24 75.0982 176.22 75.6068C176.243 76.0967 176.118 76.5822 175.861 77.0001C175.604 77.4181 175.228 77.7493 174.781 77.9508L176.37 80.2666H174.139L172.798 78.2883ZM173.787 74.8051C173.507 74.5991 173.163 74.4994 172.817 74.5239H171.659V76.6803H172.817C173.163 76.7048 173.507 76.6051 173.787 76.3991C173.897 76.2999 173.983 76.1771 174.039 76.0399C174.095 75.9027 174.12 75.7547 174.111 75.6068C174.121 75.4587 174.098 75.3102 174.045 75.1717C173.991 75.0332 173.908 74.9081 173.801 74.8051H173.787Z" fill="white"/>
<path d="M177.363 72.879H180.832C181.574 72.8706 182.308 73.0309 182.979 73.3478C183.577 73.6273 184.082 74.0733 184.433 74.6323C184.771 75.225 184.948 75.8955 184.948 76.5778C184.948 77.26 184.771 77.9305 184.433 78.5233C184.083 79.0833 183.578 79.5296 182.979 79.8078C182.309 80.1268 181.575 80.2872 180.832 80.2766H177.363V72.879ZM180.762 78.5842C181.319 78.6119 181.864 78.42 182.281 78.0498C182.652 77.6445 182.857 77.1152 182.857 76.5661C182.857 76.0169 182.652 75.4876 182.281 75.0823C181.866 74.7091 181.32 74.5153 180.762 74.5432H179.426V78.5842H180.762Z" fill="white"/>
<path d="M178.487 41.7931C178.623 41.8571 178.744 41.9487 178.842 42.062C178.941 42.1754 179.014 42.308 179.058 42.4514C179.102 42.5948 179.116 42.7458 179.098 42.8948C179.081 43.0438 179.032 43.1875 178.956 43.3167C178.841 43.4847 178.677 43.6138 178.487 43.6871C178.271 43.7799 178.038 43.8247 177.803 43.8183H177.203V44.6387H176.514V41.6619H177.803C178.038 41.6578 178.271 41.7025 178.487 41.7931ZM178.234 43.1245C178.289 43.078 178.332 43.0196 178.36 42.9537C178.389 42.8879 178.402 42.8164 178.398 42.7448C178.403 42.6716 178.391 42.5983 178.362 42.5307C178.334 42.4631 178.29 42.4032 178.234 42.3557C178.098 42.259 177.932 42.2126 177.765 42.2244H177.207V43.2558H177.765C177.927 43.2644 178.088 43.2181 178.22 43.1245H178.234Z" fill="white"/>
<path d="M179.959 44.5215C179.766 44.4306 179.603 44.2856 179.49 44.1042C179.383 43.9191 179.326 43.7089 179.326 43.4948C179.326 43.2808 179.383 43.0705 179.49 42.8854C179.604 42.7051 179.767 42.5606 179.959 42.4681C180.16 42.3696 180.382 42.3184 180.606 42.3184C180.83 42.3184 181.051 42.3696 181.253 42.4681C181.393 42.5426 181.517 42.6445 181.617 42.768C181.717 42.8914 181.791 43.0338 181.835 43.1865C181.879 43.3392 181.891 43.4992 181.872 43.6569C181.852 43.8146 181.801 43.9668 181.722 44.1042C181.608 44.285 181.446 44.4297 181.253 44.5215C181.051 44.62 180.83 44.6712 180.606 44.6712C180.382 44.6712 180.16 44.62 179.959 44.5215ZM181.023 43.9542C181.134 43.8231 181.195 43.657 181.195 43.4854C181.195 43.3138 181.134 43.1477 181.023 43.0166C180.97 42.9595 180.905 42.9144 180.833 42.8845C180.761 42.8546 180.684 42.8405 180.606 42.8432C180.527 42.8407 180.449 42.8549 180.376 42.8848C180.304 42.9147 180.238 42.9596 180.184 43.0166C180.073 43.1477 180.013 43.3138 180.013 43.4854C180.013 43.657 180.073 43.8231 180.184 43.9542C180.238 44.0112 180.304 44.0562 180.376 44.086C180.449 44.1159 180.527 44.1301 180.606 44.1277C180.685 44.1286 180.763 44.1123 180.835 44.0799C180.907 44.0475 180.971 43.9998 181.023 43.9402V43.9542Z" fill="white"/>
<path d="M184.238 42.4635C184.413 42.5582 184.556 42.7015 184.651 42.876C184.749 43.0674 184.801 43.2796 184.801 43.4949C184.801 43.7101 184.749 43.9223 184.651 44.1137C184.556 44.2882 184.413 44.4315 184.238 44.5262C184.062 44.6246 183.863 44.6748 183.661 44.6715C183.533 44.6797 183.405 44.659 183.286 44.6112C183.166 44.5633 183.059 44.4895 182.972 44.3949V45.4638H182.307V42.351H182.94V42.6135C183.029 42.5125 183.141 42.4333 183.266 42.3821C183.391 42.3309 183.527 42.3091 183.661 42.3182C183.863 42.3149 184.062 42.3651 184.238 42.4635ZM183.961 43.9543C184.072 43.8232 184.133 43.6571 184.133 43.4855C184.133 43.3139 184.072 43.1478 183.961 43.0167C183.851 42.9062 183.701 42.8441 183.544 42.8441C183.388 42.8441 183.238 42.9062 183.127 43.0167C183.016 43.1478 182.956 43.3139 182.956 43.4855C182.956 43.6571 183.016 43.8232 183.127 43.9543C183.238 44.0648 183.388 44.1268 183.544 44.1268C183.701 44.1268 183.851 44.0648 183.961 43.9543Z" fill="white"/>
<path d="M187.547 42.3506V44.6384H186.929V44.3665C186.842 44.4648 186.734 44.5432 186.614 44.5962C186.49 44.6475 186.356 44.673 186.221 44.6712C186.09 44.678 185.959 44.6588 185.836 44.6145C185.713 44.5702 185.6 44.5018 185.503 44.4133C185.411 44.3092 185.339 44.1875 185.294 44.0555C185.249 43.9234 185.231 43.7837 185.241 43.6445V42.3506H185.907V43.5461C185.907 43.9164 186.061 44.0992 186.375 44.0992C186.446 44.102 186.516 44.0896 186.582 44.0629C186.647 44.0362 186.706 43.9959 186.755 43.9445C186.863 43.8134 186.915 43.645 186.9 43.4757V42.3459L187.547 42.3506Z" fill="white"/>
<path d="M188.158 41.4834H188.824V44.6384H188.158V41.4834Z" fill="white"/>
<path d="M191.18 42.5712C191.282 42.6688 191.361 42.7882 191.411 42.9205C191.46 43.0528 191.479 43.1946 191.466 43.3353V44.6386H190.847V44.3526C190.771 44.4645 190.666 44.5534 190.543 44.6096C190.419 44.6658 190.283 44.6871 190.149 44.6714C189.988 44.6772 189.828 44.6468 189.68 44.5823C189.561 44.5304 189.458 44.4459 189.385 44.3385C189.317 44.2304 189.281 44.1052 189.281 43.9776C189.279 43.8805 189.3 43.7843 189.342 43.697C189.385 43.6097 189.447 43.5339 189.525 43.476C189.746 43.3376 190.006 43.2736 190.266 43.2931H190.791C190.795 43.2314 190.785 43.1697 190.762 43.1123C190.739 43.0548 190.704 43.0029 190.66 42.9603C190.547 42.8753 190.407 42.8338 190.266 42.8431C190.143 42.8424 190.021 42.863 189.905 42.904C189.796 42.937 189.695 42.9894 189.605 43.0587L189.371 42.5899C189.506 42.4963 189.657 42.4266 189.816 42.3837C189.992 42.3367 190.173 42.3131 190.355 42.3133C190.653 42.292 190.948 42.3841 191.18 42.5712ZM190.618 44.1463C190.705 44.0951 190.77 44.0132 190.8 43.9166V43.6822H190.332C190.06 43.6822 189.924 43.7713 189.924 43.9494C189.922 43.9891 189.931 44.0285 189.949 44.0638C189.967 44.0991 189.994 44.1292 190.027 44.151C190.106 44.2061 190.202 44.2326 190.299 44.226C190.411 44.2321 190.522 44.2043 190.618 44.1463Z" fill="white"/>
<path d="M193.018 42.4022C193.167 42.3434 193.326 42.3148 193.486 42.3179V42.9273H193.336C193.255 42.9226 193.174 42.9342 193.098 42.9616C193.021 42.989 192.951 43.0315 192.891 43.0867C192.834 43.1497 192.789 43.2237 192.761 43.3043C192.733 43.3849 192.721 43.4703 192.727 43.5555V44.6337H192.08V42.346H192.713V42.646C192.792 42.5397 192.897 42.4558 193.018 42.4022Z" fill="white"/>
<path d="M135.963 164.72C135.413 164.429 134.953 163.991 134.636 163.455C134.317 162.899 134.148 162.27 134.148 161.629C134.148 160.988 134.317 160.358 134.636 159.803C134.955 159.269 135.414 158.833 135.963 158.542C136.505 158.268 137.099 158.114 137.706 158.09C138.312 158.066 138.917 158.172 139.479 158.401C139.948 158.6 140.363 158.909 140.688 159.301L139.671 160.239C139.462 159.984 139.198 159.78 138.9 159.642C138.601 159.503 138.275 159.433 137.946 159.437C137.55 159.43 137.159 159.527 136.811 159.718C136.484 159.899 136.214 160.169 136.033 160.497C135.852 160.847 135.757 161.236 135.757 161.631C135.757 162.026 135.852 162.415 136.033 162.765C136.215 163.092 136.484 163.362 136.811 163.544C137.159 163.733 137.55 163.828 137.946 163.82C138.276 163.825 138.603 163.756 138.901 163.616C139.2 163.476 139.464 163.27 139.671 163.014L140.688 163.952C140.362 164.347 139.946 164.659 139.474 164.861C138.962 165.075 138.412 165.181 137.857 165.175C137.198 165.183 136.547 165.026 135.963 164.72Z" fill="white"/>
<path d="M146.427 160.3C146.642 160.533 146.807 160.809 146.911 161.109C147.015 161.409 147.056 161.727 147.032 162.043V165.058H145.504V162.278C145.528 161.943 145.432 161.61 145.232 161.34C145.13 161.234 145.005 161.151 144.868 161.097C144.73 161.044 144.582 161.021 144.435 161.031C144.262 161.021 144.089 161.048 143.927 161.11C143.765 161.172 143.619 161.268 143.497 161.392C143.249 161.687 143.126 162.067 143.155 162.451V165.058H141.627V157.792H143.155V160.337C143.363 160.129 143.615 159.969 143.891 159.868C144.192 159.759 144.509 159.705 144.829 159.709C145.121 159.693 145.414 159.738 145.689 159.839C145.964 159.941 146.215 160.097 146.427 160.3Z" fill="white"/>
<path d="M149.481 164.786C149.052 164.567 148.693 164.233 148.445 163.82C148.192 163.395 148.064 162.908 148.075 162.414C148.066 161.92 148.194 161.433 148.445 161.008C148.695 160.598 149.054 160.265 149.481 160.047C149.942 159.809 150.454 159.69 150.972 159.7C151.489 159.689 152 159.808 152.458 160.047C152.884 160.265 153.241 160.598 153.489 161.008C153.741 161.433 153.869 161.92 153.86 162.414C153.87 162.908 153.742 163.395 153.489 163.82C153.243 164.232 152.886 164.567 152.458 164.786C152 165.024 151.489 165.143 150.972 165.133C150.454 165.143 149.942 165.024 149.481 164.786ZM151.938 163.487C152.18 163.186 152.313 162.81 152.313 162.423C152.313 162.036 152.18 161.661 151.938 161.359C151.813 161.229 151.663 161.127 151.497 161.059C151.33 160.992 151.152 160.96 150.972 160.965C150.792 160.96 150.613 160.993 150.445 161.06C150.278 161.128 150.127 161.23 150.002 161.359C149.756 161.66 149.622 162.035 149.622 162.423C149.622 162.811 149.756 163.187 150.002 163.487C150.127 163.617 150.278 163.718 150.445 163.786C150.613 163.854 150.792 163.886 150.972 163.881C151.152 163.887 151.331 163.854 151.497 163.785C151.664 163.716 151.814 163.613 151.938 163.483V163.487Z" fill="white"/>
<path d="M155.893 164.786C155.465 164.567 155.108 164.233 154.861 163.821C154.608 163.396 154.48 162.908 154.491 162.414C154.482 161.92 154.61 161.433 154.861 161.008C155.109 160.598 155.466 160.265 155.893 160.047C156.359 159.819 156.874 159.711 157.393 159.733C157.909 159.722 158.42 159.841 158.879 160.08C159.303 160.3 159.658 160.632 159.905 161.041C160.157 161.466 160.285 161.953 160.276 162.447C160.286 162.941 160.158 163.428 159.905 163.853C159.66 164.264 159.304 164.599 158.879 164.819C158.42 165.057 157.909 165.176 157.393 165.166C156.869 165.167 156.353 165.037 155.893 164.786ZM158.33 163.483C158.576 163.183 158.709 162.807 158.709 162.419C158.709 162.031 158.576 161.655 158.33 161.355C158.207 161.225 158.057 161.123 157.892 161.055C157.726 160.987 157.548 160.955 157.369 160.961C157.189 160.955 157.009 160.987 156.842 161.055C156.675 161.123 156.524 161.225 156.399 161.355C156.15 161.654 156.014 162.03 156.014 162.419C156.014 162.808 156.15 163.184 156.399 163.483C156.524 163.613 156.675 163.715 156.842 163.783C157.009 163.851 157.189 163.883 157.369 163.877C157.548 163.883 157.726 163.85 157.892 163.783C158.057 163.715 158.207 163.613 158.33 163.483Z" fill="white"/>
<path d="M161.782 164.974C161.429 164.893 161.092 164.755 160.783 164.566L161.294 163.469C161.557 163.633 161.843 163.758 162.143 163.839C162.461 163.931 162.791 163.978 163.122 163.98C163.769 163.98 164.093 163.823 164.093 163.511C164.091 163.435 164.063 163.362 164.015 163.303C163.966 163.245 163.9 163.204 163.826 163.187C163.564 163.101 163.294 163.043 163.019 163.014C162.658 162.963 162.301 162.888 161.95 162.789C161.671 162.699 161.421 162.538 161.224 162.32C161.113 162.192 161.028 162.044 160.975 161.883C160.922 161.722 160.901 161.552 160.914 161.383C160.911 161.063 161.013 160.752 161.205 160.497C161.422 160.221 161.713 160.012 162.044 159.897C162.463 159.744 162.907 159.671 163.352 159.681C163.726 159.68 164.099 159.721 164.463 159.803C164.785 159.864 165.093 159.978 165.377 160.14L164.871 161.228C164.408 160.966 163.884 160.83 163.352 160.834C163.1 160.82 162.847 160.866 162.616 160.97C162.547 161.001 162.488 161.05 162.445 161.112C162.402 161.174 162.377 161.246 162.372 161.322C162.371 161.401 162.397 161.478 162.446 161.54C162.494 161.602 162.563 161.646 162.64 161.664C162.912 161.754 163.194 161.817 163.479 161.851C163.836 161.907 164.19 161.984 164.538 162.081C164.811 162.164 165.057 162.318 165.251 162.526C165.465 162.776 165.575 163.098 165.556 163.427C165.558 163.742 165.454 164.049 165.26 164.299C165.036 164.572 164.738 164.777 164.402 164.889C163.975 165.038 163.524 165.11 163.071 165.1C162.638 165.113 162.204 165.07 161.782 164.974Z" fill="white"/>
<path d="M171.616 162.854H167.636C167.699 163.168 167.881 163.444 168.142 163.628C168.438 163.824 168.787 163.922 169.141 163.909C169.39 163.915 169.638 163.874 169.872 163.787C170.093 163.7 170.294 163.569 170.463 163.403L171.274 164.284C170.997 164.577 170.659 164.805 170.284 164.952C169.908 165.099 169.505 165.16 169.103 165.133C168.556 165.145 168.015 165.026 167.523 164.786C167.086 164.572 166.72 164.237 166.469 163.82C166.216 163.395 166.088 162.908 166.098 162.414C166.09 161.92 166.216 161.434 166.464 161.007C166.704 160.598 167.053 160.264 167.472 160.042C167.913 159.805 168.406 159.686 168.906 159.695C169.396 159.685 169.88 159.799 170.313 160.028C170.724 160.239 171.066 160.564 171.297 160.965C171.542 161.406 171.665 161.905 171.654 162.409C171.654 162.409 171.635 162.601 171.616 162.854ZM168.044 161.162C167.803 161.364 167.649 161.651 167.612 161.964H170.21C170.17 161.652 170.015 161.367 169.776 161.164C169.536 160.961 169.229 160.855 168.916 160.867C168.599 160.856 168.289 160.961 168.044 161.162Z" fill="white"/>
<path d="M111.481 104.963C111.308 104.964 111.141 104.9 111.012 104.785L109.137 103.12C109.067 103.06 109.009 102.986 108.968 102.903C108.927 102.82 108.902 102.73 108.896 102.637C108.89 102.545 108.902 102.452 108.932 102.364C108.963 102.276 109.01 102.196 109.071 102.126C109.195 101.995 109.365 101.916 109.546 101.905C109.726 101.895 109.904 101.954 110.042 102.07L111.415 103.28L114.261 100.139C114.388 100.012 114.559 99.9382 114.739 99.9334C114.919 99.9285 115.094 99.9927 115.228 100.113C115.361 100.233 115.444 100.4 115.459 100.579C115.474 100.758 115.419 100.936 115.306 101.076L111.992 104.733C111.927 104.804 111.849 104.862 111.761 104.901C111.673 104.941 111.578 104.962 111.481 104.963Z" fill="#6B7CFF"/>
<path d="M111.483 119.965C111.311 119.968 111.143 119.906 111.014 119.791L109.139 118.122C109.07 118.061 109.013 117.986 108.973 117.903C108.933 117.819 108.909 117.729 108.904 117.636C108.898 117.544 108.911 117.451 108.941 117.364C108.972 117.276 109.019 117.195 109.081 117.126C109.142 117.057 109.217 117 109.3 116.96C109.384 116.92 109.474 116.896 109.567 116.891C109.753 116.88 109.937 116.943 110.077 117.068L111.45 118.277L114.296 115.131C114.423 115.004 114.594 114.931 114.774 114.926C114.954 114.921 115.129 114.985 115.262 115.105C115.396 115.226 115.479 115.392 115.494 115.572C115.508 115.751 115.454 115.929 115.341 116.069L112.027 119.726C111.96 119.803 111.876 119.865 111.782 119.906C111.688 119.948 111.586 119.968 111.483 119.965Z" fill="#6B7CFF"/>
<path d="M111.483 134.971C111.31 134.972 111.143 134.908 111.014 134.793L109.139 133.128C109.07 133.067 109.013 132.992 108.973 132.909C108.933 132.826 108.909 132.735 108.904 132.643C108.898 132.55 108.911 132.457 108.941 132.37C108.972 132.282 109.019 132.202 109.081 132.132C109.142 132.063 109.217 132.007 109.3 131.966C109.384 131.926 109.474 131.902 109.567 131.897C109.753 131.886 109.937 131.949 110.077 132.074L111.45 133.278L114.296 130.138C114.423 130.01 114.594 129.937 114.774 129.932C114.954 129.927 115.129 129.992 115.262 130.112C115.396 130.232 115.479 130.398 115.494 130.578C115.508 130.757 115.454 130.935 115.341 131.075L112.027 134.732C111.959 134.809 111.876 134.871 111.782 134.912C111.688 134.953 111.586 134.973 111.483 134.971Z" fill="#6B7CFF"/>
<path d="M157.663 49.8142L159.543 53.6208L163.744 54.2303L160.706 57.193L161.423 61.3747L157.663 59.4011L153.908 61.3747L154.626 57.193L151.588 54.2303L155.788 53.6208L157.663 49.8142Z" fill="white"/>
<path d="M150.364 49.8142L152.849 54.8444L158.4 55.6507L154.382 59.5652L155.329 65.0922L150.364 62.4811L145.405 65.0922L146.352 59.5652L142.334 55.6507L147.885 54.8444L150.364 49.8142Z" fill="white"/>
<path d="M155.934 65.9219L150.36 62.9966L144.791 65.9219L145.855 59.7244L141.35 55.3318L147.575 54.4271L150.36 48.8015L153.14 54.4271L159.365 55.3318L154.86 59.7198L155.934 65.9219ZM143.328 55.9647L146.853 59.4057L146.019 64.2624L150.383 61.9653L154.743 64.2624L153.895 59.4103L157.42 55.9694L152.544 55.2615L150.36 50.8408L148.175 55.2568L143.328 55.9647Z" fill="#6B7CFF"/>
<path d="M205.574 186.998C205.574 186.013 205.528 124.081 205.462 33.0827L205.574 33.1952H94.8543L94.9762 33.0733C94.9762 90.6648 94.9762 143.948 94.9528 186.988L94.8543 186.89L205.588 186.988L94.8543 187.087H94.7559V186.988C94.7559 143.948 94.7559 90.6648 94.7324 33.0733V32.9514H94.8684H205.588H205.678V33.0592C205.617 124.104 205.574 186.013 205.574 186.998Z" fill="#263238"/>
<path d="M151.386 125.675C151.386 125.675 149.745 123.209 153.032 123.073C156.318 122.937 172.473 125.675 177.948 128.412L182.739 131.422L177.55 141.689H165.623C164.255 141.689 160.425 139.345 163.983 137.723C163.983 137.723 160.425 135.257 163.711 133.203C163.711 133.203 161.109 131.286 163.847 128.684L151.386 125.675Z" fill="#FFBF9D"/>
<path d="M178.909 129.43L206.099 143.672L216.3 133.911L228.456 144.862C228.456 144.862 216.408 159.011 209.428 160.244C202.447 161.477 175.262 139.617 175.262 139.617L178.909 129.43Z" fill="#FFBF9D"/>
<path d="M207.436 85.663L207.182 85.8083C206.787 86.0111 206.366 86.1578 205.931 86.2443C205.724 86.2673 205.518 86.3049 205.317 86.3568C205.196 86.4219 205.082 86.4972 204.974 86.5819C204.229 87.0178 203.282 87.0506 202.448 87.1585C201.51 87.2569 200.502 87.4022 199.771 88.007C199.039 88.6117 198.711 89.8165 199.354 90.515C199.051 90.5201 198.761 90.6352 198.538 90.8389C198.314 91.0426 198.172 91.3208 198.139 91.6214C198.118 91.9238 198.173 92.2267 198.301 92.5015C198.429 92.7763 198.625 93.0139 198.871 93.1919C199.368 93.5442 199.951 93.7548 200.558 93.8013C200.208 93.8602 199.894 94.053 199.683 94.3391C199.472 94.6252 199.381 94.9821 199.429 95.3343C199.492 95.6847 199.643 96.0133 199.869 96.2889C200.095 96.5645 200.387 96.778 200.718 96.9094C201.381 97.1677 202.094 97.2766 202.804 97.2282C203.72 97.1953 204.637 97.2141 205.551 97.2844C205.551 97.2844 205.551 98.1892 205.551 98.5971C205.551 99.1502 205.551 98.719 205.551 98.719C206.046 99.0078 206.579 99.2241 207.136 99.3612C208.368 99.7644 209.165 100.093 210.276 100.378C211.106 100.594 211.922 100.697 212.367 100.139C213.441 98.7987 210.619 96.8578 210.619 96.8578C211.448 96.389 211.223 93.731 209.991 93.37C210.6 93.07 210.984 93.1028 211.345 92.5215C211.532 92.2362 211.649 91.911 211.686 91.5722C211.724 91.2333 211.681 90.8905 211.561 90.5713C211.428 90.2575 211.197 89.9959 210.901 89.8265C210.606 89.6572 210.263 89.5894 209.925 89.6337C210.324 89.2903 210.609 88.8343 210.744 88.3255C210.879 87.8168 210.856 87.2792 210.68 86.7834C210.448 86.1913 210.005 85.7055 209.437 85.4192C209.156 85.2769 208.851 85.1864 208.537 85.152C208.419 85.131 208.299 85.131 208.181 85.152C208.129 85.1683 208.079 85.1937 208.036 85.227C207.829 85.3349 207.651 85.5177 207.436 85.663Z" fill="#FFBF9D"/>
<path d="M208.755 82.6064C208.746 82.3125 208.674 82.0238 208.544 81.7601C208.413 81.4964 208.228 81.2638 208 81.0782C207.428 80.6891 206.397 80.736 205.717 80.886C205.675 81.711 205.717 82.1283 205.661 82.9534C205.661 83.1268 205.712 83.2628 205.632 83.4222C205.421 83.83 204.526 83.8909 204.114 84.1019C203.773 84.3089 203.524 84.6384 203.419 85.0228C203.313 85.4072 203.359 85.8174 203.546 86.1693C203.753 86.5113 204.052 86.7871 204.41 86.9641C204.769 87.1411 205.17 87.2118 205.567 87.1678C206.366 87.0664 207.098 86.6702 207.62 86.0568C208.036 85.5905 208.352 85.0434 208.547 84.4498C208.742 83.8562 208.813 83.2286 208.755 82.6064Z" fill="#FFBF9D"/>
<path d="M210.156 89.5868C210.156 89.6525 207.751 89.915 204.769 90.1681C201.788 90.4213 199.364 90.576 199.359 90.5057C199.355 90.4353 201.764 90.1775 204.746 89.9244C207.727 89.6712 210.151 89.5165 210.156 89.5868Z" fill="#FF9A6C"/>
<path d="M210.154 93.3511C209.696 93.4914 209.225 93.5856 208.748 93.6324C207.601 93.8031 206.446 93.9157 205.288 93.9699C203.928 94.0402 202.7 94.0261 201.81 93.9699C201.328 93.9723 200.847 93.9251 200.375 93.8293C200.853 93.7819 201.334 93.7709 201.814 93.7964C202.7 93.7964 203.924 93.7964 205.274 93.7121C206.624 93.6277 207.843 93.5386 208.724 93.4495C209.198 93.3835 209.676 93.3506 210.154 93.3511Z" fill="#FF9A6C"/>
<path d="M210.157 97.0312C209.773 97.14 209.378 97.2029 208.98 97.2187C208.249 97.2937 207.236 97.35 206.116 97.3641C204.995 97.3781 203.983 97.3641 203.251 97.3641C202.853 97.3825 202.454 97.3605 202.061 97.2984C202.451 97.2209 202.849 97.1847 203.247 97.1906C203.983 97.1578 204.995 97.1437 206.111 97.125C207.227 97.1062 208.239 97.0828 208.971 97.05C209.365 97.0106 209.761 97.0044 210.157 97.0312Z" fill="#FF9A6C"/>
<path d="M208.53 83.8154C208.621 84.1265 208.594 84.4604 208.455 84.753C208.171 85.4589 207.637 86.035 206.954 86.3704C206.595 86.5624 206.219 86.7194 205.829 86.8392C205.514 86.951 205.187 87.028 204.854 87.0689C204.618 87.0955 204.38 87.0409 204.179 86.9142C204.043 86.8204 204.006 86.7313 204.015 86.722C204.257 86.8802 204.549 86.9436 204.835 86.9001C205.155 86.8341 205.469 86.7416 205.773 86.6235C206.146 86.4959 206.508 86.3392 206.856 86.1547C207.493 85.8413 208.007 85.3229 208.314 84.6827C208.41 84.4003 208.483 84.1102 208.53 83.8154Z" fill="#FF9A6C"/>
<path d="M81.2601 61.5154H0.800781V173.351H81.2601V61.5154Z" fill="white"/>
<path d="M81.2601 61.5154H0.800781V101.996H81.2601V61.5154Z" fill="#5B64A6"/>
<path d="M67.3329 111.915C67.3329 111.985 56.2693 112.041 42.6274 112.041C28.9854 112.041 17.9219 111.985 17.9219 111.915C17.9219 111.845 28.9808 111.793 42.6274 111.793C56.274 111.793 67.3329 111.835 67.3329 111.915Z" fill="#263238"/>
<path d="M67.3329 122.805C67.3329 122.871 56.2693 122.927 42.6274 122.927C28.9854 122.927 17.9219 122.871 17.9219 122.805C17.9219 122.739 28.9808 122.683 42.6274 122.683C56.274 122.683 67.3329 122.739 67.3329 122.805Z" fill="#263238"/>
<path d="M67.3329 133.71C67.3329 133.775 56.2693 133.831 42.6274 133.831C28.9854 133.831 17.9219 133.775 17.9219 133.71C17.9219 133.644 28.9808 133.583 42.6274 133.583C56.274 133.583 67.3329 133.639 67.3329 133.71Z" fill="#263238"/>
<path d="M67.1246 146.278H18.7965C14.043 146.278 10.1895 150.131 10.1895 154.885V155.78C10.1895 160.534 14.043 164.387 18.7965 164.387H67.1246C71.8782 164.387 75.7317 160.534 75.7317 155.78V154.885C75.7317 150.131 71.8782 146.278 67.1246 146.278Z" fill="#5B64A6"/>
<path d="M33.5598 92.0053C33.7358 92.2419 33.8267 92.531 33.8177 92.8257C33.8258 93.0406 33.7778 93.254 33.6783 93.4447C33.5788 93.6354 33.4313 93.7969 33.2504 93.9133C32.7538 94.1968 32.1851 94.3288 31.6143 94.293H28.7266V88.9441H31.4643C32.0097 88.9088 32.5529 89.0413 33.0207 89.3238C33.1893 89.435 33.3271 89.587 33.4214 89.7656C33.5156 89.9443 33.5632 90.1438 33.5598 90.3458C33.5619 90.5869 33.4969 90.8238 33.3723 91.0302C33.2401 91.2322 33.0554 91.3943 32.8379 91.499C33.1237 91.5919 33.3751 91.7682 33.5598 92.0053ZM30.222 90.0364V91.0677H31.2815C31.7925 91.0677 32.0456 90.8942 32.0456 90.5473C32.0456 90.2004 31.7925 90.0364 31.2815 90.0364H30.222ZM32.2894 92.6569C32.2894 92.2959 32.0222 92.1131 31.4925 92.1131H30.222V93.2007H31.4925C32.0222 93.2007 32.2894 93.0179 32.2894 92.6569Z" fill="white"/>
<path d="M38.1914 93.2524H35.9271L35.5099 94.2931H33.9629L36.3069 88.9395H37.7976L40.1885 94.2931H38.6133L38.1914 93.2524ZM37.7461 92.1366L37.0616 90.4255L36.3725 92.1366H37.7461Z" fill="white"/>
<path d="M41.236 94.2416C40.8817 94.1582 40.5451 94.0121 40.2422 93.8103L40.7391 92.6945C40.9979 92.8612 41.2788 92.9906 41.5736 93.0789C41.8768 93.1749 42.193 93.2239 42.5112 93.2243C43.0925 93.2243 43.3831 93.0789 43.3831 92.7883C43.3823 92.7125 43.3579 92.6389 43.3134 92.5776C43.2689 92.5163 43.2064 92.4703 43.1347 92.4461C42.8757 92.3466 42.6092 92.2682 42.3377 92.2117C41.9942 92.143 41.6558 92.0506 41.3251 91.9351C41.058 91.8398 40.8194 91.6785 40.6313 91.4663C40.4264 91.218 40.3226 90.9016 40.3406 90.5803C40.3369 90.2645 40.4302 89.9553 40.6078 89.6942C40.8088 89.4148 41.0853 89.1986 41.4048 89.0707C41.82 88.9102 42.263 88.8337 42.7081 88.8457C43.0583 88.8445 43.4075 88.8839 43.7488 88.9629C44.0663 89.0318 44.3714 89.1488 44.6535 89.3098L44.1848 90.4349C43.7337 90.1746 43.2241 90.0326 42.7034 90.0224C42.4767 90.0053 42.2497 90.0507 42.047 90.1537C41.9846 90.1875 41.9324 90.2376 41.8961 90.2987C41.8598 90.3597 41.8407 90.4295 41.8408 90.5006C41.8417 90.5734 41.8658 90.6441 41.9097 90.7022C41.9535 90.7604 42.0148 90.8031 42.0846 90.824C42.3398 90.9214 42.6034 90.9952 42.8721 91.0444C43.2156 91.1153 43.5539 91.2093 43.8847 91.3256C44.1506 91.4234 44.3887 91.5843 44.5785 91.7944C44.7919 92.044 44.8995 92.3669 44.8786 92.6945C44.8821 93.0059 44.7888 93.3106 44.6114 93.5665C44.4095 93.8469 44.1312 94.0634 43.8097 94.19C43.3957 94.3559 42.9523 94.4356 42.5065 94.4244C42.0768 94.4191 41.6497 94.3577 41.236 94.2416Z" fill="white"/>
<path d="M45.5664 88.9446H47.0806V94.2982H45.5664V88.9446Z" fill="white"/>
<path d="M49.3157 94.0445C48.8791 93.819 48.5139 93.4765 48.2609 93.0553C48.0118 92.6174 47.8809 92.1222 47.8809 91.6184C47.8809 91.1146 48.0118 90.6195 48.2609 90.1816C48.5136 89.759 48.8788 89.4149 49.3157 89.1877C49.7822 88.9481 50.3007 88.8274 50.8252 88.8361C51.279 88.8287 51.7294 88.9165 52.1472 89.094C52.5304 89.2597 52.867 89.5173 53.127 89.844L52.1612 90.716C52.0137 90.5211 51.8231 90.363 51.6044 90.254C51.3856 90.1451 51.1446 90.0882 50.9002 90.0878C50.63 90.0834 50.3634 90.1497 50.1267 90.28C49.9007 90.4035 49.7164 90.5911 49.5969 90.8191C49.4675 91.0645 49.4029 91.3388 49.4094 91.6161C49.4036 91.8948 49.4681 92.1705 49.5969 92.4177C49.7177 92.6448 49.9017 92.8321 50.1267 92.9568C50.3634 93.0872 50.63 93.1534 50.9002 93.1491C51.1446 93.1487 51.3856 93.0918 51.6044 92.9828C51.8231 92.8739 52.0137 92.7157 52.1612 92.5209L53.127 93.3928C52.8656 93.7182 52.5295 93.9755 52.1472 94.1429C51.7294 94.3204 51.279 94.4082 50.8252 94.4007C50.3001 94.4102 49.7811 94.2877 49.3157 94.0445Z" fill="white"/>
<path d="M30.6809 157.164C30.2781 156.947 29.9437 156.622 29.7152 156.226C29.4846 155.822 29.3633 155.365 29.3633 154.899C29.3633 154.434 29.4846 153.977 29.7152 153.573C29.9539 153.201 30.2873 152.9 30.6809 152.701C31.0743 152.501 31.5062 152.388 31.9471 152.37C32.388 152.353 32.8276 152.43 33.2358 152.597C33.5753 152.743 33.8757 152.966 34.1125 153.249L33.3718 153.934C33.2214 153.749 33.0311 153.6 32.8151 153.5C32.5991 153.399 32.3631 153.348 32.1248 153.352C31.8368 153.346 31.5523 153.415 31.2997 153.554C31.0618 153.685 30.8653 153.88 30.7325 154.116C30.5952 154.369 30.5258 154.654 30.5309 154.941C30.5245 155.229 30.594 155.514 30.7325 155.767C30.8621 155.995 31.0518 156.183 31.281 156.31C31.5335 156.449 31.8181 156.518 32.106 156.512C32.3451 156.515 32.5818 156.463 32.7979 156.361C33.014 156.258 33.2039 156.108 33.353 155.921L34.0937 156.606C33.8594 156.896 33.5565 157.123 33.2124 157.267C32.8411 157.421 32.4423 157.497 32.0404 157.492C31.5672 157.496 31.1002 157.383 30.6809 157.164Z" fill="white"/>
<path d="M38.2824 153.952C38.4368 154.123 38.5551 154.323 38.6301 154.54C38.705 154.758 38.735 154.988 38.7183 155.218V157.388H37.612V155.368C37.6295 155.126 37.5578 154.886 37.4104 154.693C37.3368 154.615 37.2469 154.555 37.1473 154.516C37.0476 154.477 36.9405 154.461 36.8338 154.468C36.711 154.462 36.5882 154.482 36.4735 154.526C36.3588 154.57 36.2548 154.638 36.1681 154.726C35.9862 154.941 35.8969 155.219 35.9196 155.499V157.374H34.8086V152.133H35.9196V153.98C36.0661 153.832 36.2416 153.715 36.4353 153.638C36.6544 153.558 36.8864 153.518 37.1198 153.521C37.3327 153.51 37.5457 153.542 37.7456 153.617C37.9455 153.691 38.1282 153.805 38.2824 153.952Z" fill="white"/>
<path d="M40.5033 157.215C40.1935 157.054 39.934 156.81 39.7532 156.512C39.5783 156.201 39.4863 155.851 39.4863 155.494C39.4863 155.138 39.5783 154.788 39.7532 154.477C39.9356 154.181 40.1948 153.939 40.5033 153.779C40.8397 153.607 41.2131 153.52 41.5909 153.525C41.9658 153.519 42.3363 153.606 42.6691 153.779C42.9775 153.938 43.2355 154.18 43.4145 154.477C43.5926 154.787 43.6864 155.137 43.6864 155.494C43.6864 155.851 43.5926 156.202 43.4145 156.512C43.2362 156.811 42.9781 157.054 42.6691 157.215C42.3359 157.386 41.9654 157.471 41.5909 157.463C41.2135 157.471 40.8401 157.385 40.5033 157.215ZM42.2894 156.277C42.4788 156.066 42.5766 155.787 42.5613 155.504C42.5688 155.364 42.5486 155.224 42.5019 155.092C42.4553 154.96 42.3831 154.839 42.2894 154.735C42.1996 154.641 42.0911 154.566 41.9708 154.516C41.8505 154.466 41.7211 154.442 41.5909 154.444C41.4591 154.44 41.3279 154.464 41.206 154.514C41.084 154.564 40.974 154.639 40.883 154.735C40.7886 154.839 40.7155 154.96 40.668 155.092C40.6205 155.224 40.5996 155.364 40.6064 155.504C40.593 155.788 40.6924 156.066 40.883 156.277C40.9744 156.372 41.0846 156.446 41.2065 156.496C41.3285 156.545 41.4595 156.568 41.5909 156.563C41.7215 156.565 41.8511 156.54 41.9714 156.489C42.0916 156.439 42.2 156.363 42.2894 156.268V156.277Z" fill="white"/>
<path d="M45.162 157.215C44.8513 157.055 44.5915 156.811 44.4119 156.511C44.2722 156.285 44.1805 156.033 44.1427 155.769C44.1049 155.506 44.1217 155.238 44.1921 154.982C44.2625 154.725 44.3849 154.486 44.5518 154.279C44.7186 154.072 44.9263 153.902 45.162 153.778C45.4987 153.612 45.8692 153.525 46.2449 153.525C46.6205 153.525 46.9911 153.612 47.3278 153.778C47.6361 153.938 47.8942 154.18 48.0732 154.477C48.2513 154.786 48.345 155.137 48.345 155.494C48.345 155.851 48.2513 156.202 48.0732 156.511C47.8948 156.81 47.6367 157.054 47.3278 157.215C46.9902 157.378 46.62 157.463 46.2449 157.463C45.8698 157.463 45.4996 157.378 45.162 157.215ZM46.9481 156.277C47.1351 156.068 47.2328 155.793 47.22 155.513C47.2274 155.373 47.2073 155.233 47.1606 155.101C47.1139 154.969 47.0417 154.848 46.9481 154.744C46.8577 154.649 46.7484 154.574 46.6273 154.524C46.5062 154.474 46.3759 154.45 46.2449 154.453C46.1139 154.45 45.9836 154.474 45.8625 154.524C45.7414 154.574 45.6321 154.649 45.5417 154.744C45.4472 154.848 45.3741 154.969 45.3267 155.101C45.2792 155.233 45.2583 155.373 45.2651 155.513C45.2516 155.797 45.351 156.075 45.5417 156.286C45.6325 156.38 45.742 156.454 45.8631 156.504C45.9842 156.553 46.1142 156.576 46.2449 156.572C46.3769 156.574 46.5079 156.548 46.629 156.495C46.7502 156.443 46.8589 156.365 46.9481 156.268V156.277Z" fill="white"/>
<path d="M49.4368 157.346C49.1809 157.29 48.9366 157.19 48.7148 157.051L49.0852 156.259C49.2769 156.377 49.4856 156.466 49.704 156.521C49.9338 156.589 50.1722 156.624 50.4119 156.624C50.8807 156.624 51.1151 156.512 51.1151 156.277C51.1142 156.222 51.0947 156.169 51.0598 156.127C51.0249 156.084 50.9767 156.055 50.9229 156.043C50.7324 155.982 50.536 155.941 50.3369 155.921C50.0736 155.887 49.8135 155.832 49.5587 155.757C49.3572 155.697 49.1748 155.585 49.0289 155.434C48.8693 155.248 48.7886 155.007 48.8039 154.763C48.8004 154.532 48.8747 154.305 49.0149 154.121C49.1742 153.919 49.387 153.767 49.629 153.68C49.9295 153.572 50.2472 153.52 50.5666 153.526C50.8379 153.525 51.1084 153.555 51.3729 153.615C51.6059 153.662 51.8303 153.744 52.0386 153.858L51.6683 154.651C51.3328 154.46 50.9527 154.361 50.5666 154.365C50.3831 154.355 50.1999 154.388 50.0322 154.463C49.9816 154.486 49.9382 154.522 49.9067 154.567C49.8753 154.613 49.8571 154.666 49.854 154.721C49.8542 154.778 49.8732 154.833 49.9079 154.878C49.9427 154.923 49.9913 154.955 50.0462 154.969C50.2464 155.033 50.4519 155.079 50.6603 155.105C50.9194 155.146 51.176 155.201 51.4292 155.27C51.6276 155.33 51.8059 155.444 51.9448 155.598C52.0229 155.686 52.0826 155.789 52.1204 155.901C52.1583 156.013 52.1735 156.132 52.1652 156.249C52.1687 156.478 52.0943 156.701 51.9542 156.882C51.7898 157.08 51.5741 157.229 51.3307 157.313C51.0189 157.421 50.6902 157.472 50.3603 157.463C50.0487 157.464 49.7384 157.424 49.4368 157.346Z" fill="white"/>
<path d="M56.5948 155.808H53.7023C53.7467 156.036 53.8778 156.238 54.068 156.371C54.2829 156.513 54.5368 156.586 54.7946 156.577C54.9753 156.582 55.1551 156.552 55.3243 156.488C55.4852 156.424 55.6318 156.328 55.7556 156.207L56.3463 156.849C56.1441 157.061 55.8978 157.226 55.6248 157.332C55.3518 157.438 55.0587 157.483 54.7665 157.463C54.3709 157.473 53.9787 157.387 53.6226 157.215C53.3037 157.06 53.0366 156.815 52.8538 156.512C52.677 156.203 52.584 155.853 52.584 155.497C52.584 155.141 52.677 154.791 52.8538 154.482C53.0296 154.184 53.2843 153.941 53.5898 153.779C53.9096 153.607 54.2677 153.52 54.6305 153.525C54.9847 153.52 55.3346 153.604 55.6478 153.769C55.9475 153.927 56.195 154.168 56.3604 154.463C56.5307 154.786 56.6116 155.148 56.5948 155.513C56.5948 155.513 56.5948 155.626 56.5948 155.808ZM53.9883 154.576C53.8154 154.723 53.7049 154.931 53.6789 155.157H55.554C55.5234 154.931 55.4117 154.725 55.2399 154.576C55.0639 154.429 54.8405 154.353 54.6118 154.36C54.3847 154.354 54.1631 154.43 53.9883 154.576Z" fill="white"/>
<path d="M12.8897 113.936C12.7176 113.937 12.5509 113.875 12.421 113.762L11.0474 112.548C10.9075 112.424 10.8228 112.249 10.8118 112.062C10.8008 111.875 10.8645 111.692 10.9888 111.552C11.1131 111.412 11.2879 111.327 11.4747 111.316C11.6616 111.305 11.8451 111.369 11.985 111.493L12.8429 112.248L14.7837 110.101C14.9124 109.981 15.0812 109.914 15.2568 109.913C15.4325 109.912 15.6022 109.976 15.7327 110.094C15.8632 110.211 15.945 110.374 15.962 110.548C15.9789 110.723 15.9299 110.898 15.8244 111.038L13.4195 113.697C13.3526 113.771 13.2709 113.831 13.1797 113.872C13.0885 113.913 12.9898 113.935 12.8897 113.936Z" fill="#455A64"/>
<path d="M12.8915 124.835C12.7193 124.836 12.5527 124.775 12.4227 124.662L11.0491 123.452C10.9796 123.391 10.9228 123.316 10.8821 123.233C10.8414 123.149 10.8175 123.058 10.8119 122.966C10.8004 122.778 10.8639 122.594 10.9882 122.454C11.1125 122.313 11.2876 122.228 11.4748 122.216C11.6621 122.205 11.8462 122.268 11.9867 122.393L12.8399 123.166L14.7807 121.024C14.8394 120.946 14.9136 120.881 14.9987 120.833C15.0838 120.785 15.178 120.756 15.2752 120.746C15.3723 120.737 15.4704 120.748 15.5631 120.778C15.6559 120.809 15.7412 120.858 15.8138 120.924C15.8863 120.989 15.9444 121.069 15.9845 121.158C16.0245 121.247 16.0455 121.343 16.0463 121.441C16.047 121.539 16.0274 121.635 15.9887 121.725C15.95 121.814 15.893 121.895 15.8215 121.962L13.4166 124.62C13.3488 124.69 13.2672 124.746 13.1768 124.783C13.0864 124.82 12.9892 124.838 12.8915 124.835Z" fill="#455A64"/>
<path d="M12.8897 135.739C12.7176 135.74 12.5509 135.678 12.421 135.566L11.0474 134.351C10.9781 134.29 10.9217 134.215 10.8812 134.132C10.8408 134.048 10.8172 133.958 10.8118 133.865C10.8063 133.773 10.8192 133.68 10.8495 133.593C10.8799 133.505 10.9272 133.424 10.9888 133.355C11.0503 133.286 11.1249 133.23 11.2083 133.189C11.2917 133.149 11.3822 133.125 11.4747 133.12C11.5672 133.114 11.6599 133.127 11.7475 133.157C11.835 133.188 11.9157 133.235 11.985 133.297L12.8429 134.051L14.7837 131.904C14.8423 131.826 14.9165 131.761 15.0017 131.713C15.0868 131.666 15.1809 131.636 15.2781 131.627C15.3753 131.617 15.4734 131.628 15.5661 131.659C15.6588 131.689 15.7442 131.739 15.8167 131.804C15.8892 131.869 15.9474 131.949 15.9874 132.038C16.0274 132.127 16.0485 132.224 16.0492 132.321C16.0499 132.419 16.0303 132.516 15.9916 132.605C15.9529 132.695 15.896 132.775 15.8244 132.842L13.4195 135.5C13.3526 135.574 13.2709 135.634 13.1797 135.675C13.0885 135.716 12.9898 135.738 12.8897 135.739Z" fill="#455A64"/>
<path d="M44.0812 82.0156L41.0341 80.3701L37.9494 81.9452L38.5729 78.5418L36.1211 76.0947L39.5527 75.6353L41.1231 72.5459L42.6233 75.6681L46.0455 76.2072L43.5374 78.598L44.0812 82.0156Z" fill="white"/>
<path d="M81.2593 173.351C81.2593 172.366 81.2171 127.62 81.1515 61.515L81.2593 61.6275L0.809387 61.6368L0.931273 61.515C0.931273 103.36 0.931273 142.077 0.907833 173.351L0.809387 173.252L81.2687 173.351L0.809387 173.449H0.71094V173.351C0.71094 142.077 0.71094 103.36 0.6875 61.515V61.3931H0.809387H81.2593H81.3719V61.5009C81.3062 127.62 81.264 172.39 81.2593 173.351Z" fill="#263238"/>
</svg>
