<svg width="185" height="128" viewBox="0 0 185 128" fill="none" xmlns="http://www.w3.org/2000/svg">
<path d="M15.3558 1.5H177.777C181.495 1.5 184.5 4.4797 184.5 8.14376V119.856C184.5 123.52 181.495 126.5 177.777 126.5H15.3558C11.6376 126.5 8.63281 123.52 8.63281 119.856V8.14376C8.63281 4.4797 11.6376 1.5 15.3558 1.5Z" fill="white" stroke="#332C5C"/>
<path d="M176.091 1H13.6703C9.68112 1 6.44727 4.19837 6.44727 8.14376V119.856C6.44727 123.802 9.68112 127 13.6703 127H176.091C180.081 127 183.314 123.802 183.314 119.856V8.14376C183.314 4.19837 180.081 1 176.091 1Z" fill="white" stroke="#332C5C" stroke-width="0.75" stroke-miterlimit="10"/>
<path d="M133.324 19.2269H174.025C176.157 19.2269 177.876 20.9349 177.876 23.0303V81.2848C177.876 83.3801 176.157 85.0882 174.025 85.0882H133.324C131.192 85.0882 129.473 83.3801 129.473 81.2848V23.0303C129.473 20.9349 131.192 19.2269 133.324 19.2269Z" fill="#6B7CFF" fill-opacity="0.65" stroke="#332C5C"/>
<path d="M168.993 15.8622H125.931C123.532 15.8622 121.588 17.7852 121.588 20.1574V75.111C121.588 77.4832 123.532 79.4062 125.931 79.4062H168.993C171.391 79.4062 173.336 77.4832 173.336 75.111V20.1574C173.336 17.7852 171.391 15.8622 168.993 15.8622Z" fill="white" stroke="#332C5C" stroke-width="0.75" stroke-miterlimit="10"/>
<path d="M13.8081 21.2646H54.5092C56.6413 21.2646 58.3603 22.9726 58.3603 25.068V117.921C58.3603 120.016 56.6413 121.724 54.5092 121.724H13.8081C11.676 121.724 9.95703 120.016 9.95703 117.921V25.068C9.95703 22.9726 11.676 21.2646 13.8081 21.2646Z" fill="#6B7CFF" fill-opacity="0.65" stroke="#332C5C"/>
<path d="M72.2828 19.2269H112.984C115.116 19.2269 116.835 20.9349 116.835 23.0303V59.5723C116.835 61.6677 115.116 63.3757 112.984 63.3757H72.2828C70.1506 63.3757 68.4316 61.6677 68.4316 59.5723V23.0303C68.4316 20.9349 70.1506 19.2269 72.2828 19.2269Z" fill="#6B7CFF" fill-opacity="0.65" stroke="#332C5C"/>
<path d="M15.3517 1.5H177.777C181.491 1.5 184.5 4.48052 184.5 8.14376V11.5111H8.63281V8.14376C8.63281 4.48015 11.6384 1.5 15.3517 1.5Z" fill="white" stroke="#332C5C"/>
<path d="M13.6703 1H176.095C180.08 1 183.319 4.199 183.319 8.14376V12.0111H6.44727V8.14376C6.44727 4.199 9.68588 1 13.6703 1Z" fill="#6B7CFF" fill-opacity="0.65" stroke="#332C5C" stroke-width="0.75" stroke-miterlimit="10"/>
<path d="M15.1757 9.01584C16.4409 9.01584 17.4666 8.00141 17.4666 6.75004C17.4666 5.49868 16.4409 4.48425 15.1757 4.48425C13.9104 4.48425 12.8848 5.49868 12.8848 6.75004C12.8848 8.00141 13.9104 9.01584 15.1757 9.01584Z" fill="#FBF9ED" stroke="#332C5C" stroke-width="0.75" stroke-miterlimit="10"/>
<path d="M22.0507 9.01584C23.3159 9.01584 24.3416 8.00141 24.3416 6.75004C24.3416 5.49868 23.3159 4.48425 22.0507 4.48425C20.7854 4.48425 19.7598 5.49868 19.7598 6.75004C19.7598 8.00141 20.7854 9.01584 22.0507 9.01584Z" fill="#FBF9ED" stroke="#332C5C" stroke-width="0.75" stroke-miterlimit="10"/>
<path d="M28.9237 9.01584C30.189 9.01584 31.2147 8.00141 31.2147 6.75004C31.2147 5.49868 30.189 4.48425 28.9237 4.48425C27.6585 4.48425 26.6328 5.49868 26.6328 6.75004C26.6328 8.00141 27.6585 9.01584 28.9237 9.01584Z" fill="#FBF9ED" stroke="#332C5C" stroke-width="0.75" stroke-miterlimit="10"/>
<path d="M108.606 16.2126H65.5601C63.1571 16.2126 61.209 18.1393 61.209 20.516V54.3317C61.209 56.7084 63.1571 58.635 65.5601 58.635H108.606C111.009 58.635 112.957 56.7084 112.957 54.3317V20.516C112.957 18.1393 111.009 16.2126 108.606 16.2126Z" fill="white" stroke="#332C5C" stroke-width="0.75" stroke-miterlimit="10"/>
<path d="M67.3258 28.8362H107.067C108.12 28.8362 108.965 29.6794 108.965 30.7079V49.1888C108.965 50.2173 108.12 51.0605 107.067 51.0605H67.3258C66.2723 51.0605 65.4277 50.2173 65.4277 49.1888V30.7079C65.4277 29.6794 66.2723 28.8362 67.3258 28.8362Z" fill="#6B7CFF" fill-opacity="0.65" stroke="#332C5C"/>
<path d="M48.3967 16.4246H5.35112C2.94806 16.4246 1 18.3512 1 20.7279V113.581C1 115.957 2.94806 117.884 5.35112 117.884H48.3967C50.7997 117.884 52.7478 115.957 52.7478 113.581V20.7279C52.7478 18.3512 50.7997 16.4246 48.3967 16.4246Z" fill="white" stroke="#332C5C" stroke-width="0.75" stroke-miterlimit="10"/>
<path d="M6.76329 29.0481H46.5043C47.5578 29.0481 48.4024 29.8913 48.4024 30.9198V49.4007C48.4024 50.4293 47.5578 51.2725 46.5043 51.2725H6.76329C5.70981 51.2725 4.86523 50.4293 4.86523 49.4007V30.9198C4.86523 29.8913 5.70981 29.0481 6.76329 29.0481Z" fill="#6B7CFF" fill-opacity="0.65" stroke="#332C5C"/>
<path d="M6.76329 101.541H46.5043C47.5578 101.541 48.4024 102.384 48.4024 103.413V111.514C48.4024 112.543 47.5578 113.386 46.5043 113.386H6.76329C5.70981 113.386 4.86523 112.543 4.86523 111.514V103.413C4.86523 102.384 5.70981 101.541 6.76329 101.541Z" fill="#6B7CFF" fill-opacity="0.65" stroke="#332C5C"/>
<path d="M6.76329 55.9197H46.5043C47.5578 55.9197 48.4024 56.7629 48.4024 57.7914V94.5576C48.4024 95.5861 47.5578 96.4293 46.5043 96.4293H6.76329C5.70981 96.4293 4.86523 95.5861 4.86523 94.5576V57.7914C4.86523 56.7629 5.70981 55.9197 6.76329 55.9197Z" fill="#6B7CFF" fill-opacity="0.65" stroke="#332C5C"/>
<path d="M6.76329 55.9197H46.5043C47.556 55.9197 48.4024 56.7646 48.4024 57.7914V82.1825H4.86523V57.7914C4.86523 56.7646 5.71158 55.9197 6.76329 55.9197Z" fill="#6B7CFF" fill-opacity="0.65" stroke="#332C5C"/>
<path d="M6.05047 21.3705H21.5554C22.2152 21.3705 22.7407 21.8981 22.7407 22.5373C22.7407 23.1765 22.2152 23.704 21.5554 23.704H6.05047C5.39067 23.704 4.86523 23.1765 4.86523 22.5373C4.86523 21.8981 5.39067 21.3705 6.05047 21.3705Z" fill="white" stroke="#332C5C"/>
<path d="M9.82586 32.1453H16.6945C17.3543 32.1453 17.8798 32.6729 17.8798 33.3121C17.8798 33.9513 17.3543 34.4788 16.6945 34.4788H9.82586C9.16606 34.4788 8.64062 33.9513 8.64062 33.3121C8.64062 32.6729 9.16606 32.1453 9.82586 32.1453Z" fill="white" stroke="#332C5C"/>
<path d="M70.5641 31.9333H77.4328C78.0926 31.9333 78.618 32.4608 78.618 33.1C78.618 33.7392 78.0926 34.2668 77.4328 34.2668H70.5641C69.9043 34.2668 69.3789 33.7392 69.3789 33.1C69.3789 32.4608 69.9043 31.9333 70.5641 31.9333Z" fill="white" stroke="#332C5C"/>
<path d="M9.82586 86.0841H16.6945C17.3543 86.0841 17.8798 86.6117 17.8798 87.2508C17.8798 87.89 17.3543 88.4176 16.6945 88.4176H9.82586C9.16606 88.4176 8.64062 87.89 8.64062 87.2508C8.64062 86.6117 9.16606 86.0841 9.82586 86.0841Z" fill="white" stroke="#332C5C"/>
<path d="M9.01415 38.2417H44.5771C44.7897 38.2417 44.9506 38.41 44.9506 38.6036C44.9506 38.7972 44.7897 38.9655 44.5771 38.9655H9.01415C8.80152 38.9655 8.64062 38.7972 8.64062 38.6036C8.64062 38.41 8.80152 38.2417 9.01415 38.2417Z" fill="#D3DDFF" stroke="#332C5C"/>
<path d="M9.01415 42.3046H44.5771C44.7897 42.3046 44.9506 42.4729 44.9506 42.6665C44.9506 42.8601 44.7897 43.0284 44.5771 43.0284H9.01415C8.80152 43.0284 8.64062 42.8601 8.64062 42.6665C8.64062 42.4729 8.80152 42.3046 9.01415 42.3046Z" fill="#D3DDFF" stroke="#332C5C"/>
<path d="M12.3911 104.83H44.5795C44.7921 104.83 44.953 104.998 44.953 105.192C44.953 105.385 44.7921 105.554 44.5795 105.554H12.3911C12.1785 105.554 12.0176 105.385 12.0176 105.192C12.0176 104.998 12.1785 104.83 12.3911 104.83Z" fill="#D3DDFF" stroke="#332C5C"/>
<path d="M12.3911 108.897H32.8076C33.0202 108.897 33.1811 109.065 33.1811 109.259C33.1811 109.452 33.0202 109.621 32.8076 109.621H12.3911C12.1785 109.621 12.0176 109.452 12.0176 109.259C12.0176 109.065 12.1785 108.897 12.3911 108.897Z" fill="#D3DDFF" stroke="#332C5C"/>
<path d="M9.01414 91.769H38.5572C38.7699 91.769 38.9308 91.9373 38.9308 92.1309C38.9308 92.3245 38.7699 92.4928 38.5572 92.4928H9.01414C8.80152 92.4928 8.64062 92.3245 8.64062 92.1309C8.64062 91.9373 8.80152 91.769 9.01414 91.769Z" fill="#D3DDFF" stroke="#332C5C"/>
<path d="M9.02782 46.4083H24.1455C24.3581 46.4083 24.519 46.5766 24.519 46.7702C24.519 46.9638 24.3581 47.1321 24.1455 47.1321H9.02782C8.81519 47.1321 8.6543 46.9638 8.6543 46.7702C8.6543 46.5766 8.81519 46.4083 9.02782 46.4083Z" fill="#D3DDFF" stroke="#332C5C"/>
<path d="M66.613 21.1586H82.1179C82.7777 21.1586 83.3032 21.6862 83.3032 22.3254C83.3032 22.9646 82.7777 23.4921 82.1179 23.4921H66.613C65.9532 23.4921 65.4277 22.9646 65.4277 22.3254C65.4277 21.6862 65.9532 21.1586 66.613 21.1586Z" fill="white" stroke="#332C5C"/>
<path d="M126.75 20.8081H142.255C142.914 20.8081 143.44 21.3357 143.44 21.9748C143.44 22.614 142.914 23.1416 142.255 23.1416H126.75C126.09 23.1416 125.564 22.614 125.564 21.9748C125.564 21.3357 126.09 20.8081 126.75 20.8081Z" fill="white" stroke="#332C5C"/>
<path d="M23.306 72.3473L23.3061 72.3475L23.3062 72.3477L23.3062 72.3477L23.7582 73.4428L24.2273 72.3545L24.2273 72.3544L24.2273 72.3544L24.2276 72.3537L24.2292 72.3501L24.2363 72.334C24.2427 72.3194 24.2525 72.2972 24.2657 72.268C24.2921 72.2094 24.3318 72.1224 24.3842 72.0112C24.4892 71.7887 24.6451 71.4692 24.8471 71.0852C25.2518 70.3161 25.8385 69.2939 26.5686 68.2747C27.3006 67.2528 28.1645 66.2513 29.1194 65.5094C30.0753 64.7668 31.0875 64.3105 32.1284 64.3105C33.2632 64.3105 34.3445 64.8281 35.3493 65.7269C36.3552 66.6268 37.2543 67.8836 38.0074 69.2876C39.3954 71.8751 40.2343 74.86 40.3628 76.8034H13.3821C13.4979 75.5367 14.019 73.65 14.9197 71.9997C15.9609 70.0921 17.392 68.7036 19.0957 68.7036C20.3868 68.7036 21.4265 69.5451 22.1813 70.4918C22.552 70.9566 22.8352 71.4242 23.0259 71.7768C23.121 71.9525 23.1923 72.0981 23.2392 72.1985C23.2627 72.2486 23.28 72.2874 23.2912 72.3129L23.3033 72.3408L23.3058 72.3468L23.306 72.3473Z" fill="#332C5C" stroke="#332C5C"/>
<path d="M22.7945 62.1397C22.7945 63.5396 21.6456 64.6839 20.2166 64.6839C18.7876 64.6839 17.6387 63.5396 17.6387 62.1397C17.6387 60.7398 18.7876 59.5956 20.2166 59.5956C21.6456 59.5956 22.7945 60.7398 22.7945 62.1397Z" fill="#FBF9ED" stroke="#332C5C"/>
<path d="M127.591 27.96H167.332C168.386 27.96 169.23 28.8032 169.23 29.8317V71.8141C169.23 72.8426 168.386 73.6858 167.332 73.6858H127.591C126.538 73.6858 125.693 72.8426 125.693 71.8141V29.8317C125.693 28.8032 126.538 27.96 127.591 27.96Z" fill="#6B7CFF" fill-opacity="0.65" stroke="#332C5C"/>
<path d="M130.658 58.1285H137.527C138.186 58.1285 138.712 58.656 138.712 59.2952C138.712 59.9344 138.186 60.462 137.527 60.462H130.658C129.998 60.462 129.473 59.9344 129.473 59.2952C129.473 58.656 129.998 58.1285 130.658 58.1285Z" fill="white" stroke="#332C5C"/>
<path d="M129.846 64.2208H159.389C159.602 64.2208 159.763 64.3891 159.763 64.5827C159.763 64.7763 159.602 64.9446 159.389 64.9446H129.846C129.634 64.9446 129.473 64.7763 129.473 64.5827C129.473 64.3891 129.634 64.2208 129.846 64.2208Z" fill="#D3DDFF" stroke="#332C5C"/>
<path d="M129.846 68.5079H159.389C159.602 68.5079 159.763 68.6763 159.763 68.8698C159.763 69.0634 159.602 69.2317 159.389 69.2317H129.846C129.634 69.2317 129.473 69.0634 129.473 68.8698C129.473 68.6763 129.634 68.5079 129.846 68.5079Z" fill="#D3DDFF" stroke="#332C5C"/>
<path d="M144.136 44.3916L144.136 44.3919L144.136 44.392L144.136 44.3921L144.588 45.4872L145.057 44.3989L145.057 44.3988L145.057 44.3988L145.058 44.3981L145.059 44.3945L145.066 44.3784C145.073 44.3638 145.083 44.3416 145.096 44.3123C145.122 44.2537 145.162 44.1668 145.214 44.0556C145.319 43.833 145.475 43.5136 145.677 43.1296C146.082 42.3605 146.669 41.3382 147.399 40.3191C148.131 39.2972 148.995 38.2957 149.95 37.5538C150.905 36.8112 151.918 36.3549 152.958 36.3549C154.093 36.3549 155.175 36.8724 156.179 37.7713C157.185 38.6711 158.084 39.9279 158.838 41.3319C160.225 43.9195 161.064 46.9044 161.193 48.8478H134.212C134.328 47.5811 134.849 45.6944 135.75 44.0441C136.791 42.1365 138.222 40.7479 139.926 40.7479C141.217 40.7479 142.257 41.5895 143.011 42.5361C143.382 43.001 143.665 43.4685 143.856 43.8211C143.951 43.9968 144.022 44.1424 144.069 44.2428C144.093 44.293 144.11 44.3318 144.121 44.3572L144.133 44.3852L144.136 44.3912L144.136 44.3916Z" fill="#332C5C" stroke="#332C5C"/>
<path d="M143.621 34.184C143.621 35.5839 142.472 36.7282 141.043 36.7282C139.614 36.7282 138.465 35.5839 138.465 34.184C138.465 32.7841 139.614 31.6399 141.043 31.6399C142.472 31.6399 143.621 32.7841 143.621 34.184Z" fill="#FBF9ED" stroke="#332C5C"/>
<path d="M9.38766 105.194C9.38766 105.39 9.22565 105.558 9.01414 105.558C8.80264 105.558 8.64062 105.39 8.64062 105.194C8.64062 104.998 8.80264 104.83 9.01414 104.83C9.22565 104.83 9.38766 104.998 9.38766 105.194Z" fill="#D3DDFF" stroke="#332C5C"/>
<path d="M9.38766 109.261C9.38766 109.457 9.22565 109.625 9.01414 109.625C8.80264 109.625 8.64062 109.457 8.64062 109.261C8.64062 109.065 8.80264 108.897 9.01414 108.897C9.22565 108.897 9.38766 109.065 9.38766 109.261Z" fill="#D3DDFF" stroke="#332C5C"/>
<path d="M72.938 37.553H105.126C105.339 37.553 105.5 37.7213 105.5 37.9149C105.5 38.1085 105.339 38.2768 105.126 38.2768H72.938C72.7253 38.2768 72.5645 38.1085 72.5645 37.9149C72.5645 37.7213 72.7253 37.553 72.938 37.553Z" fill="#D3DDFF" stroke="#332C5C"/>
<path d="M72.938 41.62H93.3544C93.5671 41.62 93.7279 41.7883 93.7279 41.9819C93.7279 42.1755 93.5671 42.3438 93.3544 42.3438H72.938C72.7253 42.3438 72.5645 42.1755 72.5645 41.9819C72.5645 41.7883 72.7253 41.62 72.938 41.62Z" fill="#D3DDFF" stroke="#332C5C"/>
<path d="M69.9365 37.9169C69.9365 38.1127 69.7745 38.2808 69.563 38.2808C69.3515 38.2808 69.1895 38.1127 69.1895 37.9169C69.1895 37.7211 69.3515 37.553 69.563 37.553C69.7745 37.553 69.9365 37.7211 69.9365 37.9169Z" fill="#D3DDFF" stroke="#332C5C"/>
<path d="M69.9365 41.9798C69.9365 42.1757 69.7745 42.3438 69.563 42.3438C69.3515 42.3438 69.1895 42.1757 69.1895 41.9798C69.1895 41.784 69.3515 41.6159 69.563 41.6159C69.7745 41.6159 69.9365 41.784 69.9365 41.9798Z" fill="#D3DDFF" stroke="#332C5C"/>
<path d="M72.938 45.4914H93.3544C93.5671 45.4914 93.7279 45.6597 93.7279 45.8533C93.7279 46.0469 93.5671 46.2152 93.3544 46.2152H72.938C72.7253 46.2152 72.5645 46.0469 72.5645 45.8533C72.5645 45.6597 72.7253 45.4914 72.938 45.4914Z" fill="#D3DDFF" stroke="#332C5C"/>
<path d="M69.9365 45.8553C69.9365 46.0511 69.7745 46.2193 69.563 46.2193C69.3515 46.2193 69.1895 46.0511 69.1895 45.8553C69.1895 45.6595 69.3515 45.4914 69.563 45.4914C69.7745 45.4914 69.9365 45.6595 69.9365 45.8553Z" fill="#D3DDFF" stroke="#332C5C"/>
</svg>
